<?xml version="1.0" encoding="UTF-8" standalone="no"?>
<svg
   id="XMLID_12_"
   width="131.943"
   height="114.067"
   viewBox="0 0 131.943 114.067"
   version="1.1"
   sodipodi:docname="group_9e003f.svg"
   inkscape:version="1.3 (0e150ed6c4, 2023-07-21)"
   xmlns:inkscape="http://www.inkscape.org/namespaces/inkscape"
   xmlns:sodipodi="http://sodipodi.sourceforge.net/DTD/sodipodi-0.dtd"
   xmlns="http://www.w3.org/2000/svg"
   xmlns:svg="http://www.w3.org/2000/svg">
  <defs
     id="defs1" />
  <sodipodi:namedview
     id="namedview1"
     pagecolor="#505050"
     bordercolor="#ffffff"
     borderopacity="1"
     inkscape:showpageshadow="0"
     inkscape:pageopacity="0"
     inkscape:pagecheckerboard="1"
     inkscape:deskcolor="#505050"
     inkscape:zoom="5.6568543"
     inkscape:cx="50.8233"
     inkscape:cy="75.041707"
     inkscape:window-width="1920"
     inkscape:window-height="991"
     inkscape:window-x="-9"
     inkscape:window-y="-9"
     inkscape:window-maximized="1"
     inkscape:current-layer="XMLID_12_" />
  <path
     id="XMLID_29_"
     d="M131.358,134.728c5.175,0,9.371-3.751,9.371-8.379s-4.2-8.382-9.371-8.382-9.372,3.75-9.372,8.382S126.182,134.728,131.358,134.728Z"
     transform="translate(-88.12 -90.648)" />
  <path
     id="XMLID_28_"
     d="M266.967,121.193c-5.177,0-9.373,3.75-9.373,8.382s4.2,8.38,9.373,8.38,9.371-3.751,9.371-8.38S272.141,121.193,266.967,121.193Z"
     transform="translate(-186.08 -93.073)" />
  <path
     id="XMLID_27_"
     d="M133.5,81a12.584,12.584,0,0,1,11.9,7.638,7.421,7.421,0,0,1,4.156-2.159,10.552,10.552,0,0,1-3.107-7.339,10.334,10.334,0,0,1,1.886-5.863,4.88,4.88,0,0,0-2-.6H133.8c-1.772,0-3.278.445-4.007,1.876l-4.839,9.481A13.922,13.922,0,0,1,133.5,81Z"
     transform="translate(-90.265 -56.599)" />
  <path
     id="XMLID_26_"
     d="M158.067,22.611c4.523,0,8.194-3.282,8.194-7.327s-3.671-7.332-8.194-7.332-8.2,3.28-8.2,7.332S153.541,22.611,158.067,22.611Z"
     transform="translate(-108.263 -7.952)" />
  <path
     id="XMLID_25_"
     d="M307.867,108.531a10.554,10.554,0,0,1-3.107-7.339c0-.084.026-.161.028-.245H293.452c-.041,0-.97.156-1.151.207a9.942,9.942,0,0,1-.311,1.914,12.56,12.56,0,0,1,11.721,7.622A7.42,7.42,0,0,1,307.867,108.531Z"
     transform="translate(-210.927 -77.854)" />
  <path
     id="XMLID_24_"
     d="M298.548,49.149a9,9,0,0,0,5.538-1.881,11.088,11.088,0,0,1,2.765-4.153,6.92,6.92,0,0,0,.179-1.549c0-4.191-3.8-7.582-8.482-7.582s-8.479,3.392-8.479,7.582S293.865,49.149,298.548,49.149Z"
     transform="translate(-209.54 -27.52)" />
  <path
     id="XMLID_23_"
     d="M199.054,138.957c-2.069,0-3.762.527-4.581,2.144l-1.391,2.728a10.684,10.684,0,0,1-2.831,5.543l-.049.1a7.2,7.2,0,0,1,4.658,2.9,6.308,6.308,0,0,1,.5.687l4.309,8.442,3.9-7.643a7.1,7.1,0,0,1,5.187-3.586,10.552,10.552,0,0,1-3.107-7.339,10.168,10.168,0,0,1,.847-3.97Z"
     transform="translate(-137.398 -106.426)" />
  <path
     id="XMLID_21_"
     d="M223.513,81.716a10.575,10.575,0,0,0,1.21-.108A12.52,12.52,0,0,1,232.2,76.46a7.567,7.567,0,0,0,.689-3.124c0-4.632-4.2-8.382-9.372-8.382s-9.371,3.749-9.371,8.382S218.338,81.716,223.513,81.716Z"
     transform="translate(-154.691 -50.8)" />
  <path
     id="XMLID_20_"
     d="M14.958,195.488a5.828,5.828,0,0,1,.2-4.976l5.083-9.962,8.279-16.223a7.06,7.06,0,0,1,4.811-3.538v-.454a10.519,10.519,0,0,1-2.643-6.169c-.174-.049-1.108-.207-1.151-.207H16.564c-1.842,0-3.392.464-4.145,1.938l-12.09,23.7a3.11,3.11,0,0,0,1.793,4.3,3.809,3.809,0,0,0,4.8-1.6l5.847-11.458c0,.934-.013,15.108-.013,40.382A4.141,4.141,0,0,0,17.11,215.1a4.141,4.141,0,0,0,4.351-3.892v-11.53a7.59,7.59,0,0,1-2.713-.55A6.8,6.8,0,0,1,14.958,195.488Z"
     transform="translate(0.001 -117.701)" />
  <path
     id="XMLID_18_"
     d="M60.962,102.161c4.683,0,8.479-3.394,8.479-7.582S65.645,87,60.962,87s-8.482,3.392-8.482,7.583S56.276,102.161,60.962,102.161Z"
     transform="translate(-37.91 -67.368)" />
  <path
     id="XMLID_16_"
     transform="translate(-235.36,-108.851)"
     d="m 334.66469,142.18303 c -2.05,0 -3.75503,0.51653 -4.58203,2.14453 l -1.39063,2.72656 c -0.37227,2.08761 -1.35745,4.01718 -2.83008,5.54297 l -0.0508,0.10157 c 2.16586,0.36805 4.05519,1.68178 5.1543,3.58398 l 13.35937,26.18164 c 0.51654,1.01583 0.93964,2.53243 0.90613,3.32422 -0.006,0.13652 -0.015,0.27152 -0.0391,0.40625 -0.13559,0.58165 -0.4111,1.12111 -0.63086,1.67578 -0.0382,0.073 -0.0756,0.14544 -0.11328,0.21875 -0.0531,0.0943 -0.10094,0.19206 -0.16211,0.28125 -0.004,0.0214 -0.002,0.0433 -0.006,0.0644 -0.0523,0.2237 -0.16612,0.41668 -0.30859,0.59375 -0.11465,0.12267 -0.24635,0.22411 -0.38672,0.3125 v 16.11719 c 0.64537,5.72986 8.97182,5.72986 9.61719,0 0,-23.69988 -0.0137,-36.96299 -0.0137,-44.62695 l 6.46093,12.66211 c 1.06387,1.85174 3.3459,2.61326 5.3086,1.77148 1.95466,-0.66742 2.88379,-2.89549 1.98242,-4.7539 l -13.36133,-26.1836 c -0.836,-1.638 -2.56608,-2.14453 -4.58008,-2.14453 z"
     sodipodi:nodetypes="cccccccccscccccccccccccc" />
  <path
     id="XMLID_15_"
     d="M344.279,324.89l-.211-.413,0,.249v19.495a4.844,4.844,0,0,0,4.381,2.561,4.576,4.576,0,0,0,4.808-4.3V328.3C349.846,329.339,345.8,327.865,344.279,324.89Z"
     transform="translate(-248.547 -245.878)" />
  <path
     id="XMLID_14_"
     d="M359.122,84.942c5.177,0,9.373-3.751,9.373-8.38s-4.2-8.382-9.373-8.382-9.371,3.749-9.371,8.382S353.948,84.942,359.122,84.942Z"
     transform="translate(-252.653 -53.225)" />
  <path
     id="XMLID_17_-0"
     d="m 52.34096,73.552593 1.830078,-3.484442 v -5.70921 l 1.499375,2.854605 4.490983,-8.560838 -5.598426,-10.662613 c -0.844101,-1.612781 -2.602726,-2.12657 -4.675727,-2.12657 h -14.62837 c -2.079124,0 -3.829585,0.507837 -4.673687,2.12657 L 16.946875,73.964221 a 3.5090935,3.4100522 0 0 0 2.022988,4.709402 4.2960369,4.1747848 0 0 0 5.417761,-1.758588 l 6.591545,-12.56006 c 0,9.48526 -0.01323,9.105375 -0.01323,44.265225 a 4.9390645,4.7996633 0 0 0 9.81587,0 V 83.18862 h 3.58156 v 25.43158 a 4.9380438,4.7986715 0 0 0 9.81587,0 V 81.036261 a 6.6139983,6.4273236 0 0 1 -2.041356,-2.547126 6.1057004,5.933372 0 0 1 0.203114,-4.936542 z"
     style="stroke-width:1.00618" />
  <path
     id="XMLID_13_-2"
     style="stroke-width:1.00618"
     d="m 73.68144,46.657949 c -2.090348,0 -3.829153,0.515288 -4.673254,2.127079 L 55.369783,74.7565 a 3.5090935,3.4100522 0 0 0 -0.274558,1.098743 c 0.01076,0.04716 0.02979,0.127143 0.03236,0.138964 0.03806,0.22156 0.07419,0.441854 0.122027,0.661469 0.02785,0.174068 0.06086,0.3442 0.101047,0.515094 0.06711,0.09615 0.06298,0.261848 0.150628,0.342779 0.133684,0.234707 0.291565,0.453419 0.432816,0.683703 0.07382,0.168424 0.198471,0.278182 0.324139,0.405775 0.121888,0.0995 0.260399,0.182599 0.390866,0.27237 0.229234,0.14248 0.44668,0.301451 0.653986,0.472477 0.02776,0.01948 0.05342,0.04202 0.08008,0.06301 0.05305,0.0135 0.106003,0.0276 0.15825,0.04447 0.09427,0.02455 0.1879,0.05095 0.280286,0.08152 0.07116,0.02283 0.143236,0.03468 0.217354,0.04633 0.07208,0.01312 0.146252,0.01172 0.219269,0.01112 0.209006,-0.0018 0.356545,0.05605 0.442349,0.138962 a 4.2960369,4.1747848 0 0 0 4.110781,-2.025169 L 69.404728,65.14761 v 13.54252 c 0,0.01985 -0.0114,0.03761 -0.0114,0.05744 v 30.66659 a 4.9390645,4.7996633 0 0 0 9.815539,0 V 83.98557 h 3.580724 v 25.42859 a 4.9380438,4.7986715 0 0 0 9.815548,0 V 78.747549 c 0,-0.01885 -0.01149,-0.03662 -0.01149,-0.05744 V 65.155004 l 6.593267,12.553094 a 4.142935,4.0260041 0 0 0 3.721824,2.082609 4.4675109,4.3414192 0 0 0 1.69503,-0.322397 3.5080729,3.4090603 0 0 0 2.02297,-4.709958 L 92.992194,48.785028 c -0.847171,-1.610797 -2.602027,-2.127079 -4.67707,-2.127079 z" />
  <path
     id="path20"
     style="fill:#000000;stroke-width:0.962335"
     d="m 31.050217,64.658438 -7.88217,26.180846 h 37.834039 l -2.368088,-9.010436 c -3.365227,0.0077 -7.087409,-3.358902 -5.815786,-7.516905 1.041526,-2.355394 2.122973,-3.962568 2.44502,-5.312272 l -1.140184,-4.341239 z m 24.887758,8.910381 c -2.259606,4.559247 1.274964,5.825287 1.883829,6.000212 0.377052,0.09418 0.722214,0.179248 1.108278,0.156434 z"
     sodipodi:nodetypes="cccccccccccc" />
  <path
     id="path1"
     style="fill:#000000"
     d="m 117.29688,52.261719 -7.50391,23.617187 c 0.2619,1.097428 -0.27228,2.112112 -0.63784,3.13145 -0.51118,1.425388 -3.33907,3.07703 -5.73122,3.933323 l 20.33182,-0.146804 z"
     sodipodi:nodetypes="ccsccc" />
</svg>
