<?xml version="1.0" encoding="UTF-8" standalone="no"?>
<svg
   id="XMLID_12_"
   width="131.943"
   height="114.067"
   viewBox="0 0 131.943 114.067"
   version="1.1"
   sodipodi:docname="group_ffce00.svg"
   inkscape:version="1.3 (0e150ed6c4, 2023-07-21)"
   xmlns:inkscape="http://www.inkscape.org/namespaces/inkscape"
   xmlns:sodipodi="http://sodipodi.sourceforge.net/DTD/sodipodi-0.dtd"
   xmlns="http://www.w3.org/2000/svg"
   xmlns:svg="http://www.w3.org/2000/svg">
  <defs
     id="defs1" />
  <sodipodi:namedview
     id="namedview1"
     pagecolor="#505050"
     bordercolor="#ffffff"
     borderopacity="1"
     inkscape:showpageshadow="0"
     inkscape:pageopacity="0"
     inkscape:pagecheckerboard="1"
     inkscape:deskcolor="#505050"
     inkscape:zoom="13.623572"
     inkscape:cx="64.190214"
     inkscape:cy="74.539922"
     inkscape:window-width="1920"
     inkscape:window-height="991"
     inkscape:window-x="-9"
     inkscape:window-y="-9"
     inkscape:window-maximized="1"
     inkscape:current-layer="XMLID_12_" />
  <path
     id="XMLID_29_"
     d="m 45.865328,35.460352 c 5.410707,0 9.797823,-3.921848 9.797823,-8.760642 0,-4.838793 -4.391298,-8.763777 -9.797823,-8.763777 -5.406525,0 -9.79887,3.920802 -9.79887,8.763777 0,4.842977 4.387116,8.760642 9.79887,8.760642 z"
     style="stroke-width:1.04555" />
  <path
     id="XMLID_28_"
     d="m 85.22914,18.773416 c -5.412799,0 -9.799915,3.920802 -9.799915,8.763779 0,4.842974 4.391299,8.761687 9.799915,8.761687 5.408617,0 9.797825,-3.921849 9.797825,-8.761687 0,-4.83984 -4.388163,-8.763779 -9.797825,-8.763779 z"
     style="stroke-width:1.04555" />
  <path
     id="XMLID_23_"
     d="m 65.122219,23.385325 c -2.163237,0 -3.93335,0.551004 -4.789653,2.241654 l -1.454357,2.852253 a 11.170628,11.170628 0 0 1 -2.959944,5.795469 l -0.05123,0.104556 a 7.527941,7.527941 0 0 1 4.870159,3.032087 6.5953129,6.5953129 0 0 1 0.522773,0.718291 l 4.505264,8.82651 4.077635,-7.991119 a 7.4233863,7.4233863 0 0 1 5.423255,-3.749332 11.032616,11.032616 0 0 1 -3.248517,-7.673272 10.631126,10.631126 0 0 1 0.885579,-4.150824 z"
     style="stroke-width:1.04555" />
  <path
     id="XMLID_21_"
     d="m 72.614612,21.696766 a 11.056664,11.056664 0 0 0 1.265111,-0.112918 13.090253,13.090253 0 0 1 7.817558,-5.382478 7.9116568,7.9116568 0 0 0 0.720382,-3.26629 c 0,-4.8429748 -4.391299,-8.7637777 -9.79887,-8.7637777 -5.407571,0 -9.797824,3.9197567 -9.797824,8.7637777 0,4.844021 4.382934,8.761686 9.793643,8.761686 z"
     style="stroke-width:1.04555" />
  <path
     id="XMLID_17_"
     d="m 55.868079,66.336411 1.874667,-3.673007 v -6.018171 l 1.535909,3.009085 4.600407,-9.024119 -5.734826,-11.239635 C 57.279568,37.690505 55.47809,37.148912 53.354583,37.148912 H 38.369798 c -2.12978,0 -3.922893,0.535319 -4.787561,2.241652 l -13.970604,27.37975 a 3.5945918,3.5945918 0 0 0 2.072275,4.964259 4.4007089,4.4007089 0 0 0 5.549766,-1.853756 l 6.752144,-13.239766 c 0,9.998569 -0.01359,9.598125 -0.01359,46.660699 a 5.0594036,5.0594036 0 0 0 10.055029,0 V 76.493905 h 3.668826 v 26.807845 a 5.0583581,5.0583581 0 0 0 10.055028,0 V 74.225067 a 6.7751469,6.7751469 0 0 1 -2.091095,-2.684966 6.2544644,6.2544644 0 0 1 0.208063,-5.20369 z"
     style="stroke-width:1.04555" />
  <path
     id="XMLID_13_"
     style="stroke-width:1.04555"
     d="m 77.728516,37.986328 c -2.141276,0 -3.922445,0.543174 -4.78711,2.242188 L 58.970703,67.605469 a 3.5945918,3.5945918 0 0 0 -0.28125,1.158203 c 0.01104,0.04971 0.03055,0.134025 0.0332,0.146484 0.03895,0.23355 0.07602,0.465765 0.125,0.697266 0.02854,0.183488 0.06235,0.362826 0.103516,0.542969 0.06877,0.101359 0.06449,0.276018 0.154297,0.361328 0.136941,0.247409 0.29867,0.477956 0.443359,0.720703 0.07562,0.177539 0.203306,0.293236 0.332031,0.427734 0.124862,0.104884 0.266749,0.19248 0.400391,0.28711 0.234823,0.15019 0.457565,0.317764 0.669922,0.498046 0.02847,0.02054 0.05469,0.04429 0.08203,0.06641 0.05431,0.01423 0.108582,0.0291 0.162109,0.04687 0.09657,0.02588 0.19247,0.0537 0.28711,0.08594 0.07294,0.02406 0.146726,0.03655 0.222656,0.04883 0.07381,0.01384 0.14981,0.01236 0.22461,0.01172 0.214092,-0.0018 0.365232,0.05909 0.453124,0.146484 a 4.4007089,4.4007089 0 0 0 4.210938,-2.134765 l 6.753906,-13.240235 v 14.275391 c 0,0.02092 -0.01172,0.03965 -0.01172,0.06055 v 32.32617 a 5.0594036,5.0594036 0 0 0 10.054687,0 V 77.333984 h 3.667969 v 26.804686 a 5.0583581,5.0583581 0 0 0 10.054687,0 V 71.8125 c 0,-0.01987 -0.01172,-0.0386 -0.01172,-0.06055 V 57.484375 l 6.753908,13.232422 a 4.2438767,4.2438767 0 0 0 3.8125,2.195312 4.5763609,4.5763609 0 0 0 1.73633,-0.339843 3.5935463,3.5935463 0 0 0 2.07226,-4.964844 L 97.509766,40.228516 C 96.641962,38.530549 94.844342,37.986328 92.71875,37.986328 Z" />
  <path
     id="path20"
     style="fill:#000000"
     d="M 34.058594,56.960938 25.984375,84.558594 H 64.740234 L 62.497958,75.50096 c -3.544484,-0.118667 -7.514476,-4.065928 -5.210841,-10.335034 0.356963,-0.689839 1.253923,-2.570584 1.453125,-3.125 0.04691,-0.166069 0.0821,-0.335813 0.121094,-0.503907 l -1.167969,-4.576171 z m 25.395153,9.738895 c -1.509081,2.585231 -0.601274,3.810807 -0.164919,4.672341 1.208454,2.265234 4.491337,1.589952 5.478532,1.100643 z"
     sodipodi:nodetypes="ccccccccccccc" />
</svg>
