<?xml version="1.0" encoding="UTF-8" standalone="no"?>
<svg
   id="XMLID_12_"
   width="131.943"
   height="114.067"
   viewBox="0 0 131.943 114.067"
   version="1.1"
   sodipodi:docname="group_19fe00.svg"
   inkscape:version="1.3 (0e150ed6c4, 2023-07-21)"
   xmlns:inkscape="http://www.inkscape.org/namespaces/inkscape"
   xmlns:sodipodi="http://sodipodi.sourceforge.net/DTD/sodipodi-0.dtd"
   xmlns="http://www.w3.org/2000/svg"
   xmlns:svg="http://www.w3.org/2000/svg">
  <defs
     id="defs1" />
  <sodipodi:namedview
     id="namedview1"
     pagecolor="#505050"
     bordercolor="#ffffff"
     borderopacity="1"
     inkscape:showpageshadow="0"
     inkscape:pageopacity="0"
     inkscape:pagecheckerboard="1"
     inkscape:deskcolor="#505050"
     inkscape:zoom="3.405893"
     inkscape:cx="66.208774"
     inkscape:cy="76.778689"
     inkscape:window-width="1920"
     inkscape:window-height="991"
     inkscape:window-x="-9"
     inkscape:window-y="-9"
     inkscape:window-maximized="1"
     inkscape:current-layer="XMLID_12_" />
  <path
     id="XMLID_29_"
     d="m 42.843948,26.079679 c 6.169429,0 11.171732,-4.471793 11.171732,-9.98911 0,-5.517315 -5.007072,-9.9926847 -11.171732,-9.9926847 -6.164659,0 -11.172924,4.4706007 -11.172924,9.9926847 0,5.522086 5.002304,9.98911 11.172924,9.98911 z"
     style="stroke-width:1.19216" />
  <path
     id="XMLID_28_"
     d="m 87.727581,7.0528053 c -6.171812,0 -11.174116,4.4705987 -11.174116,9.9926847 0,5.522086 5.007072,9.990301 11.174116,9.990301 6.167044,0 11.171731,-4.471792 11.171731,-9.990301 0,-5.518509 -5.003494,-9.9926847 -11.171731,-9.9926847 z"
     style="stroke-width:1.19216" />
  <path
     id="XMLID_17_-2"
     d="m 54.111703,63.334908 2.155694,-4.223618 v -6.920341 l 1.766153,3.460169 5.290043,-10.376902 -6.59452,-12.924543 c -0.994288,-1.95491 -3.065822,-2.577692 -5.507658,-2.577692 H 33.990296 c -2.44905,0 -4.510965,0.615567 -5.505253,2.577692 L 12.42014,63.833857 a 4.1334485,4.1334485 0 0 0 2.382925,5.708439 5.0604087,5.0604087 0 0 0 6.381718,-2.131649 L 28.949124,52.18614 c 0,11.497431 -0.01563,11.036957 -0.01563,53.65549 a 5.8178467,5.8178467 0 0 0 11.562353,0 V 75.015088 h 4.218811 v 30.826542 a 5.8166445,5.8166445 0 0 0 11.562354,0 V 72.406134 a 7.790793,7.790793 0 0 1 -2.404566,-3.087463 7.1920562,7.1920562 0 0 1 0.239253,-5.983763 z"
     style="stroke-width:1.20229" />
  <path
     id="XMLID_13_-3"
     style="stroke-width:1.20229"
     d="m 79.249185,30.734932 c -2.462268,0 -4.510449,0.6246 -5.504734,2.578309 L 57.679434,64.794208 a 4.1334485,4.1334485 0 0 0 -0.323412,1.331826 c 0.01269,0.05716 0.03513,0.154116 0.03818,0.168443 0.04479,0.268561 0.08742,0.535587 0.143739,0.801791 0.03282,0.210995 0.0717,0.417217 0.119033,0.624365 0.07908,0.116553 0.07416,0.317395 0.177428,0.415493 0.15747,0.284499 0.343442,0.549606 0.509822,0.828742 0.08696,0.204154 0.233782,0.337195 0.381805,0.491855 0.143579,0.120607 0.306736,0.221334 0.460412,0.33015 0.270025,0.172705 0.526158,0.3654 0.770349,0.572707 0.03274,0.02362 0.06289,0.05092 0.09433,0.07636 0.06245,0.01637 0.124859,0.03346 0.18641,0.0539 0.111047,0.02976 0.221323,0.06175 0.33015,0.09882 0.08387,0.02767 0.168721,0.04202 0.256034,0.05615 0.08488,0.01591 0.172268,0.01422 0.258281,0.01348 0.246186,-0.0021 0.419983,0.06795 0.52105,0.168444 a 5.0604087,5.0604087 0 0 0 4.84219,-2.454783 l 7.766368,-15.225047 v 16.415381 c 0,0.02405 -0.01348,0.0456 -0.01348,0.06963 v 37.172115 a 5.8178467,5.8178467 0 0 0 11.561961,0 V 75.981101 h 4.217825 v 30.822919 a 5.8166445,5.8166445 0 0 0 11.561971,0 V 69.631904 c 0,-0.02284 -0.0135,-0.04439 -0.0135,-0.06962 v -16.4064 l 7.76638,15.216063 a 4.8800661,4.8800661 0 0 0 4.38401,2.524407 5.2623922,5.2623922 0 0 0 1.99662,-0.390789 4.1322462,4.1322462 0 0 0 2.38291,-5.709112 L 101.9958,33.313241 c -0.9979,-1.952505 -3.064998,-2.578309 -5.509233,-2.578309 z" />
  <path
     id="path20"
     style="fill:#000000;stroke-width:1.14991"
     d="M 29.03281,52.553981 19.748204,84.288736 H 64.313861 L 61.524437,73.366859 c -0.136385,-0.01323 -0.279314,-0.03681 -0.431215,-0.07411 -0.250585,-0.06155 -0.504311,-0.119548 -0.761364,-0.145984 -0.06336,-0.01046 -0.125845,-0.02571 -0.188658,-0.03818 -0.114266,0.0093 -0.251914,-0.01516 -0.408756,-0.08984 -0.02088,-0.0099 -0.04189,-0.01941 -0.06289,-0.0292 -0.05277,-0.01572 -0.103814,-0.03328 -0.154969,-0.05389 -0.06121,-0.01817 -0.119691,-0.0425 -0.177427,-0.06963 -0.05289,-0.02309 -0.106988,-0.04782 -0.159459,-0.07187 -0.0015,-7.18e-4 -0.003,-0.0015 -0.0044,-0.0023 -0.03286,-0.0096 -0.06478,-0.02155 -0.09657,-0.03593 -0.02825,-0.01263 -0.0544,-0.02666 -0.08085,-0.04267 -0.05799,-0.01304 -0.116124,-0.02561 -0.172935,-0.04267 -0.166977,-0.05586 -0.293911,-0.131061 -0.431215,-0.240313 -0.03518,-0.03406 -0.06985,-0.06923 -0.105562,-0.103308 -0.0015,-7.45e-4 -0.003,-0.0015 -0.0044,-0.0023 -0.05712,-0.02905 -0.112909,-0.06259 -0.168444,-0.09433 -0.05362,-0.03054 -0.100023,-0.07194 -0.148229,-0.110046 -0.0401,-0.03369 -0.08038,-0.06612 -0.12128,-0.09882 -0.03522,-0.03404 -0.0737,-0.06048 -0.1123,-0.08984 -0.06565,-0.05152 -0.120829,-0.116575 -0.177427,-0.177427 -0.04372,-0.0502 -0.08777,-0.09896 -0.132509,-0.148231 -0.05396,-0.06266 -0.102905,-0.127814 -0.150476,-0.195394 -0.04407,-0.05678 -0.08737,-0.114461 -0.125772,-0.175182 -0.05038,-0.04236 -0.102928,-0.08208 -0.14823,-0.130262 -0.269586,-0.284276 -0.532037,-0.573581 -0.709708,-0.927563 -0.179642,-0.310314 -0.395791,-0.597387 -0.561478,-0.916332 -0.162897,-0.323643 -0.304534,-0.659468 -0.397528,-1.010661 -0.04973,-0.219054 -0.09623,-0.437909 -0.128017,-0.660299 -0.05622,-0.266391 -0.103526,-0.532557 -0.143738,-0.80179 -0.08808,-0.422242 -0.233642,-0.835886 -0.240312,-1.271187 0.01081,-0.320252 0.02421,-0.642296 0.07636,-0.959005 0.06475,-0.361885 0.156411,-0.717315 0.303198,-1.055579 0.103458,-0.250453 0.193823,-0.505622 0.305444,-0.752382 0.0429,-0.08603 0.0028,0.0022 0.05389,-0.206624 0.04626,-0.189404 0.107976,-0.376175 0.18641,-0.55474 0.113105,-0.316254 0.256007,-0.616666 0.415495,-0.911841 0.149085,-0.327181 0.305147,-0.651765 0.453674,-0.979218 0.154112,-0.311801 0.313646,-0.618895 0.460412,-0.934301 0.125369,-0.249681 0.246867,-0.50506 0.341378,-0.768101 0.05394,-0.190964 0.09441,-0.386154 0.139248,-0.579446 l -1.343057,-5.262175 z m 29.726908,9.983084 c -0.0513,0.118113 -0.107275,0.233705 -0.161706,0.350362 -0.08117,0.156796 -0.156786,0.316651 -0.249296,0.46715 -0.07758,0.11902 -0.144689,0.24332 -0.220099,0.363838 -0.06852,0.11452 -0.141458,0.22673 -0.213362,0.339133 -0.05476,0.08269 -0.111737,0.163207 -0.157215,0.251542 -0.05294,0.102112 -0.121418,0.195231 -0.179672,0.294214 -0.06634,0.113589 -0.13714,0.224764 -0.202132,0.339134 -0.02752,0.04174 -0.04653,0.08827 -0.06963,0.132508 0.0032,0.02453 0.0061,0.04959 0.009,0.07411 0.01193,0.172801 0.0082,0.346138 -0.0044,0.518807 -0.0048,0.06298 -0.01312,0.126127 -0.02246,0.188657 v 0.0023 c 0.04712,0.197414 0.09721,0.396424 0.105561,0.435707 0.04479,0.268561 0.08742,0.535587 0.143739,0.801791 0.03281,0.210995 0.0717,0.417216 0.119034,0.624365 0.07908,0.116553 0.07416,0.317395 0.177427,0.415493 0.157469,0.284498 0.343443,0.549605 0.509821,0.828742 0.08696,0.204154 0.233794,0.337195 0.381805,0.491855 0.143581,0.120607 0.306737,0.221334 0.460414,0.33015 0.270025,0.172694 0.526157,0.365409 0.770348,0.572706 0.03273,0.02361 0.06285,0.05083 0.09432,0.07636 0.06245,0.01637 0.124867,0.0335 0.186411,0.0539 0.111046,0.02976 0.221323,0.06175 0.33015,0.09882 0.08388,0.02767 0.168721,0.04203 0.256034,0.05615 0.0022,4.05e-4 0.0046,-3.8e-4 0.0068,0 z" />
</svg>
