<?xml version="1.0" encoding="UTF-8" standalone="no"?>
<svg
   id="XMLID_12_"
   width="131.943"
   height="114.067"
   viewBox="0 0 131.943 114.067"
   version="1.1"
   sodipodi:docname="group_f10b1b.svg"
   inkscape:version="1.3 (0e150ed6c4, 2023-07-21)"
   xmlns:inkscape="http://www.inkscape.org/namespaces/inkscape"
   xmlns:sodipodi="http://sodipodi.sourceforge.net/DTD/sodipodi-0.dtd"
   xmlns="http://www.w3.org/2000/svg"
   xmlns:svg="http://www.w3.org/2000/svg">
  <defs
     id="defs1" />
  <sodipodi:namedview
     id="namedview1"
     pagecolor="#505050"
     bordercolor="#ffffff"
     borderopacity="1"
     inkscape:showpageshadow="0"
     inkscape:pageopacity="0"
     inkscape:pagecheckerboard="1"
     inkscape:deskcolor="#505050"
     inkscape:zoom="4"
     inkscape:cx="132.625"
     inkscape:cy="72.625"
     inkscape:window-width="1920"
     inkscape:window-height="991"
     inkscape:window-x="-9"
     inkscape:window-y="-9"
     inkscape:window-maximized="1"
     inkscape:current-layer="XMLID_12_" />
  <path
     id="XMLID_29_"
     d="m 43.238,38.501434 c 5.175,0 9.371,-3.751 9.371,-8.379 0,-4.628 -4.2,-8.382 -9.371,-8.382 -5.171,0 -9.372,3.75 -9.372,8.382 0,4.632 4.196,8.379 9.372,8.379 z" />
  <path
     id="XMLID_28_"
     d="m 80.887,22.541434 c -5.177,0 -9.373,3.75 -9.373,8.382 0,4.632 4.2,8.38 9.373,8.38 5.173,0 9.371,-3.751 9.371,-8.38 0,-4.629 -4.197,-8.382 -9.371,-8.382 z" />
  <path
     id="XMLID_23_"
     d="m 61.656,26.952434 c -2.069,0 -3.762,0.527 -4.581,2.144 l -1.391,2.728 a 10.684,10.684 0 0 1 -2.831,5.543 l -0.049,0.1 a 7.2,7.2 0 0 1 4.658,2.9 6.308,6.308 0 0 1 0.5,0.687 l 4.309,8.442 3.9,-7.643 a 7.1,7.1 0 0 1 5.187,-3.586 10.552,10.552 0 0 1 -3.107,-7.339 10.168,10.168 0 0 1 0.847,-3.97 z" />
  <path
     id="XMLID_21_"
     d="m 68.822,25.337434 a 10.575,10.575 0 0 0 1.21,-0.108 12.52,12.52 0 0 1 7.477,-5.148 7.567,7.567 0 0 0 0.689,-3.124 c 0,-4.632 -4.2,-8.3820003 -9.372,-8.3820003 -5.172,0 -9.371,3.7490003 -9.371,8.3820003 0,4.633 4.192,8.38 9.367,8.38 z" />
  <path
     id="XMLID_20_"
     d="m 14.959,72.208434 a 5.828,5.828 0 0 1 0.2,-4.976 l 5.083,-9.962 8.279,-16.223 a 7.06,7.06 0 0 1 4.811,-3.538 v -0.454 a 10.519,10.519 0 0 1 -2.643,-6.169 c -0.174,-0.049 -1.108,-0.207 -1.151,-0.207 H 16.565 c -1.842,0 -3.392,0.464 -4.145,1.938 l -12.09,23.7 a 3.11,3.11 0 0 0 1.793,4.3 3.809,3.809 0 0 0 4.8,-1.6 l 5.847,-11.458 c 0,0.934 -0.013,15.108 -0.013,40.382 a 4.141,4.141 0 0 0 4.354,3.879 4.141,4.141 0 0 0 4.351,-3.892 v -11.53 a 7.59,7.59 0 0 1 -2.713,-0.55 6.8,6.8 0 0 1 -3.79,-3.64 z" />
  <path
     id="XMLID_18_"
     d="m 23.052,29.214434 c 4.683,0 8.479,-3.394 8.479,-7.582 0,-4.188 -3.796,-7.579 -8.479,-7.579 -4.683,0 -8.482,3.392 -8.482,7.583 0,4.191 3.796,7.578 8.482,7.578 z" />
  <path
     id="XMLID_17_"
     d="m 52.805,68.032434 1.793,-3.513 v -5.756 l 1.469,2.878 4.4,-8.631 -5.485,-10.75 c -0.827,-1.626 -2.55,-2.144 -4.581,-2.144 H 36.069 c -2.037,0 -3.752,0.512 -4.579,2.144 l -13.362,26.187 a 3.438,3.438 0 0 0 1.982,4.748 4.209,4.209 0 0 0 5.308,-1.773 l 6.458,-12.663 c 0,9.563 -0.013,9.18 -0.013,44.627996 a 4.839,4.839 0 0 0 9.617,0 V 77.747434 h 3.509 v 25.639996 a 4.838,4.838 0 0 0 9.617,0 V 75.577434 a 6.48,6.48 0 0 1 -2,-2.568 5.982,5.982 0 0 1 0.199,-4.977 z" />
  <path
     id="XMLID_16_"
     d="m 131.581,56.082434 -13.363,-26.185 c -0.836,-1.638 -2.565,-2.144 -4.579,-2.144 H 99.304 c -2.05,0 -3.754,0.516 -4.581,2.144 l -1.391,2.728 a 10.682,10.682 0 0 1 -2.831,5.543 l -0.049,0.1 a 7.381,7.381 0 0 1 5.153,3.584 l 13.36,26.183 a 5.831,5.831 0 0 1 0.2,4.976 6.3,6.3 0 0 1 -0.94,1.518 v 16.5 a 4.839,4.839 0 0 0 9.617,0 c 0,-23.7 -0.013,-36.964 -0.013,-44.628 l 6.461,12.662 a 4.209,4.209 0 0 0 5.308,1.773 3.438,3.438 0 0 0 1.983,-4.754 z" />
  <path
     id="XMLID_15_"
     d="m 95.732,73.433434 -0.211,-0.413 v 0.249 19.495 a 4.844,4.844 0 0 0 4.381,2.561 4.576,4.576 0 0 0 4.808,-4.3 v -14.182 c -3.411,1.039 -7.457,-0.435 -8.978,-3.41 z" />
  <path
     id="XMLID_14_"
     d="m 106.469,26.138434 c 5.177,0 9.373,-3.751 9.373,-8.38 0,-4.629 -4.2,-8.3820003 -9.373,-8.3820003 -5.173,0 -9.371,3.7490003 -9.371,8.3820003 0,4.633 4.197,8.38 9.371,8.38 z" />
  <path
     id="XMLID_13_"
     d="m 92.632,43.061434 c -0.83,-1.624 -2.548,-2.144 -4.581,-2.144 H 73.714 c -2.048,0 -3.752,0.519 -4.579,2.144 l -13.362,26.185 a 3.438,3.438 0 0 0 1.982,4.748 4.209,4.209 0 0 0 5.308,-1.773 l 6.461,-12.662 v 13.653 c 0,0.02 -0.013,0.037 -0.013,0.057 v 30.917996 a 4.839,4.839 0 0 0 9.617,0 V 78.550434 h 3.509 v 25.636996 a 4.838,4.838 0 0 0 9.617,0 V 73.269434 c 0,-0.019 -0.012,-0.036 -0.012,-0.057 v -13.647 l 6.459,12.656 a 4.059,4.059 0 0 0 3.647,2.1 4.377,4.377 0 0 0 1.661,-0.325 3.437,3.437 0 0 0 1.982,-4.748 z" />
  <path
     id="path20"
     style="fill:#000000;stroke-width:0.943847"
     d="m 31.871841,58.750535 -7.88217,25.184551 H 61.82371 l -1.793564,-6.700909 c -1.755754,0.09718 -3.061265,-0.563622 -4.728061,-1.454301 -3.740159,-2.393146 -2.373346,-7.215967 -0.528691,-11.023376 0.841275,-1.919315 0.853568,-1.963731 0.891617,-2.117127 l -0.720339,-3.888774 z m 25.236673,7.922528 c -0.04358,0.09373 -0.09111,0.185469 -0.137279,0.278047 -0.06895,0.124433 -0.133105,0.251291 -0.211636,0.370727 -0.06582,0.09445 -0.122836,0.193097 -0.186861,0.288741 -0.05819,0.09088 -0.120086,0.179931 -0.181131,0.269133 -0.04652,0.06562 -0.09486,0.12952 -0.133464,0.199625 -0.04496,0.08103 -0.103079,0.154932 -0.15254,0.233485 -0.05635,0.09014 -0.116419,0.178372 -0.171599,0.269135 -0.02335,0.03313 -0.03953,0.07005 -0.05911,0.105158 0.0028,0.01946 0.0055,0.03936 0.0074,0.05881 0.01011,0.137133 0.0064,0.274692 -0.0036,0.411721 -0.0046,0.04997 -0.01112,0.100094 -0.01903,0.149718 v 0.0018 c 0.04,0.156667 0.08255,0.3146 0.08964,0.345775 0.03806,0.213129 0.07419,0.42504 0.122026,0.636297 0.02785,0.167444 0.06086,0.331102 0.101056,0.495493 0.06711,0.09249 0.06298,0.251883 0.150628,0.329735 0.133684,0.225774 0.291566,0.436162 0.432816,0.657685 0.07382,0.162015 0.198481,0.267596 0.32413,0.390332 0.121898,0.09571 0.260409,0.175652 0.390866,0.262006 0.229243,0.137049 0.44669,0.289987 0.653987,0.454499 0.02776,0.01873 0.05333,0.04033 0.08008,0.06061 0.05305,0.013 0.106012,0.02658 0.158258,0.04278 0.09428,0.02362 0.18789,0.04901 0.280277,0.07842 0.07116,0.02195 0.143236,0.03335 0.217364,0.04457 0.0019,3.23e-4 0.0036,-3.01e-4 0.0055,0 z"
     sodipodi:nodetypes="cccccccccccccccccccccccccccccccccccc" />
  <path
     id="path1"
     style="fill:#000000;stroke-width:0.980788"
     d="m 117.67786,45.985876 -7.06327,23.55814 c 0.0423,0.133483 0.33241,1.160466 -0.32829,2.367288 -0.0413,0.07539 -0.085,0.139472 -0.13086,0.195395 0.0269,0.255625 -0.16475,0.447773 -0.24609,0.668853 -0.69743,1.192301 1.57195,0.620941 -0.66989,1.20431 -0.84385,0.219586 -1.82126,1.488707 -3.74609,2.218864 h 19.08398 z"
     sodipodi:nodetypes="ccsccsccc" />
</svg>
