<?xml version="1.0" encoding="UTF-8" standalone="no"?>
<svg
   id="XMLID_12_"
   width="131.943"
   height="114.067"
   viewBox="0 0 131.943 114.067"
   version="1.1"
   sodipodi:docname="group_ffce00.svg"
   inkscape:version="1.3 (0e150ed6c4, 2023-07-21)"
   xmlns:inkscape="http://www.inkscape.org/namespaces/inkscape"
   xmlns:sodipodi="http://sodipodi.sourceforge.net/DTD/sodipodi-0.dtd"
   xmlns="http://www.w3.org/2000/svg"
   xmlns:svg="http://www.w3.org/2000/svg">
  <defs
     id="defs1" />
  <sodipodi:namedview
     id="namedview1"
     pagecolor="#505050"
     bordercolor="#ffffff"
     borderopacity="1"
     inkscape:showpageshadow="0"
     inkscape:pageopacity="0"
     inkscape:pagecheckerboard="1"
     inkscape:deskcolor="#505050"
     inkscape:zoom="6.811786"
     inkscape:cx="64.960937"
     inkscape:cy="56.299479"
     inkscape:window-width="1920"
     inkscape:window-height="991"
     inkscape:window-x="-9"
     inkscape:window-y="-9"
     inkscape:window-maximized="1"
     inkscape:current-layer="XMLID_12_" />
  <path
     id="XMLID_29_"
     d="m 45.865328,35.460352 c 5.410707,0 9.797823,-3.921848 9.797823,-8.760642 0,-4.838793 -4.391298,-8.763777 -9.797823,-8.763777 -5.406525,0 -9.79887,3.920802 -9.79887,8.763777 0,4.842977 4.387116,8.760642 9.79887,8.760642 z"
     style="stroke-width:1.04555" />
  <path
     id="XMLID_28_"
     d="m 85.22914,18.773416 c -5.412799,0 -9.799915,3.920802 -9.799915,8.763779 0,4.842974 4.391299,8.761687 9.799915,8.761687 5.408617,0 9.797825,-3.921849 9.797825,-8.761687 0,-4.83984 -4.388163,-8.763779 -9.797825,-8.763779 z"
     style="stroke-width:1.04555" />
  <path
     id="XMLID_23_"
     d="m 65.122219,23.385325 c -2.163237,0 -3.93335,0.551004 -4.789653,2.241654 l -1.454357,2.852253 a 11.170628,11.170628 0 0 1 -2.959944,5.795469 l -0.05123,0.104556 a 7.527941,7.527941 0 0 1 4.870159,3.032087 6.5953129,6.5953129 0 0 1 0.522773,0.718291 l 4.505264,8.82651 4.077635,-7.991119 a 7.4233863,7.4233863 0 0 1 5.423255,-3.749332 11.032616,11.032616 0 0 1 -3.248517,-7.673272 10.631126,10.631126 0 0 1 0.885579,-4.150824 z"
     style="stroke-width:1.04555" />
  <path
     id="XMLID_22_"
     d="m 66.758499,74.902582 a 8.6341302,8.6341302 0 0 1 -5.587404,0.885577 v 15.569247 a 5.2036892,5.2036892 0 0 0 8.752277,0.542639 v -16.95146 a 8.4992545,8.4992545 0 0 1 -3.164873,-0.046 z"
     style="stroke-width:1.04555" />
  <path
     id="XMLID_21_"
     d="m 72.614612,21.696766 a 11.056664,11.056664 0 0 0 1.265111,-0.112918 13.090253,13.090253 0 0 1 7.817558,-5.382478 7.9116568,7.9116568 0 0 0 0.720382,-3.26629 c 0,-4.8429748 -4.391299,-8.7637777 -9.79887,-8.7637777 -5.407571,0 -9.797824,3.9197567 -9.797824,8.7637777 0,4.844021 4.382934,8.761686 9.793643,8.761686 z"
     style="stroke-width:1.04555" />
  <path
     id="XMLID_17_"
     d="m 55.868079,66.336411 1.874667,-3.673007 v -6.018171 l 1.535909,3.009085 4.600407,-9.024119 -5.734826,-11.239635 C 57.279568,37.690505 55.47809,37.148912 53.354583,37.148912 H 38.369798 c -2.12978,0 -3.922893,0.535319 -4.787561,2.241652 l -13.970604,27.37975 a 3.5945918,3.5945918 0 0 0 2.072275,4.964259 4.4007089,4.4007089 0 0 0 5.549766,-1.853756 l 6.752144,-13.239766 c 0,9.998569 -0.01359,9.598125 -0.01359,46.660699 a 5.0594036,5.0594036 0 0 0 10.055029,0 V 76.493905 h 3.668826 v 26.807845 a 5.0583581,5.0583581 0 0 0 10.055028,0 V 74.225067 a 6.7751469,6.7751469 0 0 1 -2.091095,-2.684966 6.2544644,6.2544644 0 0 1 0.208063,-5.20369 z"
     style="stroke-width:1.04555" />
  <path
     id="XMLID_13_"
     d="M 97.509093,40.228049 C 96.641289,38.53008 94.845038,37.986395 92.719442,37.986395 H 77.729429 c -2.14128,0 -3.922894,0.542638 -4.787561,2.241654 L 58.971264,67.605706 a 3.5945918,3.5945918 0 0 0 2.072275,4.964259 4.4007089,4.4007089 0 0 0 5.549765,-1.853756 l 6.755281,-13.23872 v 14.274857 c 0,0.02092 -0.01359,0.03869 -0.01359,0.05959 v 32.326244 a 5.0594036,5.0594036 0 0 0 10.05503,0 V 77.333478 h 3.668825 v 26.804702 a 5.0583581,5.0583581 0 0 0 10.055028,0 V 71.811943 c 0,-0.01987 -0.01254,-0.03764 -0.01254,-0.05959 V 57.483762 l 6.753192,13.232447 a 4.2438767,4.2438767 0 0 0 3.81311,2.19565 4.5763609,4.5763609 0 0 0 1.73665,-0.339803 3.5935463,3.5935463 0 0 0 2.07228,-4.964259 z"
     style="stroke-width:1.04555" />
</svg>
