<?xml version="1.0" encoding="UTF-8" standalone="no"?>
<svg
   id="XMLID_12_"
   width="131.943"
   height="114.067"
   viewBox="0 0 131.943 114.067"
   version="1.1"
   sodipodi:docname="group_9e003f.svg"
   inkscape:version="1.3 (0e150ed6c4, 2023-07-21)"
   xmlns:inkscape="http://www.inkscape.org/namespaces/inkscape"
   xmlns:sodipodi="http://sodipodi.sourceforge.net/DTD/sodipodi-0.dtd"
   xmlns="http://www.w3.org/2000/svg"
   xmlns:svg="http://www.w3.org/2000/svg">
  <defs
     id="defs1" />
  <sodipodi:namedview
     id="namedview1"
     pagecolor="#505050"
     bordercolor="#ffffff"
     borderopacity="1"
     inkscape:showpageshadow="0"
     inkscape:pageopacity="0"
     inkscape:pagecheckerboard="1"
     inkscape:deskcolor="#505050"
     inkscape:zoom="6.811786"
     inkscape:cx="64.960937"
     inkscape:cy="56.299479"
     inkscape:window-width="1920"
     inkscape:window-height="991"
     inkscape:window-x="-9"
     inkscape:window-y="-9"
     inkscape:window-maximized="1"
     inkscape:current-layer="XMLID_12_" />
  <path
     id="XMLID_29_"
     d="M131.358,134.728c5.175,0,9.371-3.751,9.371-8.379s-4.2-8.382-9.371-8.382-9.372,3.75-9.372,8.382S126.182,134.728,131.358,134.728Z"
     transform="translate(-88.12 -90.648)" />
  <path
     id="XMLID_28_"
     d="M266.967,121.193c-5.177,0-9.373,3.75-9.373,8.382s4.2,8.38,9.373,8.38,9.371-3.751,9.371-8.38S272.141,121.193,266.967,121.193Z"
     transform="translate(-186.08 -93.073)" />
  <path
     id="XMLID_27_"
     d="M133.5,81a12.584,12.584,0,0,1,11.9,7.638,7.421,7.421,0,0,1,4.156-2.159,10.552,10.552,0,0,1-3.107-7.339,10.334,10.334,0,0,1,1.886-5.863,4.88,4.88,0,0,0-2-.6H133.8c-1.772,0-3.278.445-4.007,1.876l-4.839,9.481A13.922,13.922,0,0,1,133.5,81Z"
     transform="translate(-90.265 -56.599)" />
  <path
     id="XMLID_26_"
     d="M158.067,22.611c4.523,0,8.194-3.282,8.194-7.327s-3.671-7.332-8.194-7.332-8.2,3.28-8.2,7.332S153.541,22.611,158.067,22.611Z"
     transform="translate(-108.263 -7.952)" />
  <path
     id="XMLID_25_"
     d="M307.867,108.531a10.554,10.554,0,0,1-3.107-7.339c0-.084.026-.161.028-.245H293.452c-.041,0-.97.156-1.151.207a9.942,9.942,0,0,1-.311,1.914,12.56,12.56,0,0,1,11.721,7.622A7.42,7.42,0,0,1,307.867,108.531Z"
     transform="translate(-210.927 -77.854)" />
  <path
     id="XMLID_24_"
     d="M298.548,49.149a9,9,0,0,0,5.538-1.881,11.088,11.088,0,0,1,2.765-4.153,6.92,6.92,0,0,0,.179-1.549c0-4.191-3.8-7.582-8.482-7.582s-8.479,3.392-8.479,7.582S293.865,49.149,298.548,49.149Z"
     transform="translate(-209.54 -27.52)" />
  <path
     id="XMLID_23_"
     d="M199.054,138.957c-2.069,0-3.762.527-4.581,2.144l-1.391,2.728a10.684,10.684,0,0,1-2.831,5.543l-.049.1a7.2,7.2,0,0,1,4.658,2.9,6.308,6.308,0,0,1,.5.687l4.309,8.442,3.9-7.643a7.1,7.1,0,0,1,5.187-3.586,10.552,10.552,0,0,1-3.107-7.339,10.168,10.168,0,0,1,.847-3.97Z"
     transform="translate(-137.398 -106.426)" />
  <path
     id="XMLID_22_"
     d="M213.819,337.385a8.258,8.258,0,0,1-5.344.847v14.891a4.977,4.977,0,0,0,8.371.519V337.429A8.129,8.129,0,0,1,213.819,337.385Z"
     transform="translate(-150.598 -255.581)" />
  <path
     id="XMLID_21_"
     d="M223.513,81.716a10.575,10.575,0,0,0,1.21-.108A12.52,12.52,0,0,1,232.2,76.46a7.567,7.567,0,0,0,.689-3.124c0-4.632-4.2-8.382-9.372-8.382s-9.371,3.749-9.371,8.382S218.338,81.716,223.513,81.716Z"
     transform="translate(-154.691 -50.8)" />
  <path
     id="XMLID_20_"
     d="M14.958,195.488a5.828,5.828,0,0,1,.2-4.976l5.083-9.962,8.279-16.223a7.06,7.06,0,0,1,4.811-3.538v-.454a10.519,10.519,0,0,1-2.643-6.169c-.174-.049-1.108-.207-1.151-.207H16.564c-1.842,0-3.392.464-4.145,1.938l-12.09,23.7a3.11,3.11,0,0,0,1.793,4.3,3.809,3.809,0,0,0,4.8-1.6l5.847-11.458c0,.934-.013,15.108-.013,40.382A4.141,4.141,0,0,0,17.11,215.1a4.141,4.141,0,0,0,4.351-3.892v-11.53a7.59,7.59,0,0,1-2.713-.55A6.8,6.8,0,0,1,14.958,195.488Z"
     transform="translate(0.001 -117.701)" />
  <path
     id="XMLID_19_"
     d="M88.745,324.872v12.1a4.063,4.063,0,0,0,3.962,3.822V321.267l-.211.411A6.908,6.908,0,0,1,88.745,324.872Z"
     transform="translate(-64.107 -243.465)" />
  <path
     id="XMLID_18_"
     d="M60.962,102.161c4.683,0,8.479-3.394,8.479-7.582S65.645,87,60.962,87s-8.482,3.392-8.482,7.583S56.276,102.161,60.962,102.161Z"
     transform="translate(-37.91 -67.368)" />
  <path
     id="XMLID_17_"
     d="M99.029,219.885l1.793-3.513v-5.756l1.469,2.878,4.4-8.631-5.485-10.75c-.827-1.626-2.55-2.144-4.581-2.144H82.293c-2.037,0-3.752.512-4.579,2.144L64.352,220.3a3.438,3.438,0,0,0,1.982,4.748,4.209,4.209,0,0,0,5.308-1.773L78.1,210.612c0,9.563-.013,9.18-.013,44.628a4.839,4.839,0,0,0,9.617,0V229.6h3.509V255.24a4.838,4.838,0,0,0,9.617,0V227.43a6.48,6.48,0,0,1-2-2.568A5.982,5.982,0,0,1,99.029,219.885Z"
     transform="translate(-46.224 -146.274)" />
  <path
     id="XMLID_16_"
     d="M366.941,170.512l-13.363-26.185c-.836-1.638-2.565-2.144-4.579-2.144H334.664c-2.05,0-3.754.516-4.581,2.144l-1.391,2.728a10.682,10.682,0,0,1-2.831,5.543l-.049.1a7.381,7.381,0,0,1,5.153,3.584l13.36,26.183a5.831,5.831,0,0,1,.2,4.976,6.3,6.3,0,0,1-.94,1.518v16.5a4.839,4.839,0,0,0,9.617,0c0-23.7-.013-36.964-.013-44.628l6.461,12.662a4.209,4.209,0,0,0,5.308,1.773A3.438,3.438,0,0,0,366.941,170.512Z"
     transform="translate(-235.36 -108.851)" />
  <path
     id="XMLID_15_"
     d="M344.279,324.89l-.211-.413,0,.249v19.495a4.844,4.844,0,0,0,4.381,2.561,4.576,4.576,0,0,0,4.808-4.3V328.3C349.846,329.339,345.8,327.865,344.279,324.89Z"
     transform="translate(-248.547 -245.878)" />
  <path
     id="XMLID_14_"
     d="M359.122,84.942c5.177,0,9.373-3.751,9.373-8.38s-4.2-8.382-9.373-8.382-9.371,3.749-9.371,8.382S353.948,84.942,359.122,84.942Z"
     transform="translate(-252.653 -53.225)" />
  <path
     id="XMLID_13_"
     d="M236.818,197.339c-.83-1.624-2.548-2.144-4.581-2.144H217.9c-2.048,0-3.752.519-4.579,2.144l-13.362,26.185a3.438,3.438,0,0,0,1.982,4.748,4.209,4.209,0,0,0,5.308-1.773l6.461-12.662v13.653c0,.02-.013.037-.013.057v30.918a4.839,4.839,0,0,0,9.617,0V232.828h3.509v25.637a4.838,4.838,0,0,0,9.617,0V227.547c0-.019-.012-.036-.012-.057V213.843l6.459,12.656a4.059,4.059,0,0,0,3.647,2.1,4.377,4.377,0,0,0,1.661-.325,3.437,3.437,0,0,0,1.982-4.748Z"
     transform="translate(-144.186 -148.699)" />
</svg>
