<?xml version="1.0" encoding="UTF-8" standalone="no"?>
<svg
   id="XMLID_12_"
   width="131.943"
   height="114.067"
   viewBox="0 0 131.943 114.067"
   version="1.1"
   sodipodi:docname="group_f1760b.svg"
   inkscape:version="1.3 (0e150ed6c4, 2023-07-21)"
   xmlns:inkscape="http://www.inkscape.org/namespaces/inkscape"
   xmlns:sodipodi="http://sodipodi.sourceforge.net/DTD/sodipodi-0.dtd"
   xmlns="http://www.w3.org/2000/svg"
   xmlns:svg="http://www.w3.org/2000/svg">
  <defs
     id="defs1" />
  <sodipodi:namedview
     id="namedview1"
     pagecolor="#505050"
     bordercolor="#ffffff"
     borderopacity="1"
     inkscape:showpageshadow="0"
     inkscape:pageopacity="0"
     inkscape:pagecheckerboard="1"
     inkscape:deskcolor="#505050"
     inkscape:zoom="6.811786"
     inkscape:cx="64.960937"
     inkscape:cy="56.299479"
     inkscape:window-width="1920"
     inkscape:window-height="991"
     inkscape:window-x="-9"
     inkscape:window-y="-9"
     inkscape:window-maximized="1"
     inkscape:current-layer="XMLID_12_" />
  <path
     id="XMLID_29_"
     d="m 32.949322,36.663862 c 5.441122,0 9.852899,-3.943893 9.852899,-8.809886 0,-4.865992 -4.415983,-8.813039 -9.852899,-8.813039 -5.436916,0 -9.85395,3.942841 -9.85395,8.813039 0,4.870198 4.411777,8.809886 9.85395,8.809886 z"
     style="stroke-width:1.05142" />
  <path
     id="XMLID_28_"
     d="m 72.534401,19.883128 c -5.443224,0 -9.855001,3.942841 -9.855001,8.813039 0,4.870198 4.415983,8.810937 9.855001,8.810937 5.439019,0 9.852899,-3.943893 9.852899,-8.810937 0,-4.867043 -4.412829,-8.813039 -9.852899,-8.813039 z"
     style="stroke-width:1.05142" />
  <path
     id="XMLID_23_"
     d="m 52.314458,24.520961 c -2.175397,0 -3.955459,0.554101 -4.816576,2.254254 l -1.462531,2.868286 a 11.233419,11.233419 0 0 1 -2.976583,5.828045 l -0.05152,0.105143 a 7.570256,7.570256 0 0 1 4.897536,3.049131 6.6323854,6.6323854 0 0 1 0.525712,0.722328 l 4.530588,8.876126 4.100555,-8.036037 a 7.4651136,7.4651136 0 0 1 5.453739,-3.770409 11.094631,11.094631 0 0 1 -3.266776,-7.716404 10.690884,10.690884 0 0 1 0.890556,-4.174155 z"
     style="stroke-width:1.05142" />
  <path
     id="XMLID_22_"
     d="m 53.959937,76.327798 a 8.6826631,8.6826631 0 0 1 -5.618812,0.890556 v 15.656762 a 5.2329395,5.2329395 0 0 0 8.801474,0.545689 V 76.37406 A 8.5470293,8.5470293 0 0 1 53.959937,76.3278 Z"
     style="stroke-width:1.05142" />
  <path
     id="XMLID_21_"
     d="m 59.848965,22.82291 a 11.118814,11.118814 0 0 0 1.272224,-0.113553 13.163834,13.163834 0 0 1 7.8615,-5.412734 7.9561288,7.9561288 0 0 0 0.724432,-3.284649 c 0,-4.8701998 -4.415983,-8.813041 -9.85395,-8.813041 -5.437967,0 -9.852899,3.9417902 -9.852899,8.813041 0,4.871249 4.407572,8.810936 9.848693,8.810936 z"
     style="stroke-width:1.05142" />
  <path
     id="XMLID_17_"
     d="m 43.0083,67.713477 1.885204,-3.693654 v -6.051999 l 1.544542,3.026 4.626268,-9.074845 -5.767063,-11.302813 C 44.427723,38.90655 42.616119,38.361912 40.480676,38.361912 H 25.41166 c -2.141751,0 -3.944944,0.53833 -4.814472,2.254254 L 6.5480542,68.149818 a 3.6147972,3.6147972 0 0 0 2.083924,4.992164 4.4254455,4.4254455 0 0 0 5.5809608,-1.864176 l 6.790099,-13.314188 c 0,10.054772 -0.01367,9.652077 -0.01367,46.922972 a 5.0878429,5.0878429 0 0 0 10.111549,0 V 77.928066 h 3.689448 v 26.958524 a 5.0867915,5.0867915 0 0 0 10.111549,0 V 75.646475 a 6.8132304,6.8132304 0 0 1 -2.102849,-2.700058 6.289621,6.289621 0 0 1 0.209235,-5.23294 z"
     style="stroke-width:1.05142" />
  <path
     id="XMLID_16_"
     d="M 125.83531,55.148955 111.78512,27.617406 c -0.87899,-1.722233 -2.6969,-2.254254 -4.81447,-2.254254 H 91.898484 c -2.15542,0 -3.947046,0.542535 -4.816574,2.254254 l -1.462532,2.868286 a 11.231316,11.231316 0 0 1 -2.976582,5.828045 l -0.05152,0.105143 a 7.7605638,7.7605638 0 0 1 5.41799,3.768305 l 14.047024,27.529446 a 6.130856,6.130856 0 0 1 0.21029,5.231888 6.623974,6.623974 0 0 1 -0.98834,1.596063 v 17.348503 a 5.0878429,5.0878429 0 0 0 10.11155,0 c 0,-24.918759 -0.0137,-38.864853 -0.0137,-46.92297 l 6.79325,13.313136 a 4.4254455,4.4254455 0 0 0 5.58096,1.864176 3.6147972,3.6147972 0 0 0 2.08498,-4.998472 z"
     style="stroke-width:1.05142" />
  <path
     id="XMLID_15_"
     d="m 88.142797,73.392221 -0.22185,-0.434239 v 0.261805 20.49752 a 5.0931,5.0931 0 0 0 4.606287,2.6927 4.8113183,4.8113183 0 0 0 5.05525,-4.521128 V 76.977578 c -3.58641,1.09243 -7.84047,-0.45737 -9.439687,-3.585357 z"
     style="stroke-width:1.05142" />
  <path
     id="XMLID_14_"
     d="m 99.431944,23.665101 c 5.443216,0 9.854996,-3.943893 9.854996,-8.810937 0,-4.8670434 -4.41598,-8.81304 -9.854996,-8.81304 -5.43902,0 -9.8529,3.9417906 -9.8529,8.81304 0,4.87125 4.41283,8.810937 9.8529,8.810937 z"
     style="stroke-width:1.05142" />
  <path
     id="XMLID_13_"
     d="M 84.883381,41.458357 C 84.010699,39.750844 82.204352,39.204103 80.066806,39.204103 H 64.992534 c -2.153318,0 -3.944945,0.54569 -4.814473,2.254254 L 46.128928,68.989906 a 3.6147972,3.6147972 0 0 0 2.083923,4.992164 4.4254455,4.4254455 0 0 0 5.580961,-1.864176 l 6.793253,-13.313136 v 14.355098 c 0,0.02103 -0.01367,0.0389 -0.01367,0.05993 v 32.507944 a 5.0878429,5.0878429 0 0 0 10.111549,0 V 78.772359 h 3.689448 v 26.955371 a 5.0867915,5.0867915 0 0 0 10.111549,0 V 73.219787 c 0,-0.01998 -0.01262,-0.03785 -0.01262,-0.05993 v -14.34879 l 6.791143,13.306828 a 4.2677318,4.2677318 0 0 0 3.83455,2.207991 4.6020848,4.6020848 0 0 0 1.74641,-0.341712 3.6137458,3.6137458 0 0 0 2.08393,-4.992164 z"
     style="stroke-width:1.05142" />
</svg>
