<svg id="drug-medical-coronavirus-covid19-hospital" xmlns="http://www.w3.org/2000/svg" width="22.4" height="24" viewBox="0 0 22.4 24">
  <path id="Path_4" data-name="Path 4" d="M25.448,10.244a12.4,12.4,0,0,0-2.232-3.536l-.416-.46V5.2h.4a.4.4,0,0,0,.4-.4V3.2A1.2,1.2,0,0,0,22.4,2h-4a1.2,1.2,0,0,0-1.2,1.2V4.8a.4.4,0,0,0,.4.4H18V6.248l-.416.46A12.386,12.386,0,0,0,14.4,15v2.2h-.8V12.8a2.754,2.754,0,0,0-.82-1.976A2.854,2.854,0,0,0,10.8,10a.4.4,0,0,1-.4-.4V9.2h.4a.4.4,0,0,0,.4-.4V7.2A1.2,1.2,0,0,0,10,6H7.6A1.2,1.2,0,0,0,6.4,7.2V8.8a.4.4,0,0,0,.4.4h.4v.412a.4.4,0,0,1-.372.4A2.859,2.859,0,0,0,4,12.8v8A1.2,1.2,0,0,0,5.2,22H6.8v2a2,2,0,0,0,2,2H21.6a2.007,2.007,0,0,0,1.96-1.6h.84a2,2,0,0,0,2-2V15a12.346,12.346,0,0,0-.952-4.76ZM18,3.2a.4.4,0,0,1,.4-.4h4a.4.4,0,0,1,.4.4V4.4H18Zm4,2V6H18.8V5.2ZM18.176,7.244l.4-.444h3.648l.4.444A11.677,11.677,0,0,1,24.464,10H16.336A11.677,11.677,0,0,1,18.176,7.244ZM7.2,7.2a.4.4,0,0,1,.4-.4H10a.4.4,0,0,1,.4.4V8.4H7.2ZM4.8,12.8a2.052,2.052,0,0,1,2.084-1.992A1.2,1.2,0,0,0,8,9.612V9.2H9.6v.408a1.2,1.2,0,0,0,1.156,1.2,2.08,2.08,0,0,1,1.46.584A1.981,1.981,0,0,1,12.8,12.8v4.4H11.2V13.6a.4.4,0,0,0-.4-.4h-6Zm2,8.4H5.2a.4.4,0,0,1-.4-.4V19.6h2Zm.04-2.4H4.8V14h5.6v3.2H8.8a2.007,2.007,0,0,0-1.96,1.6ZM22.8,24a1.2,1.2,0,0,1-1.2,1.2H8.8A1.2,1.2,0,0,1,7.6,24V19.2A1.2,1.2,0,0,1,8.8,18H21.6a1.2,1.2,0,0,1,1.2,1.2Zm2.8-1.6a1.2,1.2,0,0,1-1.2,1.2h-.8V19.2a1.97,1.97,0,0,0-.412-1.2H25.6Zm0-5.2H15.2V15a11.606,11.606,0,0,1,.788-4.2h8.824A11.6,11.6,0,0,1,25.6,15Z" transform="translate(-4 -2)" fill="#fff"/>
  <path id="Path_5" data-name="Path 5" d="M43.185,30.185h.93a.465.465,0,0,0,.465-.465V27.86a.465.465,0,0,0-.465-.465h-.93v-.93A.465.465,0,0,0,42.72,26H40.86a.465.465,0,0,0-.465.465v.93h-.93A.465.465,0,0,0,39,27.86v1.86a.465.465,0,0,0,.465.465h.93v.93a.465.465,0,0,0,.465.465h1.86a.465.465,0,0,0,.465-.465Zm-.465-.93a.465.465,0,0,0-.465.465v.93h-.93v-.93a.465.465,0,0,0-.465-.465h-.93v-.93h.93a.465.465,0,0,0,.465-.465v-.93h.93v.93a.465.465,0,0,0,.465.465h.93v.93Z" transform="translate(-25.621 -16.79)" fill="#fff"/>
  <path id="Path_6" data-name="Path 6" d="M26.4,44a1.4,1.4,0,1,0,1.4,1.4A1.4,1.4,0,0,0,26.4,44Zm0,1.86a.465.465,0,1,1,.465-.465A.465.465,0,0,1,26.4,45.86Z" transform="translate(-16.764 -27.503)" fill="#fff"/>
  <path id="Path_7" data-name="Path 7" d="M26.4,52a1.4,1.4,0,1,0,1.4,1.4A1.4,1.4,0,0,0,26.4,52Zm0,1.86a.465.465,0,1,1,.465-.465A.465.465,0,0,1,26.4,53.86Z" transform="translate(-16.764 -32.65)" fill="#fff"/>
  <path id="Path_8" data-name="Path 8" d="M34.4,44a1.4,1.4,0,1,0,1.4,1.4A1.4,1.4,0,0,0,34.4,44Zm0,1.86a.465.465,0,1,1,.465-.465A.465.465,0,0,1,34.4,45.86Z" transform="translate(-21.626 -27.503)" fill="#fff"/>
  <path id="Path_9" data-name="Path 9" d="M34.4,52a1.4,1.4,0,1,0,1.4,1.4A1.4,1.4,0,0,0,34.4,52Zm0,1.86a.465.465,0,1,1,.465-.465A.465.465,0,0,1,34.4,53.86Z" transform="translate(-21.626 -32.65)" fill="#fff"/>
  <path id="Path_10" data-name="Path 10" d="M18.4,44a1.4,1.4,0,1,0,1.4,1.4A1.4,1.4,0,0,0,18.4,44Zm0,1.86a.465.465,0,1,1,.465-.465A.465.465,0,0,1,18.4,45.86Z" transform="translate(-11.901 -27.503)" fill="#fff"/>
  <path id="Path_11" data-name="Path 11" d="M18.4,52a1.4,1.4,0,1,0,1.4,1.4A1.4,1.4,0,0,0,18.4,52Zm0,1.86a.465.465,0,1,1,.465-.465A.465.465,0,0,1,18.4,53.86Z" transform="translate(-11.901 -32.65)" fill="#fff"/>
  <path id="Path_12" data-name="Path 12" d="M42.4,44a1.4,1.4,0,1,0,1.4,1.4A1.4,1.4,0,0,0,42.4,44Zm0,1.86a.465.465,0,1,1,.465-.465A.465.465,0,0,1,42.4,45.86Z" transform="translate(-26.489 -27.503)" fill="#fff"/>
  <path id="Path_13" data-name="Path 13" d="M42.4,52a1.4,1.4,0,1,0,1.4,1.4A1.4,1.4,0,0,0,42.4,52Zm0,1.86a.465.465,0,1,1,.465-.465A.465.465,0,0,1,42.4,53.86Z" transform="translate(-26.489 -32.65)" fill="#fff"/>
  <path id="Path_14" data-name="Path 14" d="M11.65,34H7.465a.465.465,0,0,0,0,.93H11.65a.465.465,0,0,0,0-.93Z" transform="translate(-5.605 -21.272)" fill="#fff"/>
  <path id="Path_15" data-name="Path 15" d="M9.79,38H7.465a.465.465,0,1,0,0,.93H9.79a.465.465,0,1,0,0-.93Z" transform="translate(-5.605 -23.681)" fill="#fff"/>
</svg>
