<svg id="upload_icon" data-name="upload icon" xmlns="http://www.w3.org/2000/svg" width="56" height="56" viewBox="0 0 56 56">
  <rect id="Background" width="56" height="56" fill="none"/>
  <path id="Shape" d="M37.333,32.666H11.667A11.68,11.68,0,0,1,0,21,12.222,12.222,0,0,1,8.766,9.683,16.088,16.088,0,0,1,14.595,2.62,15.686,15.686,0,0,1,23.333,0a16.357,16.357,0,0,1,16.2,14.261,9.4,9.4,0,0,1,5.1,3.264,9.227,9.227,0,0,1,2.033,5.808A9.344,9.344,0,0,1,37.333,32.666Zm-14-23.333L14,21h7v7h4.667V21h7Z" transform="translate(4.667 11.667)" fill="#da1021"/>
</svg>
