<?xml version="1.0" encoding="UTF-8" standalone="no"?>
<!DOCTYPE svg PUBLIC "-//W3C//DTD SVG 1.1//EN" "http://www.w3.org/Graphics/SVG/1.1/DTD/svg11.dtd">
<svg width="100%" height="100%" viewBox="0 0 600 600" version="1.1" xmlns="http://www.w3.org/2000/svg" xmlns:xlink="http://www.w3.org/1999/xlink" xml:space="preserve" xmlns:serif="http://www.serif.com/" style="fill-rule:evenodd;clip-rule:evenodd;stroke-linejoin:round;stroke-miterlimit:2;">
    <g id="favicon">
        <rect x="0" y="0" width="600" height="600" style="fill:none;"/>
        <g transform="matrix(5.59544,0,0,5.59544,275.785,208.262)">
            <path d="M0,-17.505C-1.175,-20.329 -2.782,-22.799 -4.827,-24.919C-6.869,-27.04 -9.282,-28.714 -12.063,-29.953C-14.842,-31.186 -17.814,-31.822 -20.966,-31.857C-24.146,-31.892 -27.12,-31.322 -29.882,-30.151C-32.648,-28.973 -35.066,-27.352 -37.142,-25.276C-39.218,-23.203 -40.858,-20.769 -42.06,-17.971C-43.266,-15.177 -43.889,-12.183 -43.924,-9.004C-43.96,-5.793 -43.403,-2.774 -42.26,0.049C-41.716,1.397 -41.065,2.663 -40.319,3.847L-43.926,14.355L-33.459,10.762C-32.477,11.391 -31.446,11.956 -30.354,12.449C-27.619,13.684 -24.659,14.317 -21.478,14.352C-18.326,14.387 -15.341,13.82 -12.536,12.646C-9.728,11.473 -7.278,9.858 -5.189,7.798C-3.098,5.739 -1.437,3.311 -0.2,0.515C1.038,-2.281 1.67,-5.287 1.706,-8.498C1.741,-11.677 1.175,-14.685 0,-17.505" style="fill:rgb(237,28,36);fill-rule:nonzero;"/>
        </g>
        <g transform="matrix(5.59865,0,0,5.59865,415.634,151.95)">
            <path d="M0,2.623C-3.255,2.623 -5.896,0.033 -5.896,-3.155C-5.896,-6.346 -3.255,-8.93 0,-8.93C3.257,-8.93 5.896,-6.346 5.896,-3.155C5.896,0.033 3.257,2.623 0,2.623M5.513,-21.782C5.756,-21.149 5.896,-20.466 5.896,-19.75C5.896,-16.561 3.257,-13.971 0,-13.971C-3.123,-13.971 -5.673,-16.356 -5.877,-19.364C-10.38,-17.106 -14.043,-13.421 -16.271,-8.9C-13.296,-8.606 -10.976,-6.147 -10.976,-3.155C-10.976,0.033 -13.614,2.623 -16.872,2.623C-17.479,2.623 -18.063,2.532 -18.615,2.365C-18.057,14.631 -7.938,24.405 4.465,24.405C17.227,24.405 27.572,14.06 27.572,1.298C27.572,-11.112 17.788,-21.234 5.513,-21.782" style="fill:rgb(237,28,36);fill-rule:nonzero;"/>
        </g>
        <g transform="matrix(1.32607,0,0,1.32607,-599.247,-190.891)">
            <path d="M624.188,486.367C590.351,486.367 562.822,458.838 562.822,425C562.822,408.142 569.659,392.85 580.701,381.746C577.447,381.413 574.143,381.242 570.801,381.242C517.626,381.242 474.522,424.346 474.522,477.517C474.522,530.692 517.626,573.796 570.801,573.796C623.972,573.796 667.076,530.692 667.076,477.517C667.076,474.713 666.93,471.946 666.697,469.2C655.659,479.817 640.68,486.367 624.188,486.367ZM624.188,446.305C635.934,446.305 645.493,436.747 645.493,425.001C645.493,413.251 635.934,403.693 624.188,403.693C612.443,403.693 602.884,413.251 602.884,425.001C602.884,436.747 612.443,446.305 624.188,446.305Z" style="fill:rgb(237,28,36);fill-rule:nonzero;"/>
        </g>
        <g transform="matrix(1.32604,0,0,1.32604,-600.147,-190.88)">
            <path d="M788.302,568.683C779.335,558.875 780.189,543.5 790.198,534.345C793.873,530.987 798.268,528.945 802.802,528.17C796.064,522.312 792.793,513.075 795.156,504.004C798.502,491.137 811.86,483.487 824.989,486.904C829.798,488.154 833.893,490.725 837.01,494.1C838.264,485.266 844.227,477.504 853.114,474.545C864.389,470.791 876.51,476.037 882.014,486.387C882.285,483.462 882.439,480.508 882.439,477.52C882.439,424.345 839.335,381.241 786.16,381.241C732.989,381.241 689.881,424.345 689.881,477.52C689.881,530.691 732.989,573.8 786.16,573.8C788.923,573.8 791.656,573.654 794.356,573.425C792.148,572.212 790.093,570.641 788.302,568.683ZM868.636,521.163C859.324,524.263 849.42,521.23 843.145,514.246C843.028,514.955 842.89,515.663 842.707,516.375C840.236,525.875 832.286,532.534 823.007,533.988C823.545,534.475 824.065,534.98 824.565,535.521C832.011,543.667 832.674,555.655 826.949,564.734C833.374,561.721 839.407,558.021 844.961,553.73C840.015,550.871 837.345,545.059 838.828,539.371C840.607,532.509 847.736,528.43 854.736,530.255C858.149,531.142 860.899,533.271 862.615,536.009C866.607,530.8 870.095,525.188 872.961,519.217C871.615,519.996 870.17,520.65 868.636,521.163Z" style="fill:rgb(237,28,36);fill-rule:nonzero;"/>
        </g>
    </g>
</svg>
