<svg id="_013-group" data-name="013-group" xmlns="http://www.w3.org/2000/svg" width="37.799" height="28" viewBox="0 0 37.799 24">
  <g id="Group_2" data-name="Group 2">
    <path id="Path_16" data-name="Path 16" d="M32.691,102.81a4.315,4.315,0,1,0-4.951,0,7.477,7.477,0,0,0-2.55,1.5,9.675,9.675,0,0,0-3.5-1.907,5.467,5.467,0,1,0-5.654,0,9.756,9.756,0,0,0-3.463,1.885,7.538,7.538,0,0,0-2.52-1.466,4.315,4.315,0,1,0-4.951,0A7.575,7.575,0,0,0,0,109.975v.494a.032.032,0,0,0,.03.03H9.177a10.059,10.059,0,0,0-.082,1.264v.509a3.977,3.977,0,0,0,3.979,3.979H24.666a3.977,3.977,0,0,0,3.979-3.979v-.509a10.059,10.059,0,0,0-.082-1.264h9.207a.032.032,0,0,0,.03-.03v-.494A7.6,7.6,0,0,0,32.691,102.81ZM27.1,99.273a3.119,3.119,0,1,1,3.179,3.119h-.12A3.114,3.114,0,0,1,27.1,99.273Zm-12.52-1.556a4.27,4.27,0,1,1,4.517,4.263H18.6A4.277,4.277,0,0,1,14.577,97.717ZM4.435,99.273a3.119,3.119,0,1,1,3.179,3.119h-.12A3.119,3.119,0,0,1,4.435,99.273Zm4.951,10.022H1.212a6.39,6.39,0,0,1,6.3-5.706H7.6a6.324,6.324,0,0,1,4.076,1.518A9.82,9.82,0,0,0,9.386,109.295Zm18.047,2.977a2.786,2.786,0,0,1-2.782,2.782H13.058a2.786,2.786,0,0,1-2.782-2.782v-.509a8.591,8.591,0,0,1,8.324-8.578c.082.007.172.007.254.007s.172,0,.254-.007a8.591,8.591,0,0,1,8.324,8.578Zm.89-2.977a9.794,9.794,0,0,0-2.266-4.158,6.354,6.354,0,0,1,4.113-1.548h.09a6.39,6.39,0,0,1,6.3,5.706Z" transform="translate(0 -92.25)" fill="#fff"/>
  </g>
</svg>
