<svg xmlns="http://www.w3.org/2000/svg" width="22.668" height="24" viewBox="0 0 22.668 24">
  <path id="_010-home" data-name="010-home" d="M40.036,11.9a.614.614,0,0,0-.642.581V22.837H32.5v-6.5a.614.614,0,0,0-.642-.581H26.829a.614.614,0,0,0-.642.581v5.153a.645.645,0,0,0,1.284,0V16.919h3.746v5.918H19.294V8.613L29.344,1.326l10.29,7.462a.689.689,0,0,0,.9-.09.545.545,0,0,0-.1-.817L29.746.127a.7.7,0,0,0-.8,0L18.251,7.88a.562.562,0,0,0-.241.453V23.418a.614.614,0,0,0,.642.581H40.036a.614.614,0,0,0,.642-.581V12.484A.614.614,0,0,0,40.036,11.9Z" transform="translate(-18.01 0)" fill="#fff"/>
</svg>
