<svg id="Layer_1" viewBox="0 0 512 512" xmlns="http://www.w3.org/2000/svg" data-name="Layer 1"><path d="m173.489 97.542h173.984c7.892.506 7.892 12.266 0 12.772h-174c-8.456-.02-8.44-12.772.018-12.772zm-29.555 12.8a6.4 6.4 0 0 0 0-12.774c-.607 0-1.215-.013-1.82-.013a6.4 6.4 0 0 0 0 12.8c.6 0 1.207-.013 1.818-.013zm-35.782.013a6.4 6.4 0 1 0 0-12.8c-.6 0-1.2.013-1.8.013a6.4 6.4 0 0 0 0 12.772c.6 0 1.2.015 1.8.015zm-36.155 0a6.4 6.4 0 1 0 0-12.8h-2.229a6.4 6.4 0 1 0 0 12.8zm44.172 143.962a6.4 6.4 0 0 1 -6.4 6.4h-46.611a6.4 6.4 0 0 1 -6.4-6.4v-47.574a6.4 6.4 0 0 1 6.4-6.4h46.617a6.4 6.4 0 0 1 6.392 6.4v47.574zm-12.8-41.158h-33.819v34.784h33.839zm12.8 139.885a6.4 6.4 0 0 1 -6.4 6.4h-46.611a6.4 6.4 0 0 1 -6.4-6.4v-47.589a6.4 6.4 0 0 1 6.4-6.4h46.617a6.4 6.4 0 0 1 6.392 6.4v47.593zm-12.8-41.158h-33.819v34.784h33.839zm386.72 80.691a11.19 11.19 0 0 0 4.62-15.076l-19.825-37.334a11.11 11.11 0 0 0 -15.017-4.6l-7.152 3.8-8.231-15.5-13.649-55.439a116.959 116.959 0 0 0 -26.529-45l41.632-22.192a6.4 6.4 0 0 0 2.636-8.64l-21.216-39.8a6.4 6.4 0 0 0 -8.645-2.629l-17.068 9.1v-57.127a36.707 36.707 0 0 0 -36.663-36.669h-312.312a36.711 36.711 0 0 0 -36.67 36.667v272.041a36.707 36.707 0 0 0 36.67 36.667h307.337l15.808 29.787a11.107 11.107 0 0 0 15.013 4.6l99.261-52.654zm-71.648-121.108 13.838 56.192a6.033 6.033 0 0 0 .56 1.472l8.6 16.2-63.25 33.6-8.587-16.215a6.385 6.385 0 0 0 -1.88-2.17c-21.372-15.568-28.314-21.563-36.119-46.833-.71-2.358-1.49-4.88-2.31-7.628a72.3 72.3 0 0 0 -2.528-8.149l-19.563-41.888a9.85 9.85 0 0 1 4.543-13.683 8.872 8.872 0 0 1 12.47 4.263l22.4 42.172a6.4 6.4 0 1 0 11.281-6l-14.336-27 49.009-26.135a107.057 107.057 0 0 1 25.867 41.8zm-173.2-14.364q86.914-46.329 173.844-92.637l15.215 28.532q-48.373 25.762-96.733 51.528l-2.059-3.883a21.609 21.609 0 0 0 -29.46-9.682 22.46 22.46 0 0 0 -10.448 30.5l2.038 4.352-37.189 19.819-15.2-28.523zm-8.972 10.311 10.623 19.93-22-1.067zm51.34-47.361-6.092-1.659a11.591 11.591 0 0 1 -8.69-10.944 13.842 13.842 0 0 1 3.858-9.584 10.807 10.807 0 0 1 11.111-2.454l30.432 8.321zm-258.809-91.863h360.07v-26.054a23.915 23.915 0 0 0 -23.889-23.887h-312.311a23.919 23.919 0 0 0 -23.87 23.887zm325.926 269.882a11.11 11.11 0 0 1 5.866-9.788l6.327-3.353-7.914-14.933a143.333 143.333 0 0 1 -23.993-20.81l-197.942.01a6.4 6.4 0 0 1 0-12.774h189.4a105.457 105.457 0 0 1 -5.663-14.407l-183.738.006a6.4 6.4 0 0 1 0-12.8h179.81c-.6-2-1.228-4.086-1.905-6.3l-11.92-25.531-42.133 22.46a6.536 6.536 0 0 1 -3.4.8l-43.932-2.133a6.4 6.4 0 0 1 -5.154-9.678c6.122-10.153 16.455-30.031 23.179-38.322h-94.542a6.4 6.4 0 0 1 0-12.772h117.365l17.713-9.449a23.867 23.867 0 0 1 -6.28-4.987h-128.8a6.4 6.4 0 0 1 0-12.8h123.138a26.47 26.47 0 0 1 7.492-21.713 23.612 23.612 0 0 1 23.465-5.7l38.2 10.438 5.286 1.447 54.214-28.9v-25.113h-360.065v233.207a23.923 23.923 0 0 0 23.871 23.893h302.054zm127.943-16.059-96.369 51.152q-9.126-17.184-18.235-34.379 48.165-25.6 96.352-51.153z" fill-rule="evenodd"/></svg>