<svg xmlns="http://www.w3.org/2000/svg" width="24.094" height="24" viewBox="0 0 24.094 24">
  <path id="_012-archives" data-name="012-archives" d="M23.388,1H15.812a.706.706,0,0,0-.689.553l-.191.859H9.162l-.191-.859A.706.706,0,0,0,8.282,1H.706A.706.706,0,0,0,0,1.706V24.294A.706.706,0,0,0,.706,25H23.388a.706.706,0,0,0,.706-.706V1.706A.706.706,0,0,0,23.388,1ZM15.812,16.059a.706.706,0,0,0-.689.553l-.191.859H9.162l-.191-.859a.706.706,0,0,0-.689-.553H1.412V9.941h6.3l.818,3.683a.706.706,0,0,0,.689.553h5.647a.706.706,0,0,0,.689-.553l.818-3.683h6.3v6.118Zm-1.194,2.824L14.3,20.294H9.79l-.314-1.412ZM9.476,11.353h5.142L14.3,12.765H9.79Zm5.142-7.529L14.3,5.235H9.79L9.476,3.824Zm-6.9-1.412.818,3.683a.706.706,0,0,0,.689.553h5.647a.706.706,0,0,0,.689-.553l.818-3.683h6.3V8.529H15.812a.706.706,0,0,0-.689.553l-.191.859H9.162l-.191-.859a.706.706,0,0,0-.689-.553H1.412V2.412ZM22.682,23.588H1.412V17.471h6.3l.818,3.683a.706.706,0,0,0,.689.553h5.647a.706.706,0,0,0,.689-.553l.818-3.683h6.3Z" transform="translate(0 -1)" fill="#da1021"/>
</svg>
