<svg xmlns="http://www.w3.org/2000/svg" width="412.98" height="94.421" viewBox="110 46.29 412.98 94.421"><g data-name="Group 17"><g data-name="Group 16" transform="translate(110 46.29)" clip-path="url(&quot;#a&quot;)"><path d="M26.172 64.742c-.331-3.589-3.268-6.332-7.013-6.332l-.045.002-.044-.002a6.9 6.9 0 0 0-2.774.559 7.082 7.082 0 0 0-2.246 1.528 7.155 7.155 0 0 0-1.507 2.273 7.046 7.046 0 0 0-.551 2.776c0 .991.183 1.922.551 2.791.173.413.38.802.618 1.165l-1.01 3.181 3.172-1.069a6.882 6.882 0 0 0 3.747 1.069c.984 0 1.911-.185 2.783-.558a7.189 7.189 0 0 0 2.274-1.522 7.262 7.262 0 0 0 1.529-2.266 6.97 6.97 0 0 0 .563-2.791c0-.272-.018-.54-.047-.804" fill="#db001a" fill-rule="evenodd" data-name="Path 78"/><path d="M86.092 69.509c1.004-1.295 1.569-2.725 1.637-4.151l.015-.316H84.41s-.006.163-.018.271a4.59 4.59 0 0 1-.631 1.837l-3.691-3.736c-.37-.357-.929-.898-.929-1.314 0-.572.467-.942 1.19-.942.528 0 1.065.319 1.065.842v.302h3.276V62c0-.254-.017-.461-.054-.649-.291-1.882-1.934-2.97-4.511-2.984-2.629 0-4.465 1.448-4.465 3.521 0 .65.146 1.62 1.334 2.748-1.266.696-2.875 1.752-2.875 3.827 0 2.496 2.422 4.378 5.634 4.378 1.323 0 2.712-.447 3.938-1.263.283.291.945.953.945.953h4.463s-2.167-2.198-2.989-3.022m-6.993-2.668 2.36 2.413a3.44 3.44 0 0 1-1.836.535c-.965 0-1.998-.563-1.998-1.401 0-.771.75-1.192 1.474-1.547" fill="#db001a" fill-rule="evenodd" data-name="Path 79"/><path d="M0 65.53c0-3.978 3.106-7.123 7.162-7.123 1.793 0 3.409.627 4.644 1.666l-2.009 2.684c-.666-.529-1.646-.97-2.635-.97-1.911 0-3.586 1.627-3.586 3.753 0 2.136 1.685 3.762 3.586 3.762 1.009 0 1.705-.255 2.665-.999l1.979 2.704c-1.235 1.048-2.851 1.675-4.644 1.675C3.106 72.682 0 69.488 0 65.53" fill="#db001a" fill-rule="evenodd" data-name="Path 80"/><path d="M28.569 58.672h3.958l2.459 8.886 2.45-8.886h3.967l1.784 13.775h-3.576l-.863-8.112-2.204 8.102h-3.076l-2.205-8.102-.901 8.102h-3.566l1.773-13.765Z" fill="#db001a" fill-rule="evenodd" data-name="Path 81"/><path d="M44.722 58.672h3.527v13.765h-3.527V58.672z" fill="#db001a" fill-rule="evenodd" data-name="Rectangle 36"/><path d="M49.625 65.53c0-3.978 3.106-7.123 7.162-7.123 1.793 0 3.409.627 4.644 1.666l-2.009 2.684c-.666-.529-1.646-.97-2.635-.97-1.911 0-3.586 1.627-3.586 3.753 0 2.136 1.685 3.762 3.586 3.762 1.009 0 1.705-.255 2.665-.999l1.979 2.704c-1.235 1.048-2.851 1.675-4.644 1.675-4.056 0-7.162-3.194-7.162-7.152" fill="#db001a" fill-rule="evenodd" data-name="Path 82"/><path d="m61.936 70.223 2.224-2.361c1.107 1.019 2.214 1.548 3.419 1.548 1.156 0 1.656-.441 1.656-1.058 0-.686-.598-1.078-2.381-1.607-2.831-.843-3.997-2.087-3.997-4.232 0-2.107 1.332-4.106 4.712-4.106 2.195 0 3.733.735 5.046 1.931l-1.959 2.439c-.637-.588-1.803-1.166-2.94-1.166-.881 0-1.332.392-1.332.794 0 .558.421.911 2.214 1.518 3.077 1.049 4.213 2.254 4.213 4.36 0 2.645-2.028 4.389-5.144 4.389-2.224 0-4.163-.842-5.731-2.449" fill="#db001a" fill-rule="evenodd" data-name="Path 83"/><path d="M88.565 65.694c0-3.978 3.106-7.123 7.162-7.123 1.793 0 3.409.627 4.644 1.666l-2.058 2.684c-.666-.529-1.597-.97-2.586-.97-1.911 0-3.586 1.627-3.586 3.753 0 2.136 1.685 3.86 3.586 3.86.499 0 .96-.059 1.411-.206v-3.125h3.331v5.104c-1.235.951-2.949 1.509-4.742 1.509-4.056 0-7.162-3.194-7.162-7.152" fill="#db001a" fill-rule="evenodd" data-name="Path 84"/><path d="M106.366 58.816h3.086l5.281 13.785h-3.635l-.734-2.156h-4.938l-.735 2.156h-3.635l5.31-13.785Zm3.008 8.69-1.313-3.86-.157-.627h-.019l-.147.627-1.313 3.86h2.949Z" fill="#db001a" fill-rule="evenodd" data-name="Path 85"/><path d="M117.169 58.835h3.958l2.459 8.886 2.45-8.886h3.967l1.784 13.775h-3.576l-.863-8.112-2.204 8.102h-3.076l-2.205-8.102-.901 8.102h-3.566l1.773-13.765Z" fill="#db001a" fill-rule="evenodd" data-name="Path 86"/><path d="M133.422 58.835h10.003v3.184h-6.476v2.146h5.065v2.968h-5.065v2.283h6.623V72.6h-10.15V58.835Z" fill="#db001a" fill-rule="evenodd" data-name="Path 87"/><path d="m144.361 70.386 2.224-2.361c1.107 1.019 2.214 1.548 3.42 1.548 1.155 0 1.655-.441 1.655-1.058 0-.686-.597-1.078-2.381-1.607-2.83-.843-3.996-2.087-3.996-4.232 0-2.107 1.332-4.106 4.711-4.106 2.195 0 3.733.735 5.046 1.931l-1.959 2.439c-.637-.588-1.802-1.166-2.94-1.166-.881 0-1.332.392-1.332.794 0 .558.421.911 2.214 1.518 3.077 1.049 4.213 2.254 4.213 4.36 0 2.645-2.028 4.389-5.144 4.389-2.224 0-4.163-.842-5.731-2.449" fill="#db001a" fill-rule="evenodd" data-name="Path 88"/><path d="M.913 21.528h8.87v26.144h14.34v8.476H.914v-34.62Z" fill="#db001a" fill-rule="evenodd" data-name="Path 89"/><path d="M27.355 42.595V21.527h8.87v20.55c0 3.943 2.046 6.579 6.013 6.579 3.992 0 6.086-2.612 6.086-6.579v-20.55h8.87v21.068c0 8.23-5.445 14.316-14.956 14.316-9.462 0-14.883-6.086-14.883-14.316" fill="#db001a" fill-rule="evenodd" data-name="Path 90"/><path d="M61.234 38.776c0-10.004 7.811-17.913 18.012-17.913 4.509 0 8.575 1.577 11.679 4.188l-5.026 6.752c-1.676-1.331-4.164-2.439-6.653-2.439-4.805 0-9.018 4.09-9.018 9.437 0 5.372 4.238 9.462 9.018 9.462 2.538 0 4.312-.641 6.727-2.513l4.952 6.8c-3.104 2.637-7.17 4.214-11.679 4.214-10.201 0-18.012-8.033-18.012-17.988" fill="#db001a" fill-rule="evenodd" data-name="Path 91"/><path d="M90.661 38.776c0-10.004 7.811-17.913 18.012-17.913 4.509 0 8.575 1.577 11.679 4.188l-5.026 6.752c-1.676-1.331-4.164-2.439-6.653-2.439-4.805 0-9.018 4.09-9.018 9.437 0 5.372 4.238 9.462 9.018 9.462 2.538 0 4.312-.641 6.727-2.513l4.952 6.8c-3.104 2.637-7.17 4.214-11.679 4.214-10.201 0-18.012-8.033-18.012-17.988" fill="#db001a" fill-rule="evenodd" data-name="Path 92"/><path d="M144.247 50.727h-12.418l-1.849 5.421h-9.141l13.355-34.669h7.762l13.281 34.669h-9.142l-1.848-5.421Zm-2.513-7.466-3.277-9.634-.394-1.577h-.05l-.37 1.577-3.277 9.634h7.368Z" fill="#db001a" fill-rule="evenodd" data-name="Path 93"/><path d="M263.151 40.072a8.84 8.84 0 0 1-3.245-3.257c-.791-1.369-1.186-2.873-1.186-4.511 0-1.639.395-3.143 1.186-4.511a8.71 8.71 0 0 1 3.239-3.239c1.368-.791 2.888-1.186 4.56-1.186 1.106 0 2.157.182 3.153.546a8.805 8.805 0 0 1 2.673 1.543l-2.519 3.368a5.855 5.855 0 0 0-1.549-.879 4.843 4.843 0 0 0-1.758-.338c-.795 0-1.536.207-2.225.621a4.648 4.648 0 0 0-1.653 1.702 4.705 4.705 0 0 0-.621 2.385 4.7 4.7 0 0 0 .621 2.384 4.675 4.675 0 0 0 1.659 1.709 4.223 4.223 0 0 0 2.219.627c.639 0 1.207-.092 1.702-.277.496-.184 1.043-.51 1.641-.977l2.483 3.393a8.674 8.674 0 0 1-2.673 1.555 9.113 9.113 0 0 1-3.153.546c-1.664 0-3.182-.401-4.554-1.204" fill="#184833" fill-rule="evenodd" data-name="Path 94"/><path d="M279.056 40.073a8.835 8.835 0 0 1-3.245-3.258c-.791-1.368-1.186-2.872-1.186-4.511 0-1.638.395-3.142 1.186-4.511a8.717 8.717 0 0 1 3.239-3.239c1.368-.791 2.884-1.186 4.548-1.186 1.672 0 3.191.398 4.56 1.192a8.783 8.783 0 0 1 3.239 3.239c.791 1.365 1.186 2.867 1.186 4.505 0 1.631-.395 3.133-1.186 4.505a8.829 8.829 0 0 1-3.245 3.264c-1.373.803-2.887 1.204-4.542 1.204-1.664 0-3.181-.401-4.554-1.204m6.779-3.657a4.584 4.584 0 0 0 1.647-1.709c.41-.725.615-1.522.615-2.391 0-.868-.207-1.663-.621-2.384a4.64 4.64 0 0 0-1.653-1.702 4.243 4.243 0 0 0-2.225-.621c-.787 0-1.524.207-2.213.621a4.64 4.64 0 0 0-1.653 1.702 4.704 4.704 0 0 0-.621 2.384c0 .869.207 1.664.621 2.385a4.683 4.683 0 0 0 1.659 1.709 4.223 4.223 0 0 0 2.219.627 4.24 4.24 0 0 0 2.225-.621" fill="#184833" fill-rule="evenodd" data-name="Path 95"/><path d="M296.136 23.7h4.966l3.085 11.148L307.26 23.7h4.978l2.237 17.282h-4.486l-1.082-10.178-2.766 10.166h-3.86l-2.765-10.166-1.131 10.166h-4.474l2.225-17.27Z" fill="#184833" fill-rule="evenodd" data-name="Path 96"/><path d="M318.347 23.7h4.966l3.085 11.148L329.47 23.7h4.978l2.237 17.282H332.2l-1.082-10.178-2.766 10.166h-3.86l-2.765-10.166-1.131 10.166h-4.474l2.225-17.27Z" fill="#184833" fill-rule="evenodd" data-name="Path 97"/><path d="M342.026 40.423c-1.118-.61-1.971-1.456-2.557-2.538-.586-1.082-.879-2.311-.879-3.688V23.7h4.426v9.871c0 .729.118 1.37.356 1.923.237.553.584.979 1.039 1.279.454.299.989.448 1.603.448.623 0 1.164-.151 1.623-.455.459-.303.81-.729 1.051-1.278.242-.549.363-1.188.363-1.917V23.7h4.426v10.497c0 1.377-.296 2.606-.886 3.688-.59 1.082-1.446 1.928-2.569 2.538-1.123.611-2.459.916-4.008.916-1.54 0-2.869-.305-3.988-.916" fill="#184833" fill-rule="evenodd" data-name="Path 98"/><path d="M356.574 23.7h4.425l6.343 9.76V23.7h4.302v17.27h-4.008l-6.76-10.301v10.3h-4.302V23.7Z" fill="#184833" fill-rule="evenodd" data-name="Path 99"/><path d="M375.085 23.7h4.425v17.27h-4.425V23.7z" fill="#184833" fill-rule="evenodd" data-name="Rectangle 37"/><path d="M386.602 27.817h-4.634V23.7h13.705v4.118h-4.646V40.97h-4.425V27.817Z" fill="#184833" fill-rule="evenodd" data-name="Path 100"/><path d="m402.544 34.381-6.01-10.682h5.113l3.146 6.552 3.049-6.552h5.138l-6.011 10.657v6.613h-4.425v-6.588Z" fill="#184833" fill-rule="evenodd" data-name="Path 101"/><path d="m267.842 43.677-10.099 26.216h6.913l1.395-4.099h9.4l1.391 4.099h6.913l-10.043-26.216h-5.87Zm.111 16.527 2.498-7.341.279-1.192h.037l.299 1.192 2.489 7.341h-5.602Z" fill="#184833" fill-rule="evenodd" data-name="Path 102"/><path d="m310.303 43.715-5.646 16.713-2.404-7.322 3.112-9.391h-7.1l-5.272 16.732-5.738-16.732h-7.212l9.987 26.179h5.72l3.056-8.087 2.982 8.087h5.645l10.08-26.18h-7.21Z" fill="#184833" fill-rule="evenodd" data-name="Path 103"/><path d="m323.47 43.677-10.098 26.216h6.912l1.395-4.099h9.4l1.391 4.099h6.913l-10.044-26.216h-5.869Zm.111 16.527 2.498-7.341.279-1.192h.038l.298 1.192 2.49 7.341h-5.603Z" fill="#184833" fill-rule="evenodd" data-name="Path 104"/><path d="M361.172 57.661c1.013-1.336 1.519-3.016 1.519-5.04 0-1.74-.389-3.283-1.165-4.631a8.144 8.144 0 0 0-3.251-3.149c-1.391-.751-2.988-1.127-4.788-1.127h-11.311v26.179h6.708v-8.347h2.702c.268 0 .525-.021.788-.032l3.926 8.379h7.565l-5.072-10.112c.925-.566 1.728-1.262 2.379-2.12m-12.288-7.891h4.043c.534 0 1.028.112 1.481.335.454.224.814.55 1.081.979.267.428.401.947.401 1.555 0 .559-.131 1.069-.391 1.528a2.97 2.97 0 0 1-2.628 1.509h-3.987V49.77Z" fill="#184833" fill-rule="evenodd" data-name="Path 105"/><path d="M383.792 45.429c-2.105-1.143-4.425-1.714-6.959-1.714h-9.857v26.178h9.913c2.522 0 4.832-.571 6.931-1.714s3.758-2.714 4.975-4.714c1.217-2 1.826-4.223 1.826-6.67s-.612-4.668-1.835-6.662c-1.223-1.993-2.888-3.561-4.994-4.704m-.838 14.85a6.13 6.13 0 0 1-2.394 2.376c-1.019.565-2.168.847-3.447.847h-3.429V50.106h3.41c1.279 0 2.432.286 3.457.857a6.163 6.163 0 0 1 2.403 2.385c.578 1.018.866 2.167.866 3.447 0 1.304-.288 2.466-.866 3.484" fill="#184833" fill-rule="evenodd" data-name="Path 106"/><path d="M412.067 58.351c-.609-1.012-1.469-1.87-2.58-2.572-1.112-.701-2.513-1.356-4.202-1.965a.885.885 0 0 1-.158-.056 1.016 1.016 0 0 0-.159-.056 2.268 2.268 0 0 1-.261-.093 2.549 2.549 0 0 0-.26-.094c-.982-.335-1.708-.601-2.18-.801-.473-.198-.842-.422-1.109-.67-.267-.248-.401-.541-.401-.876 0-.373.096-.699.289-.978.193-.28.478-.497.857-.652.379-.155.842-.233 1.388-.233 1.019 0 2.041.217 3.066.652 1.024.435 1.866.957 2.524 1.565l3.726-4.639a14.771 14.771 0 0 0-2.729-1.994 12.921 12.921 0 0 0-3.13-1.239c-1.137-.292-2.382-.438-3.736-.438-2.037 0-3.727.357-5.068 1.071-1.342.715-2.327 1.655-2.953 2.823-.628 1.168-.941 2.441-.941 3.82 0 1.639.391 3.012 1.173 4.117.783 1.106 1.727 1.957 2.833 2.553a18.973 18.973 0 0 0 3.595 1.472c.41.125.796.245 1.156.364.36.117.683.232.969.344.285.112.546.224.782.335.422.212.752.423.988.634.236.212.401.426.494.643.093.218.139.463.139.736 0 .397-.112.748-.335 1.052-.224.305-.572.541-1.044.709-.472.167-1.062.251-1.77.251a7.82 7.82 0 0 1-3.298-.736c-1.068-.49-2.136-1.226-3.204-2.208l-4.23 4.49c1.491 1.528 3.152 2.687 4.984 3.476 1.833.788 3.804 1.183 5.916 1.183 1.95 0 3.665-.345 5.143-1.034 1.478-.69 2.621-1.664 3.428-2.926.807-1.26 1.211-2.723 1.211-4.388 0-1.415-.304-2.63-.913-3.642" fill="#184833" fill-rule="evenodd" data-name="Path 107"/><path d="M218.747 63.31c-.669 0-1.349-.041-2.021-.123-7.388-.893-13.353-6.912-14.182-14.31-.527-4.705.909-9.228 4.046-12.736a16.328 16.328 0 0 1 12.157-5.45c4.377 0 8.469 1.718 11.564 4.846a.264.264 0 0 1 .023.339l-2.381 3.223a.17.17 0 0 1-.265.01 11.906 11.906 0 0 0-8.941-4.052 11.841 11.841 0 0 0-8.604 3.668 11.85 11.85 0 0 0-3.33 8.747c.245 6.325 5.604 11.472 11.945 11.472l.329-.005c3.572-.1 6.857-1.77 9.062-4.593a.17.17 0 0 1 .272.003l2.39 3.295c.072.1.065.239-.018.33a16.305 16.305 0 0 1-12.046 5.336" fill="#184833" fill-rule="evenodd" data-name="Path 108"/><path d="M218.753 71.047c-1.149 0-2.317-.083-3.471-.247-10.803-1.533-19.386-10.535-20.408-21.405-.643-6.848 1.535-13.403 6.137-18.456 4.545-4.993 11.007-7.856 17.729-7.856l.444.004a23.862 23.862 0 0 1 16.038 6.574.263.263 0 0 1 .027.349l-2.367 3.084a.251.251 0 0 1-.378.023c-3.605-3.565-8.344-5.573-13.399-5.665l-.364-.003a19.657 19.657 0 0 0-14.5 6.424c-3.763 4.132-5.547 9.492-5.021 15.09.827 8.82 7.783 16.177 16.54 17.493.993.149 2 .225 2.99.225 5.155-.001 9.997-1.991 13.694-5.616a.251.251 0 0 1 .383.034l2.24 3.209a.264.264 0 0 1-.037.342c-4.454 4.128-10.22 6.397-16.277 6.397" fill="#899c3a" fill-rule="evenodd" data-name="Path 109"/><path d="M218.747 86.327c-.644 0-1.292-.016-1.942-.047-19.878-.962-35.909-16.646-37.287-36.482-.767-11.024 2.954-21.537 10.477-29.602 7.424-7.959 17.903-12.523 28.752-12.523a39.293 39.293 0 0 1 25.29 9.246.261.261 0 0 1 .042.354l-2.291 3.1a.252.252 0 0 1-.367.041 34.904 34.904 0 0 0-22.674-8.375c-9.649 0-18.969 4.061-25.569 11.142-6.689 7.175-9.993 16.527-9.303 26.333 1.199 17.049 14.945 30.947 31.974 32.329.963.078 1.939.118 2.898.118a34.862 34.862 0 0 0 23.045-8.699.251.251 0 0 1 .371.04l2.27 3.133a.261.261 0 0 1-.04.349 39.264 39.264 0 0 1-25.646 9.543" fill="#ffc000" fill-rule="evenodd" data-name="Path 110"/><path d="M218.748 78.654c-.831 0-1.676-.033-2.51-.098-15.487-1.201-27.983-13.795-29.066-29.294-.62-8.876 2.374-17.34 8.43-23.833 5.975-6.408 14.412-10.084 23.145-10.084 7.625 0 14.971 2.75 20.73 7.752a.262.262 0 0 1 .038.352l-2.301 3.114a.25.25 0 0 1-.37.038 27.192 27.192 0 0 0-18.097-6.889 27.329 27.329 0 0 0-20.336 9.11c-5.247 5.865-7.654 13.426-6.778 21.291 1.435 12.886 11.872 23.014 24.815 24.08.765.063 1.538.095 2.299.095a27.149 27.149 0 0 0 18.516-7.262.251.251 0 0 1 .376.035l2.271 3.134a.262.262 0 0 1-.036.347 31.537 31.537 0 0 1-21.126 8.112" fill="#6ec1ce" fill-rule="evenodd" data-name="Path 111"/><path d="m248.923 82.627-2.244-3.095a.252.252 0 0 0-.368-.044 42.583 42.583 0 0 1-30.996 10.01c-20.729-1.634-37.53-18.503-39.079-39.238-.897-11.995 3.103-23.443 11.264-32.237 8.055-8.68 19.444-13.657 31.246-13.657a42.616 42.616 0 0 1 27.237 9.872.251.251 0 0 0 .365-.044l2.272-3.121a.261.261 0 0 0-.045-.354C240.179 3.805 229.597 0 218.746 0a48.6 48.6 0 0 0-4.206.184c-22.613 1.981-40.951 20.55-42.656 43.194-.769 10.228 1.703 20.091 7.018 28.526l-7.612 22.174a.258.258 0 0 0 .328.328l22.18-7.614C201.223 91.445 209.877 94 218.746 94a46.782 46.782 0 0 0 30.134-11.021.261.261 0 0 0 .043-.352" fill="#db001a" fill-rule="evenodd" data-name="Path 112"/></g></g><defs><clipPath id="a"><path d="M0 0h412.98v94.421H0V0z" data-name="Rectangle 38"/></clipPath></defs></svg>