<svg xmlns="http://www.w3.org/2000/svg" width="103.867" height="143.802"><g data-name="Group 47" clip-path="url(&quot;#a&quot;)"><path d="M2.983 123.544a5.955 5.955 0 0 1-2.185-2.193A5.967 5.967 0 0 1 0 118.313a5.967 5.967 0 0 1 2.98-5.218c.92-.532 1.944-.798 3.07-.798.745 0 1.452.122 2.123.368.67.246 1.27.592 1.8 1.038l-1.697 2.269a3.925 3.925 0 0 0-1.042-.593 3.267 3.267 0 0 0-1.184-.227 2.86 2.86 0 0 0-1.498.418 3.13 3.13 0 0 0-1.114 1.146 3.173 3.173 0 0 0-.417 1.606c0 .585.14 1.12.417 1.605.28.486.651.87 1.118 1.151.466.281.964.422 1.494.422.43 0 .812-.062 1.146-.186.334-.124.702-.344 1.105-.658l1.672 2.284c-.53.453-1.13.802-1.8 1.047a6.14 6.14 0 0 1-2.123.368c-1.12 0-2.143-.27-3.067-.81" fill="#184833" fill-rule="evenodd" data-name="Path 120"/><path d="M13.693 123.544a5.948 5.948 0 0 1-2.185-2.193 5.961 5.961 0 0 1-.799-3.038 5.96 5.96 0 0 1 .8-3.037 5.866 5.866 0 0 1 2.18-2.18c.921-.533 1.942-.799 3.062-.799 1.126 0 2.15.268 3.07.802a5.91 5.91 0 0 1 2.181 2.181c.533.92.8 1.93.8 3.033a5.97 5.97 0 0 1-.8 3.034 5.944 5.944 0 0 1-2.184 2.197c-.925.541-1.944.811-3.059.811-1.12 0-2.142-.27-3.066-.81m4.564-2.463a3.083 3.083 0 0 0 1.11-1.15 3.213 3.213 0 0 0 .413-1.61c0-.585-.139-1.12-.418-1.606a3.128 3.128 0 0 0-1.113-1.146 2.862 2.862 0 0 0-1.498-.418c-.53 0-1.026.14-1.49.418a3.122 3.122 0 0 0-1.112 1.146 3.166 3.166 0 0 0-.419 1.605c0 .586.14 1.121.419 1.606.278.486.65.87 1.116 1.151.467.281.964.422 1.494.422a2.86 2.86 0 0 0 1.498-.418" fill="#184833" fill-rule="evenodd" data-name="Path 121"/><path d="M25.193 112.52h3.344l2.077 7.507 2.069-7.506h3.352l1.506 11.636h-3.02l-.729-6.853-1.862 6.845h-2.599l-1.862-6.845-.761 6.845h-3.013l1.498-11.628Z" fill="#184833" fill-rule="evenodd" data-name="Path 122"/><path d="M40.148 112.52h3.344l2.077 7.507 2.069-7.506h3.352l1.506 11.636h-3.02l-.729-6.853-1.862 6.845h-2.598l-1.863-6.845-.761 6.845H38.65l1.498-11.628Z" fill="#184833" fill-rule="evenodd" data-name="Path 123"/><path d="M56.092 123.78a4.195 4.195 0 0 1-1.721-1.708c-.395-.729-.592-1.557-.592-2.483v-7.068h2.98v6.646c0 .49.08.922.24 1.295.16.373.393.659.7.86.305.202.665.303 1.079.303.419 0 .784-.103 1.092-.307.31-.204.545-.49.708-.86.162-.37.244-.8.244-1.291v-6.646h2.98v7.068c0 .926-.2 1.754-.596 2.483a4.216 4.216 0 0 1-1.73 1.709c-.756.41-1.656.616-2.698.616-1.038 0-1.932-.206-2.686-.616" fill="#184833" fill-rule="evenodd" data-name="Path 124"/><path d="M65.887 112.52h2.98l4.27 6.572v-6.571h2.897v11.628h-2.698l-4.552-6.936v6.936h-2.897V112.52Z" fill="#184833" fill-rule="evenodd" data-name="Path 125"/><path d="M78.352 112.52h2.979v11.629h-2.98V112.52z" fill="#184833" fill-rule="evenodd" data-name="Rectangle 57"/><path d="M86.106 115.293h-3.12v-2.773h9.228v2.773h-3.129v8.856h-2.979v-8.856Z" fill="#184833" fill-rule="evenodd" data-name="Path 126"/><path d="m96.84 119.713-4.047-7.192h3.443l2.119 4.41 2.052-4.41h3.46l-4.047 7.175v4.453h-2.98v-4.436Z" fill="#184833" fill-rule="evenodd" data-name="Path 127"/><path d="M6.757 125.962 0 143.502h4.625l.934-2.742h6.29l.93 2.743h4.625l-6.72-17.541H6.757Zm.074 11.058 1.672-4.912.186-.797h.025l.2.797 1.666 4.912H6.83Z" fill="#184833" fill-rule="evenodd" data-name="Path 128"/><path d="m35.167 125.987-3.778 11.182-1.608-4.899 2.082-6.283h-4.75l-3.528 11.195-3.84-11.195H14.92l6.682 17.516h3.828l2.044-5.41 1.996 5.41h3.777l6.745-17.516h-4.825Z" fill="#184833" fill-rule="evenodd" data-name="Path 129"/><path d="m43.976 125.962-6.756 17.54h4.625l.933-2.742h6.29l.93 2.743h4.626l-6.72-17.541h-3.928Zm.075 11.058 1.671-4.912.187-.797h.025l.2.797 1.666 4.912h-3.75Z" fill="#184833" fill-rule="evenodd" data-name="Path 130"/><path d="M69.203 135.318c.678-.893 1.016-2.018 1.016-3.372 0-1.163-.26-2.196-.78-3.098a5.443 5.443 0 0 0-2.174-2.107c-.931-.503-2-.754-3.205-.754h-7.567v17.516h4.488v-5.585h1.808c.18 0 .351-.014.527-.021l2.627 5.606h5.062l-3.394-6.766a5.708 5.708 0 0 0 1.592-1.419m-8.222-5.28h2.705c.358 0 .688.075.991.225.304.15.545.368.724.655.178.286.268.633.268 1.04 0 .374-.088.715-.262 1.023a1.987 1.987 0 0 1-1.758 1.01h-2.668v-3.952Z" fill="#184833" fill-rule="evenodd" data-name="Path 131"/><path d="M84.338 127.134c-1.409-.765-2.96-1.147-4.656-1.147h-6.595v17.516h6.632c1.688 0 3.233-.382 4.637-1.147a8.67 8.67 0 0 0 3.329-3.154c.815-1.338 1.222-2.826 1.222-4.463s-.41-3.123-1.228-4.458c-.818-1.333-1.933-2.382-3.341-3.147m-.56 9.936a4.106 4.106 0 0 1-1.603 1.59c-.681.378-1.45.566-2.307.566h-2.293v-8.963h2.281c.856 0 1.628.192 2.313.574.685.382 1.22.914 1.608 1.596.387.68.579 1.45.579 2.306 0 .872-.192 1.65-.579 2.331" fill="#184833" fill-rule="evenodd" data-name="Path 132"/><path d="M103.256 135.78c-.408-.678-.983-1.252-1.727-1.722-.744-.469-1.681-.907-2.811-1.314a.594.594 0 0 1-.106-.038.678.678 0 0 0-.106-.037 1.515 1.515 0 0 1-.175-.062 1.706 1.706 0 0 0-.174-.063 23.751 23.751 0 0 1-1.458-.536 2.516 2.516 0 0 1-.742-.449.778.778 0 0 1-.269-.586c0-.25.064-.467.194-.654.129-.187.32-.333.573-.436.254-.104.563-.156.929-.156.682 0 1.365.145 2.051.436.685.291 1.249.64 1.689 1.047l2.493-3.104a9.883 9.883 0 0 0-1.826-1.334 8.646 8.646 0 0 0-2.094-.829 10.036 10.036 0 0 0-2.5-.293c-1.363 0-2.493.239-3.39.717-.899.478-1.557 1.107-1.977 1.888a5.31 5.31 0 0 0-.63 2.556c0 1.097.262 2.016.786 2.755.523.74 1.155 1.31 1.895 1.708.74.399 1.542.727 2.405.985.275.084.533.164.774.244.24.078.457.155.648.23.19.075.366.15.523.224.283.142.504.283.662.424.157.142.268.285.33.43.062.146.093.31.093.493 0 .265-.075.5-.224.704-.15.204-.383.362-.699.474-.315.112-.71.168-1.184.168a5.232 5.232 0 0 1-2.207-.492c-.714-.328-1.429-.82-2.143-1.478l-2.83 3.004c.997 1.023 2.108 1.798 3.334 2.326 1.227.527 2.545.792 3.958.792 1.305 0 2.453-.231 3.442-.692.989-.462 1.753-1.114 2.293-1.958.54-.843.81-1.822.81-2.936 0-.947-.203-1.76-.61-2.437" fill="#184833" fill-rule="evenodd" data-name="Path 133"/><path d="M17.511 29.359c-.221-2.401-2.186-4.237-4.692-4.237l-.03.002-.03-.002c-.663 0-1.281.125-1.856.374a4.739 4.739 0 0 0-1.502 1.023c-.428.434-.765.94-1.009 1.52a4.715 4.715 0 0 0-.368 1.858 4.74 4.74 0 0 0 .782 2.647l-.676 2.128 2.122-.715a4.605 4.605 0 0 0 2.507.715c.659 0 1.28-.124 1.863-.373a4.81 4.81 0 0 0 1.521-1.019c.43-.43.772-.936 1.023-1.516.251-.581.377-1.204.377-1.867 0-.182-.012-.361-.032-.538" fill="#db001a" fill-rule="evenodd" data-name="Path 134"/><path d="M57.603 32.548c.672-.866 1.05-1.823 1.095-2.777l.01-.211h-2.23s-.004.109-.012.181a3.071 3.071 0 0 1-.423 1.23l-2.47-2.5c-.247-.24-.62-.601-.62-.88 0-.383.312-.63.796-.63.353 0 .712.213.712.563v.202h2.192v-.202c0-.17-.011-.308-.036-.434-.195-1.26-1.294-1.987-3.018-1.997-1.76 0-2.988.97-2.988 2.356 0 .435.098 1.084.893 1.839-.847.466-1.924 1.172-1.924 2.56 0 1.67 1.62 2.93 3.77 2.93.885 0 1.814-.3 2.635-.845.189.194.632.637.632.637h2.986s-1.45-1.47-2-2.022m-4.679-1.785 1.58 1.615a2.302 2.302 0 0 1-1.23.358c-.645 0-1.336-.377-1.336-.938 0-.515.502-.797.986-1.035" fill="#db001a" fill-rule="evenodd" data-name="Path 135"/><path d="M0 29.886c0-2.661 2.078-4.766 4.792-4.766 1.2 0 2.28.42 3.107 1.115L6.555 28.03c-.446-.354-1.101-.65-1.763-.65-1.279 0-2.4 1.09-2.4 2.512 0 1.429 1.128 2.517 2.4 2.517.675 0 1.14-.17 1.783-.668L7.9 33.55a4.77 4.77 0 0 1-3.107 1.12C2.078 34.671 0 32.534 0 29.886" fill="#db001a" fill-rule="evenodd" data-name="Path 136"/><path d="M19.115 25.298h2.648l1.646 5.945 1.639-5.945h2.654l1.194 9.216h-2.393l-.577-5.427-1.475 5.42h-2.058l-1.475-5.42-.603 5.42h-2.386l1.186-9.21Z" fill="#db001a" fill-rule="evenodd" data-name="Path 137"/><path d="M29.923 25.298h2.36v9.21h-2.36v-9.21z" fill="#db001a" fill-rule="evenodd" data-name="Rectangle 58"/><path d="M33.203 29.886c0-2.661 2.079-4.766 4.792-4.766 1.2 0 2.281.42 3.108 1.115l-1.344 1.796c-.446-.354-1.102-.65-1.764-.65-1.278 0-2.399 1.09-2.399 2.512 0 1.429 1.128 2.517 2.4 2.517.675 0 1.14-.17 1.783-.668l1.324 1.809a4.77 4.77 0 0 1-3.108 1.12c-2.713 0-4.792-2.137-4.792-4.785" fill="#db001a" fill-rule="evenodd" data-name="Path 138"/><path d="m41.44 33.026 1.489-1.58c.74.682 1.481 1.036 2.287 1.036.774 0 1.108-.295 1.108-.708 0-.459-.4-.721-1.593-1.075-1.894-.564-2.674-1.396-2.674-2.831 0-1.41.891-2.748 3.153-2.748 1.468 0 2.497.492 3.376 1.292l-1.31 1.632c-.427-.393-1.207-.78-1.968-.78-.59 0-.891.262-.891.531 0 .374.281.61 1.481 1.016 2.059.702 2.819 1.508 2.819 2.917 0 1.77-1.357 2.937-3.442 2.937-1.488 0-2.785-.564-3.834-1.639" fill="#db001a" fill-rule="evenodd" data-name="Path 139"/><path d="M59.258 29.996c0-2.662 2.078-4.766 4.792-4.766 1.2 0 2.28.42 3.107 1.115L65.78 28.14c-.446-.353-1.069-.649-1.73-.649-1.279 0-2.4 1.09-2.4 2.512 0 1.429 1.128 2.582 2.4 2.582.334 0 .642-.04.944-.138v-2.09h2.229v3.415c-.827.636-1.974 1.01-3.173 1.01-2.714 0-4.792-2.138-4.792-4.786" fill="#db001a" fill-rule="evenodd" data-name="Path 140"/><path d="M71.168 25.394h2.065l3.533 9.223h-2.432l-.49-1.442h-3.305l-.492 1.442h-2.432l3.553-9.223Zm2.013 5.814-.879-2.582-.105-.42h-.012l-.099.42-.878 2.582h1.973Z" fill="#db001a" fill-rule="evenodd" data-name="Path 141"/><path d="M78.396 25.407h2.649l1.645 5.946 1.64-5.946h2.653l1.194 9.217h-2.393l-.577-5.428-1.475 5.421h-2.058l-1.475-5.42-.603 5.42H77.21l1.186-9.21Z" fill="#db001a" fill-rule="evenodd" data-name="Path 142"/><path d="M89.271 25.407h6.693v2.13h-4.333v1.436h3.389v1.986h-3.389v1.528h4.431v2.13h-6.79v-9.21Z" fill="#db001a" fill-rule="evenodd" data-name="Path 143"/><path d="m96.59 33.136 1.488-1.58c.74.682 1.482 1.036 2.289 1.036.772 0 1.107-.295 1.107-.708 0-.459-.4-.721-1.593-1.075-1.894-.564-2.674-1.397-2.674-2.832 0-1.41.891-2.747 3.152-2.747 1.469 0 2.498.492 3.376 1.292l-1.31 1.632c-.427-.394-1.206-.78-1.967-.78-.59 0-.892.262-.892.531 0 .373.282.61 1.482 1.016 2.058.702 2.819 1.508 2.819 2.917 0 1.77-1.357 2.937-3.442 2.937-1.488 0-2.786-.564-3.835-1.64" fill="#db001a" fill-rule="evenodd" data-name="Path 144"/><path d="M.61.445h5.936v17.493h9.595v5.67H.611V.446Z" fill="#db001a" fill-rule="evenodd" data-name="Path 145"/><path d="M18.303 14.541V.445h5.935v13.75c0 2.638 1.369 4.402 4.023 4.402 2.67 0 4.072-1.748 4.072-4.402V.445h5.935V14.54c0 5.507-3.643 9.579-10.007 9.579-6.331 0-9.958-4.072-9.958-9.579" fill="#db001a" fill-rule="evenodd" data-name="Path 146"/><path d="M40.97 11.985C40.97 5.292 46.198 0 53.024 0c3.016 0 5.737 1.055 7.814 2.802L57.474 7.32c-1.121-.89-2.786-1.632-4.451-1.632-3.215 0-6.034 2.736-6.034 6.314 0 3.594 2.835 6.331 6.034 6.331 1.698 0 2.885-.429 4.5-1.681l3.314 4.55c-2.077 1.764-4.798 2.819-7.814 2.819-6.826 0-12.052-5.375-12.052-12.036" fill="#db001a" fill-rule="evenodd" data-name="Path 147"/><path d="M60.66 11.985C60.66 5.292 65.886 0 72.712 0c3.017 0 5.737 1.055 7.814 2.802L77.163 7.32c-1.121-.89-2.786-1.632-4.451-1.632-3.215 0-6.034 2.736-6.034 6.314 0 3.594 2.836 6.331 6.034 6.331 1.698 0 2.885-.429 4.5-1.681l3.314 4.55c-2.077 1.764-4.797 2.819-7.814 2.819-6.826 0-12.052-5.375-12.052-12.036" fill="#db001a" fill-rule="evenodd" data-name="Path 148"/><path d="M96.514 19.982h-8.309l-1.237 3.627h-6.116L89.788.412h5.193l8.886 23.197H97.75l-1.236-3.627Zm-1.681-4.996L92.64 8.54l-.264-1.055h-.033l-.248 1.055-2.192 6.446h4.93Z" fill="#db001a" fill-rule="evenodd" data-name="Path 149"/><path d="M57.546 84.452c-.448 0-.903-.028-1.353-.083-4.943-.597-8.934-4.624-9.489-9.574-.352-3.148.609-6.175 2.707-8.522a10.925 10.925 0 0 1 8.135-3.646c2.928 0 5.666 1.15 7.737 3.242.06.06.066.158.015.227l-1.593 2.156a.114.114 0 0 1-.177.007 7.966 7.966 0 0 0-5.982-2.711c-2.19 0-4.234.871-5.757 2.454a7.929 7.929 0 0 0-2.228 5.853c.164 4.232 3.75 7.675 7.992 7.675l.22-.003a7.938 7.938 0 0 0 6.063-3.073.113.113 0 0 1 .182.002l1.6 2.205a.176.176 0 0 1-.013.22 10.91 10.91 0 0 1-8.06 3.57" fill="#184833" fill-rule="evenodd" data-name="Path 150"/><path d="M57.549 89.628c-.769 0-1.55-.055-2.322-.165-7.229-1.026-12.971-7.049-13.655-14.322-.43-4.582 1.027-8.968 4.107-12.348a16.078 16.078 0 0 1 11.861-5.257l.297.003a15.966 15.966 0 0 1 10.731 4.398c.064.061.073.163.018.234l-1.584 2.063a.167.167 0 0 1-.252.016 13.012 13.012 0 0 0-8.966-3.79l-.243-.003a13.152 13.152 0 0 0-9.702 4.299c-2.518 2.764-3.711 6.35-3.359 10.096.553 5.902 5.207 10.824 11.066 11.705.665.1 1.34.15 2 .15 3.45 0 6.69-1.332 9.163-3.758a.168.168 0 0 1 .257.023l1.5 2.147c.048.071.037.17-.026.23a15.96 15.96 0 0 1-10.891 4.28" fill="#899c3a" fill-rule="evenodd" data-name="Path 151"/><path d="M57.546 99.853c-.431 0-.865-.011-1.3-.032-13.3-.643-24.026-11.137-24.948-24.41-.513-7.375 1.976-14.41 7.01-19.806 4.967-5.325 11.979-8.379 19.238-8.379a26.29 26.29 0 0 1 16.92 6.187c.071.058.083.163.029.236l-1.533 2.075a.169.169 0 0 1-.246.027 23.354 23.354 0 0 0-15.17-5.604c-6.456 0-12.692 2.718-17.108 7.455-4.476 4.801-6.687 11.058-6.225 17.62.802 11.407 10 20.706 21.394 21.63a23.326 23.326 0 0 0 17.358-5.741.168.168 0 0 1 .248.027l1.519 2.096a.175.175 0 0 1-.027.234 26.27 26.27 0 0 1-17.16 6.385" fill="#ffc000" fill-rule="evenodd" data-name="Path 152"/><path d="M57.546 94.719c-.556 0-1.121-.022-1.68-.066-10.361-.803-18.722-9.23-19.447-19.6-.415-5.939 1.589-11.602 5.64-15.946 3.998-4.288 9.643-6.748 15.487-6.748 5.101 0 10.016 1.84 13.87 5.187.068.06.08.163.025.236l-1.54 2.083a.169.169 0 0 1-.248.026 18.191 18.191 0 0 0-12.107-4.61c-5.181 0-10.14 2.222-13.607 6.096-3.51 3.924-5.121 8.983-4.535 14.245.96 8.622 7.943 15.399 16.603 16.112.512.042 1.03.064 1.539.064 4.614 0 9-1.724 12.388-4.86a.168.168 0 0 1 .252.024l1.52 2.097a.176.176 0 0 1-.025.232 21.101 21.101 0 0 1-14.135 5.428" fill="#6ec1ce" fill-rule="evenodd" data-name="Path 153"/><path d="m77.736 97.377-1.501-2.07a.169.169 0 0 0-.247-.03 28.491 28.491 0 0 1-20.739 6.697c-13.87-1.093-25.11-12.38-26.147-26.253-.6-8.026 2.076-15.686 7.537-21.57 5.39-5.807 13.01-9.137 20.906-9.137a28.514 28.514 0 0 1 18.224 6.605c.075.063.187.05.244-.03l1.52-2.088a.174.174 0 0 0-.03-.237 31.46 31.46 0 0 0-22.772-7.049c-15.13 1.326-27.4 13.75-28.54 28.901-.516 6.843 1.139 13.443 4.695 19.086l-5.093 14.837a.173.173 0 0 0 .22.22l14.84-5.095c4.967 3.113 10.758 4.823 16.692 4.823a31.303 31.303 0 0 0 20.162-7.374.175.175 0 0 0 .029-.236" fill="#db001a" fill-rule="evenodd" data-name="Path 154"/></g><defs><clipPath id="a"><path d="M0 0h103.867v143.802H0V0z" data-name="Rectangle 59"/></clipPath></defs></svg>