<svg xmlns="http://www.w3.org/2000/svg" width="941.433" height="1411.731" viewBox="-528.433 99.5 941.433 1411.731"><g data-name="Group 43"><g data-name="Group 14" transform="rotate(95 127.874 275.028)" clip-path="url(&quot;#a&quot;)"><path d="m865.803 607.612-7.53-11.638c9.253-5.988 13.944-15.274 13.944-27.605 0-.127-.005-.1 0-.181-.03-1.2-1.028-22.299-30.715-63.656-.42-.563-1.51-2.049-3.145-4.299-9.92-13.568-37.196-64.034-44.136-133.621-.376-2.522-3.321-24.007.742-54.335 3.904-29.14 15.335-72.305 47.618-112.454.86-1.07 2.585-3.543 4.77-6.674 10.041-14.397 33.56-48.11 69.816-84.264 45.19-45.068 95.095-79.235 148.326-101.552 3.684-1.55 8.023-3.34 12.814-4.929.173-.057.35-.108.527-.15l.308-.09c14.548-4.168 23.973-1.539 29.317 1.4l-6.68 12.145c-3.06-1.682-8.811-3.087-18.821-.218l-.473.132c-4.612 1.54-8.993 3.384-11.624 4.49-51.576 21.624-99.992 54.793-143.906 98.587-35.382 35.284-58.404 68.287-68.236 82.38-2.518 3.609-4.18 5.992-5.337 7.43-30.147 37.494-40.9 77.857-44.614 105.114-4.051 29.733-.856 50.834-.822 51.044.02.129.038.265.051.393 7.831 78.97 41.225 126.548 41.56 127.008 1.651 2.268 2.722 3.73 3.095 4.23l.074.102c32.654 45.471 33.418 68.873 33.352 72.054-.029 21.536-11.038 33.18-20.275 39.157" fill="#184833" fill-rule="evenodd" data-name="Path 28"/><path d="m886.202 594.735-7.495-11.66c9.328-5.996 14.059-15.307 14.059-27.676 0-.205-.007-.222.008-.388 0-1.23-.483-22.129-29.992-63.473l-.886-1.23c-.597-.828-1.39-1.931-2.365-3.278-5.632-7.736-36.577-65.302-38.11-133.978-.207-2.572-1.493-21.936 4.005-49.483 5.317-26.641 18.299-66.362 49.944-104.304 1.554-1.862 3.863-4.898 6.786-8.744 12.346-16.242 35.328-46.473 69.701-79.034 42.266-40.036 88.42-70.841 137.178-91.557l.45-.193c2.742-1.168 6.887-2.933 11.668-4.433.14-.044.283-.083.427-.118.14-.036.337-.09.583-.158 4.517-1.237 18.267-5.001 28.325 2.288l-8.135 11.224c-2.13-1.545-6.733-2.824-16.532-.142-.266.074-.498.137-.692.186-4.06 1.286-7.755 2.86-10.211 3.906l-.461.196c-47.235 20.07-92.005 49.968-133.068 88.866-33.553 31.783-56.09 61.431-68.198 77.359-3.03 3.983-5.422 7.13-7.175 9.234-29.63 35.522-41.854 72.69-46.893 97.616-5.486 27.146-3.892 46.112-3.875 46.3.014.156.024.32.025.474 1.397 65.068 31.043 120.264 35.469 126.345 1 1.376 1.806 2.497 2.412 3.341l.875 1.215c32.243 45.173 32.745 68.51 32.598 72.138-.06 21.55-11.132 33.19-20.425 39.161" fill="#899c3a" fill-rule="evenodd" data-name="Path 29"/><path d="m906.58 581.866-7.439-11.698c9.395-5.974 14.158-15.308 14.158-27.742 0-.274-.007-.324.022-.57.322-7.102-5.364-29.334-29.255-63.288a311.306 311.306 0 0 0-3.372-4.728c-4.187-5.775-34.514-66.637-32.037-134.329-.009-4.808.935-73.306 59.513-140.802 2.083-2.4 4.75-5.638 7.836-9.388 27.517-33.404 91.954-111.633 196.573-156.79l.564-.246c2.154-.94 6.16-2.69 10.856-4.082.107-.03.215-.06.322-.086l.503-.126c4.302-1.086 17.39-4.39 27 2.638l-8.18 11.191c-2.889-2.113-8.08-2.243-15.428-.39l-.417.105c-3.814 1.14-7.123 2.586-9.108 3.452l-.61.266c-101.55 43.833-164.497 120.25-191.375 152.882-3.148 3.82-5.866 7.121-8.065 9.657-56.055 64.59-56.128 131.106-56.121 131.77.001.107 0 .214-.006.32-1.225 32.834 6.093 64.012 12.445 84.388 7.407 23.75 15.454 39.36 16.951 41.423a325.844 325.844 0 0 1 3.502 4.912c31.672 45.012 31.97 68.134 31.75 72.06-.083 21.628-11.228 33.252-20.583 39.2" fill="#6ec1ce" fill-rule="evenodd" data-name="Path 30"/><path d="m926.977 568.996-7.401-11.721c9.47-5.98 14.27-15.335 14.27-27.81 0-.344-.008-.44.038-.756.483-7.013-4.845-29.079-28.515-63.1a285.18 285.18 0 0 0-3.51-4.992c-3.27-4.508-35.658-72.97-25.9-134.961.23-2.123 2.1-17.3 10.482-39.626 8.092-21.56 24.121-54.307 54.524-87.89 2.043-2.257 4.313-4.81 6.81-7.62 29.581-33.263 91.135-102.48 188.323-145.376l.548-.244c1.805-.811 5.563-2.499 10.2-3.792.071-.02.14-.037.212-.055 4.125-1.012 16.688-4.09 26.107 2.899l-8.258 11.133c-2.765-2.054-7.624-2.252-14.444-.595-3.586 1.01-6.655 2.387-8.136 3.053l-.654.291c-94.409 41.67-154.609 109.367-183.538 141.899a1217.073 1217.073 0 0 1-6.894 7.71c-55.034 60.79-61.452 119.21-61.512 119.793a8.153 8.153 0 0 1-.052.407c-8.82 55.566 19.833 119.229 23.47 124.928 1.22 1.696 2.4 3.375 3.622 5.15 31.207 44.859 31.254 67.838 30.937 72.057-.106 21.652-11.318 33.276-20.73 39.218" fill="#ffc000" fill-rule="evenodd" data-name="Path 31"/><path d="m947.376 556.12-7.362-11.746c9.54-5.977 14.38-15.356 14.38-27.879 0-.412-.009-.554.06-.935.633-6.916-4.349-28.812-27.782-62.923a256.62 256.62 0 0 0-3.648-5.211c-.415-.578-39.453-66.184-19.65-135.694.959-3.92 14.274-54.954 70.41-114.17l.912-.962c32.034-33.794 91.66-96.698 184.918-138.849l.222-.103c1.249-.588 5.05-2.382 9.847-3.634.038-.01.073-.019.11-.027 12.72-3.1 20.47.083 24.734 3.302l-8.35 11.064c-2.673-2.017-7.182-2.332-13.046-.914-3.527.927-6.425 2.294-7.382 2.745a21.22 21.22 0 0 1-.447.209c-90.758 41.02-149.167 102.64-180.545 135.742l-.913.965c-28.432 29.99-45.138 57.754-54.148 75.763-9.766 19.522-12.846 32.115-12.877 32.239-.023.096-.05.205-.077.3-17.792 62.205 16.463 122.105 17.613 124.038a274.5 274.5 0 0 1 3.746 5.354c30.765 44.782 30.569 67.61 30.154 72.089-.134 21.687-11.411 33.306-20.88 39.238m-13.108-116.804.027.039-.027-.04" fill="#db001a" fill-rule="evenodd" data-name="Path 32"/><path d="M638.55 827.38h-.005l.007-6.932-.048-6.93c.454-.006 11.24-.275 21.312-9.51.114-.103.23-.203.35-.3.557-.472 25.88-22.579 80.322-135.454 27.925-58.006 42.898-109.548 57.377-159.394 11.257-38.751 21.889-75.353 38.015-114.064.837-2.135 8.427-20.015 30.121-26.514l3.978 13.28c-15.787 4.729-20.972 17.719-21.185 18.27-.032.088-.05.128-.085.215-15.847 38.021-26.38 74.287-37.533 112.682-14.637 50.39-29.772 102.494-58.2 161.543-54.443 112.875-80.708 137.347-83.909 140.06-14.139 12.885-29.79 13.048-30.517 13.048" fill="#db001a" fill-rule="evenodd" data-name="Path 33"/><path d="M608.046 823.076c-.97 0-1.611-.06-1.876-.091l1.612-13.768-.14-.014c.367.036 9.153.561 20.695-9.628.09-.08.18-.156.274-.23.24-.199 29.16-24.75 83.87-136.623 27.43-56.247 41.724-103.473 55.55-149.145 10.321-34.097 20.994-69.355 36.976-107.71.025-.06.05-.12.078-.182.357-.793 8.99-19.494 29.867-26.202l4.24 13.197c-14.382 4.62-20.997 17.727-21.444 18.649-15.684 37.66-26.241 72.536-36.45 106.264-13.982 46.193-28.441 93.96-56.362 151.212-55.04 112.548-84.707 138.904-87.518 141.242-13.319 11.718-24.869 13.03-29.372 13.03" fill="#ffc000" fill-rule="evenodd" data-name="Path 34"/><path d="M576.754 818.76c-1.338 0-2.2-.123-2.508-.175l2.327-13.665s-.073-.017-.215-.032c.08.015 8.195.708 20.517-9.747.044-.037.088-.075.136-.112.293-.242 32.89-27.832 87.456-137.842 27.029-54.693 40.064-95.775 53.864-139.267 9.844-31.02 20.02-63.092 35.736-100.802.837-2.136 8.418-20 30.106-26.51l3.985 13.276c-15.787 4.74-20.963 17.716-21.175 18.266-.034.09-.05.132-.087.219-15.5 37.183-25.592 68.988-35.35 99.743-13.965 44.009-27.155 85.578-54.657 141.225-55.537 111.965-88.794 140.524-91.098 142.419-13.558 11.483-24.298 13.003-29.037 13.003" fill="#6ec1ce" fill-rule="evenodd" data-name="Path 35"/><path d="M545.311 814.42c-1.335 0-2.206-.112-2.526-.16l2.101-13.7-.16-.025c.353.04 8.874.787 20.42-9.608.085-.076.172-.15.261-.224.343-.282 36.672-31.015 91.055-139.053 26.847-53.545 39.299-90.75 52.482-130.137 9.31-27.816 18.937-56.58 34.208-93.231.843-2.153 8.427-20.011 30.105-26.517l3.986 13.278c-15.79 4.737-20.964 17.722-21.176 18.271-.034.09-.05.132-.088.22-15.098 36.23-24.652 64.773-33.89 92.378-13.343 39.868-25.947 77.525-53.24 131.961-54.84 108.943-91.514 140.93-94.538 143.454-12.93 11.592-24.091 13.093-29 13.093" fill="#899c3a" fill-rule="evenodd" data-name="Path 36"/><path d="M513.74 809.817h-.007l.012-13.861h-.113c.084-.002 8.627-.388 20.199-9.6 1.113-.942 40.966-35.23 94.617-140.238 27.058-53.138 38.456-85.172 51.65-122.265 8.28-23.27 17.664-49.646 32.147-84.404.838-2.14 8.417-20.008 30.105-26.519l3.985 13.276c-15.787 4.741-20.961 17.723-21.175 18.273a3.51 3.51 0 0 1-.086.22c-14.363 34.459-23.688 60.673-31.916 83.8-13.356 37.545-24.892 69.972-52.362 123.917-55.74 109.098-96.486 143.27-98.192 144.672l-.075.06c-15.42 12.303-27.433 12.669-28.789 12.669" fill="#184833" fill-rule="evenodd" data-name="Path 37"/><path d="M98.484 620.988c-.324-2.478-.119-5.728-.048-6.665.134-2.775 1.805-15.892 20.8-33.418 2.007-1.994 24.204-23.515 68.176-45.564 41.413-20.766 110.906-45.912 206.801-47.786h.114c.627-.005 65.794-.053 150.893 13.432 49.997 7.923 97.047 18.9 139.845 32.629 53.482 17.156 100.46 38.69 139.646 64.008 2.345 1.063 19.654 8.334 33.283-1.459l8.09 11.256c-21.47 15.431-46.796 3.004-47.864 2.465a6.594 6.594 0 0 1-.655-.375c-47.837-30.981-134.252-72.574-274.268-94.793-82.805-13.141-146.41-13.302-148.86-13.302h-.017c-93.266 1.831-160.671 26.197-200.793 46.317-43.176 21.65-64.463 42.846-64.673 43.056-.073.075-.15.148-.225.22-14.685 13.513-16.291 22.716-16.435 23.84.012.196-.005.143-.029.437-.086 1.09-.147 3.06-.037 3.905l-13.744 1.797Z" fill="#184833" fill-rule="evenodd" data-name="Path 38"/><path d="M933.501 560.187c-10.503 0-19.77-6.287-24.296-10.99-38.018-36.709-89.561-68.289-153.2-93.857-51.22-20.58-110.305-37.317-175.617-49.75-111.452-21.215-203.524-22.513-204.44-22.523-91.416-.915-157.16 24.202-196.274 45.425-42.41 23.01-63.502 46.556-63.71 46.791-.156.176-.327.35-.5.512-14.47 13.327-16.252 21.934-16.433 23.12.034.524-.029.644-.149 1.235-.24 1.266-.232 3.138.024 3.74l-12.736 5.472c-1.886-4.392-1.3-9.488-.978-11.392.27-3.655 2.628-15.473 20.631-32.141 2.691-2.979 24.317-26.114 66.593-49.168 40.647-22.167 108.975-48.39 203.678-47.455.94.01 94.037 1.308 206.651 22.722 66.231 12.595 126.221 29.585 178.305 50.5 65.418 26.271 118.538 58.87 157.882 96.894.07.068.14.136.205.207.419.43 10.918 11.06 20.89 4.84l7.337 11.759c-4.663 2.91-9.376 4.06-13.863 4.06" fill="#db001a" fill-rule="evenodd" data-name="Path 39"/><path d="M863.33 601.857c-12.684 0-21.54-6.374-22.967-7.469-38.132-27.715-85.455-51.404-140.658-70.411-44.368-15.277-93.877-27.571-147.147-36.54-90.018-15.16-160.735-15.597-162.764-15.605-92.514 1.144-159.37 25.565-199.175 45.852-43.147 21.992-64.703 44.011-64.915 44.231a7.746 7.746 0 0 1-.293.285c-14.472 13.327-16.25 21.941-16.431 23.125.032.493-.025.588-.132 1.153-.097.557-.171 1.74-.032 2.383l-13.553 2.91c-.647-3.013-.327-6.02-.127-7.327.247-3.586 2.54-15.496 20.745-32.311 2.226-2.27 24.286-24.181 67.785-46.461 41.222-21.114 110.425-46.529 206.017-47.7.032-.003.06-.001.095-.001.718.002 72.873.29 164.837 15.755 54.058 9.09 104.346 21.572 149.468 37.098 56.605 19.476 105.227 43.842 144.52 72.418.087.064.174.13.259.198.496.383 13.42 10.113 29.863-.376l7.457 11.683c-8.334 5.319-16.132 7.11-22.853 7.11" fill="#899c3a" fill-rule="evenodd" data-name="Path 40"/><path d="M888.864 586.915c-12.978 0-24.062-6.588-24.727-6.99a7.132 7.132 0 0 1-.76-.533c-38.103-30.745-86.86-57.087-144.918-78.298-46.65-17.043-99.35-30.82-156.632-40.944-97.738-17.273-175.9-17.907-176.678-17.912-92.076.452-158.597 25.11-198.176 45.713-42.901 22.334-64.302 44.863-64.513 45.089-.116.122-.24.247-.365.362-14.85 13.668-16.324 22.856-16.438 23.79.02.845.163 2.941.653 4.617l-13.305 3.883c-1.178-4.032-1.212-8.2-1.212-8.663 0-1.487.583-15.035 20.736-33.66 2.406-2.525 24.32-24.84 67.387-47.37 41.03-21.467 109.944-47.155 205.236-47.622.86.003 79.996.632 178.846 18.081 58.119 10.26 111.643 24.245 159.088 41.57 59.33 21.661 109.31 48.654 148.564 80.23 2.363 1.302 16.907 8.798 27.429 1.951l7.563 11.616c-5.796 3.773-11.977 5.09-17.778 5.09m-783.21-29.886.002.092c0-.061-.002-.092-.002-.092" fill="#6ec1ce" fill-rule="evenodd" data-name="Path 41"/><path d="M910.803 573.797c-10.501 0-19.82-5.333-24.474-9.452-38.065-33.75-88.227-62.728-149.102-86.129-48.935-18.812-104.822-34.067-166.122-45.348-104.593-19.245-189.713-20.21-190.56-20.218l-1.231-.001c-91.078 0-156.82 24.753-195.99 45.574-42.656 22.672-63.9 45.709-64.11 45.94-.136.15-.287.3-.436.436-14.77 13.597-16.302 23.065-16.433 24.161.012.26-.008.254-.042.59-.127 1.302-.097 3.109.06 3.702l-13.213 4.186c-1.057-3.31-.8-7.533-.66-9.064.153-2.948 1.927-16.216 20.686-33.574 2.564-2.762 24.334-25.482 66.99-48.269 40.654-21.719 108.859-47.543 203.19-47.543.429 0 .839 0 1.269.002.901.006 87.019.969 192.75 20.404 62.178 11.426 118.936 26.915 168.7 46.035 62.486 24.008 114.111 53.865 153.447 88.742.478.413 12.594 10.713 23.991 3.344l7.526 11.642c-5.414 3.5-10.973 4.84-16.236 4.84" fill="#ffc000" fill-rule="evenodd" data-name="Path 42"/><path d="M1026.948 445.836c-11.497.002-25.12-3.607-40.786-10.823-21.613-9.955-39.252-23.259-39.99-23.82-.035-.025-.068-.052-.102-.078-24.467-19.275-43.969-26.266-56.018-28.735-12.872-2.64-20.156-.801-20.229-.782l-3.742-13.346c1.435-.41 35.763-9.597 88.508 31.927.954.716 17.771 13.244 37.557 22.329 17.287 7.936 40.461 14.908 52.685 3.051l9.651 9.95c-7.097 6.885-16.304 10.327-27.534 10.327" fill="#db001a" fill-rule="evenodd" data-name="Path 43"/><path d="M1004.812 467.52c-15.01.002-31.06-6.04-44.177-12.687-22.58-11.44-40.756-26.471-41.52-27.105-.05-.042-.1-.087-.15-.13-14.363-12.662-36.252-28.854-58.97-34.091-13.307-3.069-20.7-.86-20.774-.837l.095-.03-4.486-13.116c1.485-.51 37.045-11.877 93.223 37.608 18.884 15.657 72.635 51.36 95.58 29.83l9.486 10.108c-8.06 7.563-17.936 10.448-28.307 10.45" fill="#ffc000" fill-rule="evenodd" data-name="Path 44"/><path d="M982.614 489.373c-39.841.005-87.963-42.798-90.514-45.094a7.104 7.104 0 0 1-.283-.27c-14.09-14.195-36.038-32.431-60.59-38.695-14.437-3.682-23.088-1.423-23.172-1.4l-3.846-13.316c1.71-.505 42.445-11.68 97.304 43.504 19.57 17.542 75.416 57.545 100.895 34.272l9.35 10.235c-8.437 7.704-18.497 10.762-29.144 10.764" fill="#6ec1ce" fill-rule="evenodd" data-name="Path 45"/><path d="M960.256 511.246c-42.301.003-92.503-47.86-95.144-50.41-.048-.046-.094-.09-.14-.137-53.762-54.89-87.318-45.78-87.653-45.678l.098-.032-4.334-13.167c1.657-.544 41.212-12.626 101.713 49.097 1.19 1.134 19.611 18.554 42.083 31.719 19.918 11.67 47.24 22.382 64.308 7.15l9.23 10.344c-8.896 7.939-19.268 11.112-30.161 11.114" fill="#899c3a" fill-rule="evenodd" data-name="Path 46"/><path d="M937.846 533.131c-44.769.002-96.98-52.914-99.71-55.715a6.728 6.728 0 0 1-.424-.48c-50.53-62.486-90.921-50.874-91.317-50.747l-4.104-13.24c2.004-.622 49.702-14.405 105.981 55.003 2.16 2.174 20.725 20.586 43.46 34.718 30.253 18.803 53.204 21.683 68.217 8.55l9.126 10.434c-9.356 8.184-20.062 11.477-31.23 11.477" fill="#184833" fill-rule="evenodd" data-name="Path 47"/><path d="m1054.484 435.508-9.653-9.949c23.195-22.502 24.56-68.08 21.621-102.353-3.53-41.173-13.966-76.794-14.07-77.136-3.91-12.812-9.331-25.628-16.571-39.174-22.172-41.637-50.866-70.71-85.296-86.422-27.362-12.487-50.608-12.93-60.535-13.117-.996-.019-1.858-.036-2.582-.061-.437-.004-.876-.005-1.308-.005-50.547 0-72.939 20.543-73.163 20.751l-9.504-10.087c1.072-1.01 26.683-24.525 82.67-24.525.5 0 .997.001 1.5.005l.197.005c.679.024 1.5.039 2.453.058 10.787.205 36.05.684 66.028 14.365 37.264 17.008 68.139 48.13 91.771 92.509 7.663 14.34 13.422 27.969 17.6 41.657.109.36 10.912 36.725 14.62 79.992 4.648 54.2-4.025 92.383-25.778 113.487" fill="#db001a" fill-rule="evenodd" data-name="Path 48"/><path d="m1033.13 457.058-9.508-10.086c23.47-22.124 25.382-66.406 22.855-99.658-3.196-42.003-14.209-79.51-14.676-81.086-5.593-18.88-12.416-32.886-15.984-39.553-22.816-43.024-53.082-72.229-89.974-86.825-28.679-11.348-52.47-9.95-59.217-8.455-49.703 10.995-75.992 25.94-76.253 26.09l-6.943-11.997c1.125-.652 28.178-16.119 80.2-27.627 9.824-2.177 36.538-3.078 67.313 9.099 39.48 15.621 73.06 47.848 97.106 93.197 3.806 7.11 11.1 22.074 17.042 42.134 1.213 4.093 11.956 41.247 15.206 83.972 4.012 52.745-5.129 90.021-27.166 110.795" fill="#ffc000" fill-rule="evenodd" data-name="Path 49"/><path d="m1011.78 478.589-9.392-10.196c23.62-21.757 26.071-64.743 23.967-96.973-2.631-40.326-13.053-77.9-15.115-85.023-6.617-22.822-14.015-37.293-15.431-39.961-22.714-42.76-52.3-71.235-87.934-84.628-32.56-12.24-58.725-7.286-63.637-6.17-38.772 8.816-65.68 23.418-74.495 29.905l-8.247-11.138c1.123-.835 28.123-20.562 79.668-32.281 16.188-3.68 43.493-3.852 71.59 6.709 38.888 14.617 70.95 45.268 95.3 91.104 4.423 8.34 11.078 23.91 16.5 42.602 2.996 10.349 12.977 47.27 15.633 87.98 3.347 51.265-6.211 87.625-28.408 108.07" fill="#6ec1ce" fill-rule="evenodd" data-name="Path 50"/><path d="m990.426 500.121-9.247-10.325c46.693-41.82 16.09-159.956 9.482-183.215-6.172-21.763-12.818-36.513-14.86-40.36-22.636-42.695-51.577-70.655-86.024-83.102-31.636-11.432-57.799-6.132-67.58-3.325-36.254 10.408-64.037 26.907-73.663 34.18l-8.371-11.05c1.213-.92 30.255-22.686 78.208-36.454 11.08-3.18 40.673-9.196 76.116 3.613 37.784 13.654 69.262 43.814 93.56 89.643 2.776 5.232 9.683 20.97 15.95 43.07 9.837 34.625 37.937 151.193-13.57 197.325" fill="#899c3a" fill-rule="evenodd" data-name="Path 51"/><path d="m969.085 521.646-9.144-10.419c19.511-17.127 28.383-48.01 26.366-91.788-1.248-27.073-6.85-59.122-16.199-92.679-6.106-21.873-12.71-37.76-14.3-40.774-22.515-42.585-50.823-70.03-84.131-81.565-30.73-10.642-58.097-4.844-71.678-.442-43.38 14.067-72.175 38.02-72.462 38.26l-8.934-10.598c1.247-1.05 31.03-25.9 77.119-40.847 15.23-4.94 45.939-11.438 80.49.528 36.734 12.723 67.638 42.393 91.855 88.191 2.161 4.102 9.034 20.742 15.392 43.523 15.55 55.813 34.362 155.829-14.374 198.61" fill="#184833" fill-rule="evenodd" data-name="Path 52"/><path d="M1335.5 659.142c-63.883-57.1-111.626-121.013-141.907-189.967-24.262-55.252-37.415-113.814-39.089-174.054-2.834-101.967 27.812-172.653 29.488-176.436 8.856-20.92 8.88-33.652 7.34-40.653-1.526-6.928-4.765-9.395-4.902-9.496.118.086.186.123.186.123l7.47-11.675c.73.468 7.216 4.881 10.276 16.018 3.665 13.34 1.098 30.548-7.63 51.145-.016.04-.033.078-.05.117-.312.7-31.212 71.5-28.303 171.11 1.703 58.358 14.513 115.09 38.076 168.612 29.482 66.977 76.007 129.16 138.282 184.821l-9.237 10.335Z" fill="#db001a" fill-rule="evenodd" data-name="Path 53"/><path d="M1335.058 697.787c-74.624-62.887-130.149-133.134-165.036-208.79-27.967-60.656-42.792-124.868-44.061-190.85-2.135-110.976 34.346-187.886 36.791-192.906 16.331-37.686 2.143-50.165 1.998-50.287.088.075.139.109.139.109l8.317-11.09c.964.722 23.354 18.258 2.197 66.935a9.2 9.2 0 0 1-.137.297c-.376.764-37.688 78.159-35.434 187.332 1.321 63.97 15.775 126.23 42.96 185.052 34.038 73.643 88.272 142.143 161.198 203.599l-8.932 10.6Z" fill="#ffc000" fill-rule="evenodd" data-name="Path 54"/><path d="M1334.597 736.403c-85.362-68.673-148.665-145.25-188.158-227.607-31.67-66.048-48.168-135.9-49.032-207.614-.77-63.785 11.238-117.259 21.446-150.885 10.545-34.731 21.168-55.644 22.61-58.416 8.641-20.48 8.636-33.182 7.103-40.24-1.539-7.086-4.8-9.728-4.94-9.836.108.083.167.118.167.118l7.884-11.4c.706.49 6.987 5.094 9.962 16.224 3.597 13.456 1.066 30.55-7.524 50.805a7.285 7.285 0 0 1-.258.544c-.44.832-44.179 84.83-42.58 203.585.934 69.595 17.035 137.397 47.854 201.526 38.601 80.32 100.56 155.144 184.154 222.395l-8.688 10.801Z" fill="#6ec1ce" fill-rule="evenodd" data-name="Path 55"/><path d="M1334.102 774.987c-96.085-74.457-167.16-157.36-211.247-246.41-35.367-71.435-53.533-146.918-53.992-224.354-.408-68.875 13.568-126.563 25.367-162.83 12.372-38.036 24.726-60.669 26.063-63.071 18.08-36.815 2.243-49.658 2.079-49.777l8.117-11.234c1.064.767 25.779 19.374 2.159 67.3-.058.117-.117.23-.181.342-.126.222-12.833 22.982-25.252 61.332-11.442 35.326-24.976 91.505-24.486 158.53.549 75.225 18.297 148.578 52.75 218.02 43.164 86.998 112.846 168.15 207.113 241.195l-8.49 10.957Z" fill="#899c3a" fill-rule="evenodd" data-name="Path 56"/><path d="M1333.6 813.566c-106.809-80.241-185.651-169.473-234.335-265.215-39.06-76.814-58.891-157.923-58.946-241.075-.049-73.96 15.896-135.86 29.283-174.762 13.634-39.626 27.154-63.634 29.294-67.328 16.148-39.851 2.745-49.553 2.606-49.648.149.102.235.14.235.14l6.784-12.086c2.54 1.425 24.208 15.425 3.025 67.285a6.887 6.887 0 0 1-.456.915c-.142.239-14.48 24.66-28.59 65.84-12.998 37.932-28.462 98.272-28.32 170.315.161 80.861 19.558 159.77 57.65 234.533 47.732 93.682 125.149 181.16 230.096 260.004l-8.325 11.082Z" fill="#184833" fill-rule="evenodd" data-name="Path 57"/><path d="m793.628 238.476-9.19-10.376s-.06.046-.157.144c.186-.188 4.562-4.774 2.343-15.787-.956-4.781-3.308-9.764-7.19-15.24-2.534-3.579-5.599-8.353-6.844-13.57-1.645-6.902-.647-16.93.974-23.323 2.611-10.281 8.726-14.192 9.925-14.87l6.832 12.06s.09-.04.24-.144c-.096.067-2.372 1.683-3.561 6.363-1.418 5.59-1.825 12.927-.927 16.698.542 2.27 1.982 4.975 4.673 8.773 5.027 7.093 8.124 13.805 9.47 20.523 3.806 18.898-5.512 27.797-6.588 28.749" fill="#ffc000" fill-rule="evenodd" data-name="Path 58"/><path d="m778.803 258.087-9.007-10.536s-.06.045-.161.144c.176-.173 4.275-4.322 2.138-14.1-.921-4.233-3.12-8.158-7.134-12.736-3.126-3.562-5.405-7.018-7.296-9.976-5.024-7.865-4.708-15.615-3.873-21.489 1.421-9.994 7.434-14.566 8.114-15.054l8.082 11.262s.07-.044.191-.145c-.085.07-2.08 1.794-2.665 5.89-.642 4.52-.576 8.303 1.831 12.073 1.691 2.646 3.548 5.465 6.035 8.298 5.573 6.354 8.831 12.367 10.26 18.924 3.911 17.918-5.436 26.524-6.515 27.445" fill="#6ec1ce" fill-rule="evenodd" data-name="Path 59"/><path d="m763.97 277.712-8.81-10.703s-.06.045-.16.14c.408-.385 3.936-4.01 1.938-12.382-.61-2.562-1.91-5.776-6.914-10.207-1.325-1.169-2.523-2.374-3.579-3.436-1.32-1.326-2.46-2.473-3.605-3.343-8.615-6.548-9.347-12.153-9.386-18.28l-.007-.713c-.117-10.382 6.02-15.335 6.721-15.865l8.37 11.049s.101-.061.254-.207c-.156.147-1.521 1.538-1.484 4.867l.007.782c.022 3.537.027 4.378 3.913 7.33 1.908 1.451 3.504 3.056 5.048 4.608.994 1 1.933 1.945 2.927 2.82 6.205 5.493 9.663 10.85 11.218 17.379 3.284 13.756-2.51 22.917-6.452 26.161" fill="#899c3a" fill-rule="evenodd" data-name="Path 60"/><path d="m749.109 297.332-8.584-10.884s-.06.042-.162.134c.374-.339 3.599-3.507 1.735-10.644-.675-2.588-1.993-4.769-6.478-7.656-.657-.424-1.304-.856-1.953-1.29-1.893-1.263-3.68-2.456-5.537-3.256-9.74-4.195-13.414-8.14-14.557-15.642-1.363-8.8 3.65-14.979 4.225-15.655l10.547 8.995.095-.115c-.064.083-1.569 2.065-1.166 4.67.272 1.785.373 2.448 6.339 5.016 3.017 1.3 5.532 2.979 7.751 4.46.586.391 1.17.78 1.762 1.162 6.869 4.422 10.688 9.3 12.384 15.813 3.393 12.986-2.426 21.758-6.401 24.892" fill="#184833" fill-rule="evenodd" data-name="Path 61"/><path d="m808.468 218.853-9.38-10.203s-.059.046-.154.147c.195-.207 4.814-5.223 2.545-17.487-1.018-5.442-3.348-11.228-7.128-17.678-3.485-5.93-4.896-11.589-5.652-15.328-2.399-11.71 1.964-21.558 5.454-27.946 4-7.34 9.027-12.173 9.239-12.375l9.583 10.015c-.037.036-3.73 3.636-6.655 9-2.821 5.161-5.502 11.394-4.038 18.54.903 4.467 2.145 7.88 4.026 11.08 4.603 7.861 7.482 15.106 8.798 22.158 3.685 19.913-5.57 29.096-6.638 30.077" fill="#db001a" fill-rule="evenodd" data-name="Path 62"/><path d="M513.716 809.817c-5.752 0-10.287-3.189-11.138-3.831a6.619 6.619 0 0 1-.567-.474c-18.409-17.196-30.25-41.842-35.2-73.26-3.867-24.557-3.55-53.343.94-85.56 7.373-52.912 23.326-96.852 24.87-101.023 16.312-56.867 22.252-108.358 17.663-153.05-3.648-35.5-13.92-66.808-30.533-93.054-22.619-35.736-53.141-54.67-66.121-59.69a6.828 6.828 0 0 1-.307-.127c-43.153-18.994-90.829-21.886-141.703-8.593-41.134 10.749-84.462 32.015-128.781 63.212C66.997 347.754 14.199 412.3 13.673 412.945l-10.759-8.739c.536-.66 54.551-66.694 131.946-121.172 45.678-32.156 90.512-54.122 133.256-65.291 53.922-14.086 104.603-10.974 150.652 9.258 3.376 1.326 42.105 17.344 72.18 64.342 17.962 28.066 29.08 61.426 33.05 99.153 4.914 46.698-1.183 100.278-18.128 159.253a7.27 7.27 0 0 1-.17.513c-.662 1.774-65.373 177.855 5.407 244.777.636.392 1.798.917 2.608.917h.006l.036 13.86h-.04Z" fill="#184833" fill-rule="evenodd" data-name="Path 63"/><path d="M542.812 814.264c-5.325-.794-8.739-3.834-9.796-4.903-18.996-17.809-31.233-43.313-36.368-75.806-4.027-25.479-3.719-55.35.913-88.784 7.618-54.976 24.152-100.617 25.726-104.883 17.167-60.039 22.826-114.564 16.82-162.067-4.777-37.766-16.906-71.211-36.052-99.41-32.637-48.071-75.058-64.604-75.482-64.765a8.907 8.907 0 0 1-.317-.13c-45.984-20.025-96.259-24.176-149.424-12.335-42.906 9.556-87.816 29.474-133.482 59.199C67.128 311.295 13.265 374.085 12.73 374.714L2.173 365.73c.547-.642 55.508-64.762 135.34-116.788 47.096-30.692 93.57-51.3 138.135-61.252 56.096-12.528 109.253-8.136 157.999 13.054 3.626 1.401 46.986 18.937 81.387 69.161 20.56 30.016 33.596 65.53 38.745 105.55 6.38 49.596.58 106.287-17.236 168.501-.051.174-.107.346-.17.515-.688 1.847-68.008 185.528 6.235 254.882.202.188.182.144.307.295.224.19.967.76 1.945.906l-2.047 13.71Z" fill="#899c3a" fill-rule="evenodd" data-name="Path 64"/><path d="M574.245 818.585c-5.3-.905-9.276-4.473-10.02-5.178-19.684-18.39-32.397-44.83-37.742-78.547-4.185-26.399-3.883-57.353.89-92.007 7.86-57.038 24.975-104.383 26.581-108.746 18.083-63.434 23.427-121.177 15.886-171.624-5.995-40.092-20.107-75.708-41.946-105.86-37.088-51.203-83.92-69.042-84.389-69.216a6.7 6.7 0 0 1-.33-.132c-48.9-21.093-101.874-26.477-157.445-16.008-44.75 8.432-91.316 27.093-138.402 55.466-80.49 48.5-134.994 109.14-135.536 109.747l-10.345-9.225c.556-.624 56.462-62.824 138.728-112.394 48.503-29.226 96.61-48.477 142.988-57.214 58.278-10.981 113.91-5.317 165.352 16.836 3.855 1.465 51.869 20.531 90.606 74.01 23.154 31.967 38.102 69.63 44.427 111.94 7.846 52.485 2.35 112.283-16.336 177.734-.051.172-.107.345-.17.513-.18.485-18.127 49.172-25.97 106.301-4.564 33.26-4.86 62.808-.88 87.824 4.859 30.538 16.142 54.263 33.538 70.51.628.575 1.975 1.458 2.846 1.605l-2.331 13.665Z" fill="#6ec1ce" fill-rule="evenodd" data-name="Path 65"/><path d="M606.241 822.993c-5.713-.608-9.793-4.452-11.028-5.755-20.282-19.039-33.369-46.315-38.897-81.075-4.344-27.319-4.053-59.356.862-95.226 8.1-59.095 25.794-108.14 27.43-112.599 18.877-66.38 23.963-126.98 15.124-180.115-7.038-42.311-22.892-80.048-47.116-112.161-41.382-54.861-93.667-74.695-94.191-74.888a6.805 6.805 0 0 1-.324-.13c-51.767-22.134-107.382-28.774-165.3-19.73-46.565 7.27-94.757 24.626-143.234 51.59-82.82 46.063-138.18 104.755-138.729 105.343l-10.123-9.47c.564-.602 57.416-60.878 142.113-107.986 49.91-27.76 99.65-45.65 147.835-53.174 60.466-9.44 118.582-2.506 172.736 20.616 4.08 1.534 56.76 22.138 99.826 78.88 25.743 33.916 42.598 73.723 50.093 118.318 9.31 55.371 4.11 118.273-15.448 186.956-.05.175-.107.346-.168.514-.188.503-18.739 50.952-26.824 110.154-4.708 34.475-4.995 65.108-.855 91.046 5.059 31.69 16.78 56.311 34.84 73.181.198.187.265.242.441.45.573.607 1.762 1.409 2.405 1.478l-1.468 13.783Z" fill="#ffc000" fill-rule="evenodd" data-name="Path 66"/><path d="M638.551 827.38c-6.655 0-12.588-4.865-13.71-5.839a5.703 5.703 0 0 1-.184-.167c-21.06-19.671-34.547-47.913-40.09-83.946-4.345-28.242-3.842-61.368 1.495-98.46 8.785-61.052 27.458-111.731 29.224-116.436 19.721-69.54 24.52-133.17 14.264-189.117-8.174-44.586-25.89-84.472-52.662-118.547-45.756-58.243-102.964-79.728-103.535-79.938a5.406 5.406 0 0 1-.325-.13c-54.561-23.143-112.738-31.047-172.912-23.485-48.342 6.072-98.12 22.076-147.95 47.565C66.933 202.477 10.45 259.443 9.89 260.014L0 250.3c2.342-2.385 58.36-58.927 145.49-103.575 51.31-26.292 102.674-42.823 152.666-49.134 62.658-7.912 123.264.293 180.133 24.384 4.302 1.601 61.657 23.752 109.058 83.77 28.326 35.864 47.082 77.816 55.75 124.692 10.77 58.253 5.873 124.25-14.557 196.161-.053.19-.115.38-.186.564-.197.52-19.819 52.738-28.605 114.016-5.117 35.692-5.61 67.405-1.464 94.258 5.058 32.759 17.073 58.228 35.716 75.7 1.44 1.2 3.683 2.383 4.55 2.383v13.86Z" fill="#db001a" fill-rule="evenodd" data-name="Path 67"/><path d="M329.254 390.016c-.806-1.048-19.821-26.085-27.257-60.58-6.98-32.38-4.646-79.163 46.049-118.2 1.814-1.48 20.338-16.095 52.968-23.804 30.712-7.26 80.443-9.527 142.927 20.886.728.366 66.49 33.29 115.094 57.31 54.79 27.292 74.529 26.406 81.445 20.857l8.675 10.812c-15.268 12.251-44.962 6.313-96.278-19.253-48.62-24.025-114.414-56.967-115.073-57.297-32.18-15.662-81.414-31.881-132.839-20.004-30.753 7.104-48.014 21.115-48.185 21.256-.06.05-.134.11-.197.158-36.03 27.706-49.868 62.675-41.127 103.93 6.686 31.55 24.615 55.255 24.794 55.49l-10.996 8.44Z" fill="#184833" fill-rule="evenodd" data-name="Path 68"/><path d="M313.535 370.03c-1.466-1.909-35.821-47.385-28.475-101.048 4.255-31.068 21.604-58.236 51.566-80.753 1.816-1.436 22.033-16.945 57.41-25.24 33.204-7.786 86.754-10.412 153.3 21.302.036.015.071.034.107.05.68.34 68.578 34.144 119.549 60.814 40.4 21.312 77.49 30.482 88.215 21.817l8.715 10.781c-5.567 4.498-13.204 6.301-21.858 6.303-28.296.003-67.55-19.261-81.52-26.631-50.206-26.27-116.956-59.517-119.224-60.647-34.526-16.445-87.41-33.332-143.378-20.467-33.51 7.704-52.558 22.663-52.746 22.813l-.171.133c-26.906 20.196-42.454 44.251-46.217 71.499-6.608 47.868 25.402 90.415 25.726 90.839l-11 8.436Z" fill="#899c3a" fill-rule="evenodd" data-name="Path 69"/><path d="M297.803 350.048c-1.448-1.89-35.41-46.916-27.729-100.786 4.602-32.264 23.143-60.537 55.112-84.033 1.793-1.38 23.715-17.799 61.867-26.685 35.699-8.314 93.072-11.296 163.672 21.715.045.02.091.043.137.065.701.347 70.742 35.029 124.064 64.352 43.584 24.137 82.573 33.555 94.828 22.91l9.09 10.466c-9.856 8.56-26.46 9.984-49.347 4.234-18.023-4.529-39.781-13.575-61.268-25.474-52.308-28.765-120.901-62.77-123.446-64.03-36.793-17.194-93.333-34.759-153.862-20.904-36.264 8.3-57.102 24.197-57.31 24.357-.045.035-.102.08-.148.113-28.859 21.19-45.563 46.342-49.65 74.757-6.907 48.038 24.676 90.096 24.995 90.516l-11.005 8.427Z" fill="#6ec1ce" fill-rule="evenodd" data-name="Path 70"/><path d="M282.073 330.07c-1.433-1.873-35.022-46.467-27.032-100.525 4.946-33.455 24.694-62.832 58.704-87.32 1.833-1.376 25.453-18.666 66.323-28.13 24.35-5.639 49.849-7.324 75.79-5.005 32.303 2.885 65.366 12.016 98.272 27.14.056.026.11.053.165.08.723.355 72.896 35.918 128.555 67.894 44.42 25.646 90.287 33.747 101.629 23.86l9.11 10.448c-12.041 10.5-34.675 8.15-51.539 4.33-20.914-4.737-45.015-14.442-66.117-26.627-54.421-31.265-124.878-66.049-127.677-67.428-31.265-14.359-62.6-23.056-93.135-25.846-24.398-2.23-48.358-.717-71.22 4.497-39.014 8.895-61.64 25.724-61.863 25.893l-.135.1c-30.889 22.224-48.77 48.514-53.148 78.14-7.143 48.32 24.008 89.657 24.323 90.07l-11.005 8.428Z" fill="#ffc000" fill-rule="evenodd" data-name="Path 71"/><path d="M266.342 310.087c-1.418-1.854-34.653-46.04-26.37-100.27 5.288-34.628 26.256-65.1 62.33-90.575 1.841-1.352 27.166-19.537 70.782-29.585 25.933-5.976 53.02-7.825 80.514-5.492 34.255 2.904 69.222 12.338 103.93 28.04.062.03.126.058.187.089.746.364 75.059 36.798 133.048 71.426 20.905 12.514 44.978 22.373 66.048 27.054 20.221 4.492 36.014 3.71 42.244-2.094l9.449 10.142c-12.636 11.769-36.72 9.48-54.699 5.485-22.46-4.99-48.033-15.447-70.157-28.688-56.547-33.769-128.901-69.342-131.93-70.828-33.07-14.95-66.315-23.959-98.808-26.773-25.973-2.25-51.552-.571-76.02 4.988-41.758 9.488-66.164 27.247-66.407 27.425-.039.03-.086.065-.127.092-32.91 23.227-51.98 50.608-56.682 81.387-7.403 48.461 23.366 89.346 23.677 89.754l-11.009 8.423Z" fill="#db001a" fill-rule="evenodd" data-name="Path 72"/><path d="M167.78 655.133c-24.431 0-42.987-4.62-55.437-13.844-12.18-9.022-13.73-19.235-13.868-20.37l13.761-1.659-.023-.17c.042.243 1.123 5.987 9.103 11.581 21.216 14.874 63.109 11.352 94.518 5.78 35.164-6.24 64.162-15.432 88.648-28.1 12.978-6.713 29.267-18.988 45.866-34.562 2.467-2.318 18.281-20.355 28.88-44.404 13.062-29.631 12.967-55.28-.275-76.238l-49.65-63.066 10.891-8.575 49.866 63.341c.141.18.273.364.395.557 15.849 24.807 16.352 55.781 1.457 89.572-11.62 26.36-28.516 45.575-32.076 48.92-17.509 16.426-34.904 29.483-48.985 36.765-25.745 13.321-56.034 22.95-92.596 29.439-18.917 3.356-35.762 5.033-50.475 5.033" fill="#184833" fill-rule="evenodd" data-name="Path 73"/><path d="M166.59 625.377c-21.295 0-38.458-3.602-51.273-10.79-16.667-9.347-19.75-21.434-20.046-22.78l13.536-2.983-.034-.146c.088.33 2.313 8.158 14.757 14.592 12.316 6.365 36.878 12.307 83.95 4.47 33.004-5.448 60.65-13.979 84.522-26.081 11.99-6.077 29.376-18.758 44.289-32.302 5.515-5.01 19.87-22.14 29.046-43.112 11.813-26.999 11.593-50.96-.654-71.228l-51.098-64.922 10.893-8.573 51.356 65.25a6.7 6.7 0 0 1 .464.668c14.745 24.088 15.347 53.26 1.738 84.362-10.882 24.87-27.471 43.314-32.425 47.814-15.998 14.53-34.138 27.714-47.342 34.406-25.153 12.751-54.109 21.712-88.521 27.393-15.867 2.642-30.269 3.962-43.157 3.962" fill="#899c3a" fill-rule="evenodd" data-name="Path 74"/><path d="M162.536 595.954c-20.446 0-37.057-3.29-49.624-9.858-16.026-8.373-19.562-19.206-19.91-20.414l13.311-3.861-.05-.165c.103.298 11.336 29.765 92.889 17.377 30.922-4.698 57.214-12.572 80.371-24.068 6.82-3.381 24.515-14.011 42.693-30.036 6.237-5.493 20.376-21.292 29.249-41.78 10.557-24.366 10.201-46.66-1.054-66.266l-52.554-66.765 10.891-8.573 52.86 67.153c.197.252.38.518.54.796 31.047 53.26-12.918 110.117-30.767 125.836-16.732 14.747-35.414 26.953-45.695 32.053-24.464 12.143-52.088 20.436-84.45 25.355-14.12 2.145-27.036 3.216-38.7 3.216" fill="#6ec1ce" fill-rule="evenodd" data-name="Path 75"/><path d="M156.108 566.937c-52.77 0-64.484-21.898-66.961-29.712l13.213-4.189c.644 2.03 3.755 9.061 16.76 14.292 20.17 8.112 50.099 6.11 71.657 3.002 18.822-2.713 47.206-7.951 76.283-22.06 5.561-2.699 23.785-12.946 41.105-27.762 19.68-16.843 50.73-59.709 27.965-101.764l-54-68.602 10.892-8.573 54.358 69.056c.234.296.442.61.623.94 27.583 50.03-8.104 100.027-30.826 119.474-17.774 15.205-36.596 26.076-44.065 29.701-30.815 14.952-60.62 20.466-80.356 23.31-14.01 2.02-26.143 2.887-36.648 2.887" fill="#ffc000" fill-rule="evenodd" data-name="Path 76"/><path d="M155.942 537.267c-57.19 0-69.233-26.638-69.784-27.935l12.761-5.412c.03.066 3.453 6.994 16.697 12.63 11.159 4.747 31.816 9.482 66.859 5.07 18.901-2.379 44.18-6.807 72.11-20.047 2.113-1 21.148-10.21 39.513-25.483 6.17-5.14 21.424-19.234 29.712-38.998 8.011-19.103 7.349-38.108-1.967-56.496l-55.442-70.433 10.893-8.575 55.859 70.965c.273.344.51.715.711 1.105 23.266 45.024-.706 87.937-30.898 113.085-19.27 16.027-38.737 25.6-42.444 27.356-30.041 14.24-57.943 18.961-76.316 21.275-10.467 1.317-19.855 1.893-28.264 1.893" fill="#db001a" fill-rule="evenodd" data-name="Path 77"/></g></g><defs><clipPath id="a"><path d="M0 0h1344.737v827.38H0V0z" data-name="Rectangle 34"/></clipPath></defs></svg>