<svg xmlns="http://www.w3.org/2000/svg" width="1340.732" height="1658.82" viewBox="1359.781 0 1340.732 1658.82"><g data-name="Group 44"><g data-name="Group 14" transform="rotate(69 1092.705 1589.895)" clip-path="url(&quot;#a&quot;)"><path d="m925.437 649.463-8.048-12.44c9.89-6.4 14.904-16.326 14.904-29.506 0-.136-.005-.107 0-.194-.032-1.282-1.099-23.834-32.83-68.04-.45-.602-1.615-2.19-3.362-4.595-10.603-14.502-39.758-68.444-47.176-142.825-.402-2.695-3.55-25.66.793-58.077 4.173-31.147 16.391-77.285 50.898-120.2.92-1.143 2.763-3.787 5.098-7.134 10.733-15.388 35.872-51.423 74.625-90.067 48.303-48.172 101.645-84.693 158.543-108.547 3.937-1.657 8.575-3.57 13.696-5.268.185-.062.373-.116.563-.161l.33-.096c15.55-4.455 25.624-1.645 31.335 1.496l-7.138 12.982c-3.271-1.798-9.42-3.3-20.119-.233a376.6 376.6 0 0 1-.505.141c-4.93 1.646-9.613 3.617-12.425 4.8C1089.49 44.611 1037.74 80.064 990.8 126.875c-37.819 37.714-62.427 72.99-72.936 88.054-2.69 3.857-4.467 6.405-5.704 7.94-32.223 40.078-43.717 83.221-47.687 112.356-4.33 31.781-.915 54.335-.878 54.56.021.137.04.282.054.42 8.37 84.408 44.065 135.264 44.423 135.755a686.621 686.621 0 0 0 3.307 4.522c.027.036.055.072.08.109 34.903 48.603 35.72 73.616 35.65 77.017-.032 23.02-11.8 35.465-21.673 41.854" fill="#184833" fill-rule="evenodd" data-name="Path 28"/><path d="m947.241 635.7-8.011-12.464c9.971-6.409 15.027-16.362 15.027-29.582 0-.22-.007-.238.01-.415 0-1.315-.517-23.653-32.059-67.845l-.947-1.315c-.637-.885-1.485-2.064-2.528-3.504-6.02-8.269-39.096-69.799-40.735-143.206-.22-2.749-1.595-23.446 4.282-52.891 5.682-28.476 19.558-70.933 53.384-111.488 1.66-1.99 4.129-5.236 7.253-9.346 13.196-17.36 37.76-49.674 74.502-84.478 45.177-42.793 94.51-75.72 146.626-97.863l.482-.207c2.93-1.248 7.36-3.135 12.47-4.737.15-.047.303-.09.457-.127.15-.038.36-.096.623-.169 4.828-1.322 19.526-5.346 30.276 2.445l-8.695 11.998c-2.278-1.652-7.196-3.019-17.671-.152-.284.08-.533.147-.74.2-4.338 1.374-8.288 3.056-10.914 4.173l-.493.21c-50.488 21.453-98.341 53.41-142.232 94.987-35.865 33.972-59.955 65.662-72.896 82.687-3.238 4.258-5.795 7.621-7.67 9.87-31.67 37.97-44.736 77.697-50.122 104.34-5.864 29.016-4.16 49.288-4.142 49.49.014.166.025.341.027.506 1.492 69.55 33.18 128.548 37.911 135.047a832.57 832.57 0 0 1 2.58 3.571l.934 1.299c34.464 48.284 35 73.229 34.843 77.106-.064 23.034-11.898 35.476-21.832 41.86" fill="#899c3a" fill-rule="evenodd" data-name="Path 29"/><path d="m969.022 621.943-7.95-12.503c10.042-6.385 15.133-16.362 15.133-29.653 0-.293-.008-.346.023-.608.344-7.592-5.733-31.356-31.27-67.648a332.462 332.462 0 0 0-3.604-5.054c-4.475-6.172-36.892-71.227-34.244-143.58-.009-5.14 1-78.357 63.613-150.501 2.225-2.566 5.076-6.027 8.376-10.035 29.412-35.705 98.287-119.322 210.112-167.59l.603-.263c2.302-1.005 6.585-2.876 11.603-4.362a12.2 12.2 0 0 1 .344-.093l.538-.134c4.598-1.16 18.588-4.692 28.86 2.82l-8.744 11.962c-3.087-2.259-8.636-2.398-16.49-.417l-.446.112c-4.076 1.22-7.613 2.764-9.736 3.69l-.652.284c-108.545 46.852-175.827 128.533-204.556 163.412-3.365 4.084-6.27 7.612-8.62 10.323-59.917 69.038-59.995 140.136-59.987 140.845.001.115 0 .229-.006.343-1.31 35.095 6.513 68.42 13.302 90.2 7.918 25.386 16.518 42.07 18.119 44.276a347.904 347.904 0 0 1 3.743 5.25c33.853 48.113 34.172 72.827 33.936 77.023-.089 23.118-12.001 35.543-22 41.901" fill="#6ec1ce" fill-rule="evenodd" data-name="Path 30"/><path d="m990.825 608.187-7.91-12.529c10.12-6.39 15.251-16.39 15.251-29.725 0-.368-.007-.47.042-.808.516-7.495-5.18-31.082-30.479-67.446a304.833 304.833 0 0 0-3.752-5.335c-3.495-4.82-38.114-77.996-27.685-144.258.247-2.27 2.246-18.49 11.205-42.355 8.649-23.045 25.783-58.048 58.28-93.943a1251.13 1251.13 0 0 0 7.28-8.145c31.617-35.555 97.41-109.539 201.292-155.39l.587-.26c1.929-.868 5.945-2.671 10.902-4.053.076-.022.15-.04.226-.06 4.41-1.081 17.838-4.372 27.906 3.099l-8.827 11.9c-2.955-2.195-8.15-2.407-15.438-.636-3.834 1.08-7.114 2.552-8.697 3.263l-.699.312c-100.912 44.54-165.258 116.9-196.18 151.672a1295.992 1295.992 0 0 1-7.37 8.242c-58.824 64.976-65.684 127.42-65.747 128.044a8.83 8.83 0 0 1-.056.434c-9.428 59.393 21.2 127.441 25.086 133.533a324.785 324.785 0 0 1 3.871 5.504c33.357 47.95 33.408 72.512 33.069 77.021-.114 23.143-12.097 35.568-22.157 41.919" fill="#ffc000" fill-rule="evenodd" data-name="Path 31"/><path d="m1012.629 594.425-7.869-12.555c10.198-6.39 15.37-16.415 15.37-29.8 0-.44-.01-.592.065-1 .676-7.392-4.649-30.796-29.696-67.256a274.057 274.057 0 0 0-3.9-5.57c-.443-.618-42.17-70.743-21.003-145.04 1.025-4.191 15.257-58.74 75.26-122.034l.975-1.029c34.24-36.122 97.973-103.358 197.655-148.412l.237-.11c1.335-.629 5.397-2.546 10.525-3.885l.118-.029c13.595-3.314 21.88.089 26.437 3.53l-8.925 11.826c-2.858-2.155-7.677-2.492-13.944-.977-3.77.991-6.868 2.453-7.89 2.934-.21.1-.372.176-.479.223-97.009 43.846-159.44 109.71-192.98 145.093l-.977 1.03c-30.39 32.056-48.246 61.733-57.877 80.982-10.438 20.866-13.73 34.327-13.763 34.46-.026.103-.055.218-.084.32-19.017 66.49 17.598 130.516 18.827 132.582a293.03 293.03 0 0 1 4.005 5.723c32.883 47.866 32.673 72.265 32.23 77.054-.143 23.18-12.197 35.6-22.317 41.94m-14.012-124.85.03.043-.03-.042" fill="#db001a" fill-rule="evenodd" data-name="Path 32"/><path d="M682.532 884.368h-.006l.007-7.41-.05-7.406c.485-.007 12.014-.295 22.78-10.165.121-.11.244-.218.373-.32.596-.506 27.663-24.136 85.855-144.785 29.849-62.001 45.853-117.093 61.33-170.372 12.031-41.421 23.395-80.544 40.632-121.921.895-2.282 9.008-21.394 32.196-28.34l4.252 14.194c-16.875 5.054-22.416 18.94-22.644 19.528-.035.094-.053.137-.09.23-16.94 40.64-28.198 79.404-40.12 120.443-15.645 53.86-31.822 109.554-62.209 172.67-58.192 120.65-86.266 146.808-89.687 149.707-15.113 13.773-31.843 13.947-32.62 13.947" fill="#db001a" fill-rule="evenodd" data-name="Path 33"/><path d="M649.927 879.768c-1.036 0-1.723-.066-2.005-.098l1.722-14.716-.148-.015c.39.038 9.783.6 22.119-10.291.096-.086.194-.167.293-.247.257-.212 31.17-26.455 89.648-146.032 29.318-60.121 44.597-110.6 59.375-159.418 11.032-36.446 22.44-74.132 39.523-115.13l.083-.193c.382-.848 9.61-20.837 31.924-28.007l4.533 14.106c-15.374 4.938-22.444 18.948-22.922 19.933-16.764 40.255-28.048 77.532-38.96 113.583-14.946 49.375-30.4 100.432-60.244 161.627-58.831 120.3-90.542 148.472-93.546 150.971-14.236 12.525-26.582 13.927-31.395 13.927" fill="#ffc000" fill-rule="evenodd" data-name="Path 34"/><path d="M616.48 875.153c-1.431 0-2.351-.13-2.68-.186l2.486-14.606s-.078-.018-.23-.034c.087.016 8.76.757 21.93-10.419.048-.04.095-.08.146-.12.313-.258 35.154-29.748 93.479-147.336 28.89-58.46 42.824-102.371 57.575-148.86 10.522-33.155 21.398-67.437 38.197-107.744.895-2.283 8.997-21.378 32.18-28.336l4.259 14.19c-16.875 5.066-22.407 18.936-22.634 19.525a7.03 7.03 0 0 1-.092.234c-16.569 39.743-27.355 73.74-37.786 106.612-14.926 47.04-29.025 91.473-58.42 150.953-59.363 119.677-94.911 150.203-97.374 152.228-14.491 12.275-25.971 13.9-31.037 13.9" fill="#6ec1ce" fill-rule="evenodd" data-name="Path 35"/><path d="M582.871 870.515c-1.427 0-2.358-.12-2.7-.172l2.246-14.643-.172-.026c.378.042 9.485.84 21.827-10.27.09-.081.183-.161.28-.239.365-.302 39.196-33.152 97.325-148.631 28.697-57.233 42.006-97 56.097-139.1 9.952-29.733 20.242-60.478 36.564-99.653.902-2.302 9.008-21.39 32.18-28.344l4.259 14.193c-16.877 5.063-22.407 18.943-22.634 19.53a5.497 5.497 0 0 1-.094.235c-16.138 38.724-26.35 69.234-36.225 98.74-14.262 42.615-27.733 82.866-56.907 141.05-58.616 116.447-97.816 150.637-101.05 153.335-13.82 12.39-25.75 13.995-30.996 13.995" fill="#899c3a" fill-rule="evenodd" data-name="Path 36"/><path d="M549.125 865.595h-.007l.013-14.816h-.122c.09-.001 9.222-.414 21.59-10.26 1.19-1.008 43.789-37.657 101.135-149.898 28.922-56.798 41.104-91.038 55.208-130.686 8.85-24.874 18.88-53.066 34.36-90.218.897-2.287 8.997-21.386 32.18-28.345l4.259 14.19c-16.875 5.068-22.406 18.943-22.634 19.532a3.726 3.726 0 0 1-.092.235c-15.352 36.832-25.32 64.852-34.114 89.572-14.276 40.131-26.607 74.792-55.968 132.452C625.353 813.966 581.8 850.49 579.977 851.989l-.08.065c-16.481 13.15-29.323 13.541-30.772 13.541" fill="#184833" fill-rule="evenodd" data-name="Path 37"/><path d="M105.267 663.76c-.346-2.649-.127-6.122-.05-7.124.143-2.966 1.928-16.987 22.231-35.72 2.146-2.131 25.872-25.134 72.872-48.703 44.266-22.195 118.546-49.074 221.046-51.077h.121c.67-.005 70.326-.056 161.286 14.358 53.44 8.468 103.732 20.201 149.477 34.876 57.166 18.338 107.38 41.356 149.265 68.417 2.507 1.136 21.008 8.908 35.575-1.56l8.648 12.031c-22.95 16.495-50.02 3.211-51.16 2.635a7.046 7.046 0 0 1-.701-.4c-51.132-33.116-143.5-77.574-293.16-101.323-88.507-14.046-156.494-14.218-159.112-14.218h-.018c-99.69 1.958-171.738 28.002-214.624 49.507-46.15 23.14-68.903 45.798-69.127 46.023-.078.08-.16.157-.24.233-15.697 14.445-17.414 24.282-17.568 25.483.013.21-.005.154-.03.467-.093 1.166-.158 3.27-.04 4.174l-14.69 1.922Z" fill="#184833" fill-rule="evenodd" data-name="Path 38"/><path d="M997.799 598.772c-11.227 0-21.133-6.721-25.97-11.748-40.637-39.237-95.73-72.992-163.753-100.322-54.748-21.996-117.902-39.887-187.712-53.176-119.128-22.677-217.543-24.064-218.523-24.075-97.711-.978-167.983 25.87-209.791 48.554-45.331 24.595-67.876 49.763-68.099 50.014-.167.189-.35.375-.534.547-15.468 14.246-17.371 23.445-17.565 24.713.036.56-.03.688-.16 1.32-.256 1.353-.247 3.354.026 3.997l-13.613 5.85c-2.016-4.694-1.39-10.142-1.045-12.177.288-3.907 2.809-16.538 22.052-34.355 2.876-3.184 25.992-27.913 71.18-52.555 43.447-23.693 116.48-51.723 217.707-50.723 1.003.01 100.513 1.398 220.884 24.287 70.793 13.463 134.915 31.623 190.586 53.978 69.924 28.081 126.702 62.926 168.757 103.568.074.073.149.145.22.221.446.46 11.67 11.822 22.327 5.174l7.843 12.568c-4.984 3.112-10.022 4.34-14.817 4.34" fill="#db001a" fill-rule="evenodd" data-name="Path 39"/><path d="M922.793 643.31c-13.557 0-23.023-6.812-24.548-7.982-40.758-29.624-91.34-54.945-150.346-75.26-47.424-16.33-100.343-29.471-157.282-39.058-96.218-16.203-171.807-16.67-173.974-16.68-98.887 1.223-170.349 27.327-212.894 49.011-46.119 23.507-69.16 47.042-69.387 47.278-.1.101-.208.208-.313.304-15.47 14.245-17.369 23.452-17.563 24.718.035.527-.027.629-.141 1.232-.103.596-.183 1.86-.034 2.548l-14.487 3.11c-.691-3.22-.349-6.435-.135-7.832.264-3.833 2.714-16.563 22.173-34.537 2.38-2.427 25.959-25.846 72.454-49.66 44.062-22.57 118.031-49.734 220.207-50.985.034-.004.065-.002.102-.002.767.002 77.892.31 176.19 16.84 57.781 9.716 111.533 23.058 159.763 39.654 60.504 20.817 112.475 46.86 154.474 77.405.094.069.187.14.277.212.53.409 14.345 10.81 31.92-.402l7.97 12.488c-8.908 5.685-17.242 7.599-24.426 7.599" fill="#899c3a" fill-rule="evenodd" data-name="Path 40"/><path d="M950.087 627.34c-13.873 0-25.72-7.041-26.43-7.47a7.622 7.622 0 0 1-.813-.57c-40.727-32.863-92.842-61.02-154.9-83.692-49.863-18.217-106.192-32.942-167.42-43.764-104.47-18.463-188.016-19.14-188.847-19.146-98.418.484-169.521 26.839-211.826 48.862-45.856 23.873-68.73 47.953-68.957 48.194-.123.13-.257.265-.389.388-15.873 14.609-17.449 24.43-17.57 25.428.022.903.174 3.144.697 4.935l-14.222 4.15c-1.258-4.31-1.294-8.765-1.294-9.259 0-1.59.623-16.07 22.164-35.979 2.572-2.698 25.995-26.55 72.029-50.633 43.856-22.945 117.516-50.402 219.371-50.902.92.004 85.506.676 191.164 19.327 62.123 10.966 119.334 25.915 170.047 44.433 63.415 23.153 116.839 52.006 158.796 85.755 2.526 1.393 18.072 9.405 29.318 2.087l8.084 12.416c-6.195 4.033-12.802 5.44-19.002 5.44M112.93 595.396l.002.098c0-.066-.002-.098-.002-.098" fill="#6ec1ce" fill-rule="evenodd" data-name="Path 41"/><path d="M973.537 613.32c-11.225 0-21.185-5.702-26.16-10.104-40.687-36.075-94.303-67.048-159.372-92.062-52.305-20.107-112.042-36.413-177.563-48.47-111.798-20.572-202.78-21.604-203.686-21.611-.434-.002-.882-.002-1.316-.002-97.352 0-167.621 26.458-209.49 48.714-45.593 24.232-68.3 48.856-68.525 49.103-.145.16-.306.32-.466.467-15.786 14.533-17.425 24.653-17.565 25.825.013.278-.009.271-.045.63-.136 1.392-.103 3.323.065 3.957l-14.124 4.475c-1.13-3.539-.854-8.052-.704-9.689.163-3.151 2.06-17.333 22.11-35.886 2.74-2.952 26.01-27.238 71.603-51.594 43.455-23.215 116.358-50.818 217.186-50.818.458 0 .897 0 1.356.002.964.007 93.013 1.036 206.027 21.81 66.46 12.213 127.128 28.77 180.318 49.206 66.791 25.662 121.972 57.575 164.018 94.854.51.442 13.46 11.45 25.643 3.575l8.045 12.443c-5.788 3.742-11.73 5.174-17.355 5.174" fill="#ffc000" fill-rule="evenodd" data-name="Path 42"/><path d="M1097.682 476.545c-12.29.001-26.85-3.856-43.596-11.569-23.1-10.641-41.955-24.861-42.745-25.46l-.108-.084c-26.153-20.604-46.997-28.076-59.877-30.714-13.758-2.822-21.543-.857-21.621-.837l-4-14.265c1.533-.438 38.226-10.258 94.603 34.126 1.02.766 18.996 14.157 40.144 23.867 18.478 8.483 43.249 15.935 56.315 3.262l10.315 10.636c-7.586 7.358-17.427 11.038-29.43 11.038" fill="#db001a" fill-rule="evenodd" data-name="Path 43"/><path d="M1074.021 499.722c-16.043.001-33.199-6.457-47.22-13.561-24.134-12.228-43.563-28.295-44.38-28.972l-.16-.14c-15.352-13.533-38.748-30.84-63.032-36.439-14.223-3.28-22.125-.918-22.204-.894l.101-.033-4.795-14.019c1.588-.545 39.597-12.695 99.644 40.199 20.185 16.735 77.638 54.898 102.163 31.884l10.14 10.804c-8.616 8.085-19.172 11.169-30.257 11.17" fill="#ffc000" fill-rule="evenodd" data-name="Path 44"/><path d="M1050.294 523.08c-42.586.005-94.021-45.746-96.749-48.2a7.567 7.567 0 0 1-.302-.288c-15.06-15.174-38.52-34.666-64.763-41.36-15.431-3.936-24.678-1.522-24.768-1.497l-4.111-14.234c1.827-.54 45.368-12.485 104.006 46.5 20.917 18.752 80.61 61.509 107.844 36.633l9.993 10.94c-9.016 8.235-19.77 11.504-31.15 11.506" fill="#6ec1ce" fill-rule="evenodd" data-name="Path 45"/><path d="M1026.396 546.46c-45.215.003-98.874-51.157-101.698-53.883-.05-.049-.1-.096-.148-.147-57.466-58.67-93.333-48.932-93.692-48.824l.106-.034-4.633-14.073c1.771-.582 44.05-13.496 108.719 52.478 1.271 1.212 20.962 19.833 44.981 33.904 21.29 12.474 50.494 23.923 68.738 7.642l9.866 11.056c-9.51 8.487-20.596 11.879-32.239 11.88" fill="#899c3a" fill-rule="evenodd" data-name="Path 46"/><path d="M1002.442 569.852c-47.851.002-103.659-56.559-106.576-59.552a7.22 7.22 0 0 1-.455-.513c-54.01-66.791-97.183-54.378-97.607-54.243l-4.386-14.152c2.143-.665 53.125-15.398 113.28 58.791 2.31 2.324 22.153 22.004 46.455 37.11 32.336 20.098 56.868 23.176 72.915 9.14l9.754 11.151c-10 8.747-21.444 12.268-33.38 12.268" fill="#184833" fill-rule="evenodd" data-name="Path 47"/><path d="m1127.114 465.505-10.317-10.634c24.792-24.052 26.252-72.77 23.11-109.404-3.773-44.009-14.928-82.083-15.04-82.449-4.178-13.694-9.974-27.393-17.712-41.871-23.699-44.505-54.37-75.58-91.17-92.375-29.248-13.347-54.094-13.82-64.705-14.02a178.94 178.94 0 0 1-2.76-.066c-.467-.004-.936-.005-1.398-.005-54.03 0-77.963 21.958-78.202 22.18l-10.16-10.782c1.147-1.08 28.522-26.214 88.366-26.214.534 0 1.064.002 1.602.005l.21.006c.727.025 1.605.042 2.623.061 11.53.22 38.532.732 70.576 15.356 39.83 18.178 72.832 51.444 98.092 98.88 8.19 15.328 14.346 29.895 18.812 44.526.116.386 11.663 39.255 15.627 85.502 4.968 57.934-4.303 98.746-27.554 121.304" fill="#db001a" fill-rule="evenodd" data-name="Path 48"/><path d="m1104.29 488.539-10.163-10.781c25.086-23.648 27.13-70.98 24.428-106.522-3.415-44.896-15.187-84.986-15.687-86.67-5.978-20.182-13.27-35.152-17.084-42.278-24.387-45.988-56.739-77.204-96.17-92.806-30.655-12.13-56.085-10.636-63.297-9.036-53.127 11.751-81.226 27.726-81.505 27.887l-7.421-12.824c1.202-.697 30.118-17.23 85.724-29.53 10.5-2.327 39.054-3.29 71.95 9.725 42.199 16.698 78.09 51.144 103.794 99.617 4.067 7.6 11.864 23.594 18.215 45.036 1.296 4.375 12.78 44.088 16.254 89.756 4.288 56.378-5.482 96.221-29.038 118.426" fill="#ffc000" fill-rule="evenodd" data-name="Path 49"/><path d="m1081.468 511.553-10.038-10.899c25.247-23.255 27.867-69.201 25.618-103.652-2.812-43.103-13.952-83.265-16.156-90.878-7.074-24.394-14.98-39.862-16.494-42.714-24.278-45.706-55.902-76.141-93.99-90.457-34.804-13.083-62.771-7.787-68.021-6.594-41.443 9.423-70.205 25.03-79.626 31.964l-8.815-11.906c1.2-.892 30.06-21.978 85.156-34.504 17.302-3.934 46.488-4.117 76.52 7.171 41.567 15.624 75.838 48.386 101.864 97.379 4.728 8.915 11.842 25.556 17.637 45.537 3.202 11.061 13.87 50.525 16.71 94.039 3.577 54.797-6.64 93.66-30.365 115.514" fill="#6ec1ce" fill-rule="evenodd" data-name="Path 50"/><path d="m1058.644 534.569-9.884-11.037c49.909-44.7 17.199-170.973 10.136-195.834-6.598-23.262-13.702-39.029-15.884-43.14-24.195-45.636-55.13-75.521-91.95-88.827-33.814-12.218-61.78-6.554-72.234-3.553-38.752 11.125-68.448 28.76-78.736 36.533l-8.948-11.81c1.296-.983 32.338-24.248 83.595-38.964 11.842-3.4 43.474-9.83 81.358 3.86 40.387 14.595 74.033 46.833 100.005 95.818 2.966 5.592 10.35 22.415 17.048 46.037 10.515 37.01 40.55 161.607-14.506 210.917" fill="#899c3a" fill-rule="evenodd" data-name="Path 51"/><path d="m1035.833 557.575-9.774-11.135c20.856-18.308 30.338-51.318 28.183-98.11-1.335-28.938-7.322-63.195-17.315-99.063-6.527-23.38-13.586-40.362-15.285-43.583-24.066-45.518-54.324-74.854-89.926-87.183-32.846-11.375-62.099-5.178-76.616-.473-46.366 15.037-77.146 40.639-77.452 40.896l-9.55-11.328c1.334-1.123 33.167-27.684 82.431-43.66 16.28-5.28 49.104-12.227 86.035.564 39.264 13.599 72.296 45.313 98.18 94.266 2.311 4.384 9.657 22.17 16.453 46.52 16.622 59.658 36.73 166.562-15.364 212.29" fill="#184833" fill-rule="evenodd" data-name="Path 52"/><path d="M1427.486 704.542c-68.283-61.032-119.315-129.348-151.681-203.051-25.933-59.058-39.992-121.653-41.781-186.043-3.03-108.99 29.727-184.545 31.518-188.588 9.466-22.36 9.492-35.97 7.845-43.453-1.63-7.405-5.092-10.042-5.239-10.15.127.092.2.131.2.131l7.984-12.48c.78.5 7.713 5.218 10.984 17.122 3.917 14.26 1.173 32.652-8.157 54.668a3.882 3.882 0 0 1-.053.125c-.333.748-33.362 76.425-30.252 182.895 1.82 62.378 15.513 123.017 40.698 180.226 31.513 71.59 81.243 138.057 147.807 197.551l-9.873 11.047Z" fill="#db001a" fill-rule="evenodd" data-name="Path 53"/><path d="M1427.013 745.849c-79.763-67.218-139.113-142.304-176.403-223.171-29.893-64.834-45.74-133.468-47.096-203.995-2.282-118.62 36.712-200.828 39.326-206.194 17.456-40.281 2.29-53.62 2.135-53.75.094.08.148.116.148.116l8.89-11.853c1.03.772 24.963 19.515 2.35 71.545-.048.107-.097.212-.147.317-.403.817-40.284 83.543-37.875 200.235 1.412 68.376 16.862 134.924 45.919 197.798 36.383 78.716 94.352 151.934 172.3 217.622l-9.547 11.33Z" fill="#ffc000" fill-rule="evenodd" data-name="Path 54"/><path d="M1426.52 787.125c-91.24-73.403-158.904-155.256-201.117-243.284-33.852-70.598-51.486-145.261-52.41-221.915-.822-68.178 12.013-125.334 22.924-161.277 11.271-37.124 22.626-59.476 24.167-62.44 9.236-21.89 9.231-35.467 7.592-43.012-1.644-7.574-5.13-10.397-5.279-10.513.114.089.178.127.178.127L1231 32.625c.755.523 7.468 5.446 10.649 17.342 3.844 14.383 1.139 32.654-8.043 54.304a7.738 7.738 0 0 1-.275.581c-.471.89-47.222 90.673-45.514 217.608 1 74.389 18.21 146.86 51.151 215.406 41.26 85.852 107.486 165.83 196.838 237.714l-9.287 11.545Z" fill="#6ec1ce" fill-rule="evenodd" data-name="Path 55"/><path d="M1425.992 828.366c-102.703-79.585-178.674-168.198-225.798-263.382-37.802-76.355-57.22-157.038-57.71-239.807-.437-73.618 14.502-135.28 27.114-174.045 13.224-40.656 26.43-64.848 27.858-67.416 19.325-39.35 2.398-53.078 2.222-53.205l8.677-12.008c1.137.82 27.554 20.708 2.307 71.936a6.569 6.569 0 0 1-.194.366c-.134.237-13.716 24.564-26.99 65.555-12.23 37.76-26.697 97.808-26.173 169.45.586 80.407 19.557 158.812 56.383 233.037 46.137 92.99 120.619 179.73 221.379 257.808l-9.075 11.711Z" fill="#899c3a" fill-rule="evenodd" data-name="Path 56"/><path d="M1425.456 869.603c-114.167-85.769-198.44-181.146-250.476-283.483-41.75-82.105-62.948-168.8-63.006-257.68-.052-79.055 16.99-145.217 31.3-186.8 14.572-42.355 29.024-68.016 31.311-71.964 17.26-42.596 2.934-52.966 2.786-53.067.159.108.251.15.251.15l7.252-12.92c2.714 1.523 25.875 16.488 3.232 71.92-.138.337-.3.665-.487.978-.152.255-15.477 26.359-30.558 70.375-13.894 40.544-30.423 105.04-30.271 182.045.172 86.432 20.904 170.775 61.62 250.688 51.02 100.135 133.769 193.638 245.945 277.912l-8.9 11.846Z" fill="#184833" fill-rule="evenodd" data-name="Path 57"/><path d="m848.291 254.902-9.823-11.09s-.063.048-.168.153c.199-.2 4.877-5.103 2.504-16.875-1.021-5.11-3.535-10.436-7.684-16.29-2.709-3.824-5.985-8.928-7.316-14.504-1.758-7.378-.692-18.095 1.041-24.93 2.791-10.989 9.327-15.169 10.609-15.893l7.302 12.89s.096-.043.257-.153c-.103.07-2.535 1.798-3.807 6.8-1.515 5.976-1.95 13.818-.99 17.85.58 2.424 2.119 5.316 4.995 9.376 5.373 7.581 8.683 14.756 10.121 21.937 4.07 20.2-5.891 29.71-7.041 30.729" fill="#ffc000" fill-rule="evenodd" data-name="Path 58"/><path d="m832.445 275.864-9.627-11.263s-.064.05-.172.154c.188-.185 4.569-4.62 2.285-15.07-.985-4.525-3.336-8.72-7.626-13.614-3.341-3.807-5.777-7.501-7.798-10.663-5.37-8.407-5.033-16.69-4.14-22.969 1.52-10.683 7.947-15.569 8.673-16.09l8.638 12.037s.076-.047.205-.156c-.09.077-2.224 1.918-2.849 6.297-.686 4.83-.616 8.874 1.958 12.904 1.807 2.828 3.792 5.842 6.45 8.87 5.957 6.791 9.44 13.218 10.966 20.227 4.182 19.153-5.81 28.35-6.963 29.336" fill="#6ec1ce" fill-rule="evenodd" data-name="Path 59"/><path d="m816.59 296.84-9.417-11.44s-.064.048-.17.149c.436-.411 4.206-4.285 2.071-13.235-.652-2.738-2.04-6.173-7.39-10.91-1.417-1.249-2.697-2.536-3.825-3.672-1.411-1.418-2.63-2.644-3.854-3.573-9.209-7-9.991-12.99-10.033-19.539l-.007-.762c-.125-11.098 6.434-16.391 7.184-16.958l8.946 11.81s.109-.066.272-.222c-.167.158-1.626 1.645-1.586 5.203l.007.835c.023 3.782.029 4.68 4.183 7.836 2.04 1.55 3.745 3.266 5.395 4.924 1.063 1.069 2.066 2.08 3.13 3.016 6.631 5.87 10.328 11.597 11.99 18.575 3.51 14.703-2.684 24.495-6.896 27.963" fill="#899c3a" fill-rule="evenodd" data-name="Path 60"/><path d="m800.705 317.812-9.174-11.634s-.065.045-.174.143c.4-.362 3.847-3.749 1.855-11.377-.721-2.767-2.13-5.098-6.924-8.183-.702-.453-1.394-.915-2.088-1.379-2.023-1.35-3.933-2.626-5.918-3.48-10.412-4.484-14.338-8.702-15.56-16.72-1.456-9.406 3.9-16.01 4.516-16.733l11.274 9.615.101-.124c-.069.09-1.677 2.208-1.246 4.992.29 1.908.399 2.616 6.775 5.362 3.226 1.389 5.913 3.184 8.285 4.766.627.419 1.25.835 1.884 1.243 7.342 4.726 11.424 9.94 13.236 16.902 3.628 13.88-2.593 23.256-6.842 26.607" fill="#184833" fill-rule="evenodd" data-name="Path 61"/><path d="m864.153 233.927-10.025-10.906s-.064.049-.165.158c.208-.221 5.145-5.584 2.72-18.692-1.088-5.816-3.578-12.001-7.619-18.895-3.725-6.339-5.233-12.388-6.041-16.384-2.565-12.516 2.099-23.043 5.83-29.87 4.275-7.848 9.648-13.013 9.875-13.228l10.243 10.705c-.04.038-3.986 3.886-7.114 9.62-3.015 5.516-5.88 12.178-4.315 19.815.965 4.776 2.292 8.423 4.302 11.844 4.92 8.403 7.998 16.147 9.405 23.684 3.939 21.285-5.955 31.1-7.096 32.149" fill="#db001a" fill-rule="evenodd" data-name="Path 62"/><path d="M549.1 865.595c-6.149 0-10.996-3.408-11.906-4.095a7.085 7.085 0 0 1-.606-.507c-19.677-18.38-32.334-44.724-37.623-78.305-4.135-26.248-3.796-57.017 1.003-91.453 7.881-56.557 24.933-103.523 26.583-107.982 17.436-60.784 23.786-115.821 18.88-163.591-3.9-37.946-14.88-71.41-32.636-99.463-24.177-38.198-56.802-58.436-70.675-63.801a7.296 7.296 0 0 1-.328-.136c-46.126-20.303-97.085-23.395-151.464-9.186-43.967 11.49-90.28 34.22-137.651 67.566-81.065 57.065-137.5 126.056-138.062 126.746l-11.5-9.341c.572-.706 58.308-71.288 141.034-129.518 48.824-34.371 96.746-57.85 142.434-69.788 57.636-15.057 111.808-11.73 161.03 9.895 3.607 1.418 45.004 18.539 77.15 68.774 19.2 29.999 31.083 65.657 35.328 105.982 5.252 49.915-1.266 107.185-19.378 170.222-.054.187-.114.37-.181.549-.708 1.896-69.877 190.104 5.779 261.637.679.418 1.921.98 2.787.98h.007l.038 14.815h-.043Z" fill="#184833" fill-rule="evenodd" data-name="Path 63"/><path d="M580.2 870.349c-5.692-.85-9.341-4.098-10.471-5.241-20.305-19.036-33.384-46.296-38.873-81.027-4.305-27.234-3.975-59.163.976-94.9 8.142-58.762 25.816-107.547 27.498-112.107 18.349-64.174 24.398-122.455 17.978-173.23-5.105-40.367-18.07-76.115-38.534-106.257-34.885-51.382-80.229-69.053-80.682-69.225a9.523 9.523 0 0 1-.338-.14c-49.152-21.404-102.89-25.84-159.716-13.184-45.862 10.214-93.866 31.504-142.677 63.276C71.75 332.736 14.178 399.851 13.608 400.523L2.322 390.92c.585-.686 59.331-69.223 144.661-124.833 50.34-32.806 100.016-54.833 147.65-65.47 59.96-13.391 116.778-8.697 168.882 13.953 3.875 1.498 50.222 20.241 86.992 73.924 21.976 32.084 35.91 70.044 41.413 112.821 6.82 53.011.622 113.607-18.423 180.106-.054.187-.114.37-.18.55-.736 1.975-72.694 198.307 6.664 272.438.215.201.194.154.327.315.24.203 1.035.813 2.08.97l-2.188 14.654Z" fill="#899c3a" fill-rule="evenodd" data-name="Path 64"/><path d="M613.797 874.967c-5.664-.967-9.915-4.781-10.71-5.535-21.04-19.656-34.628-47.918-40.341-83.957-4.473-28.217-4.151-61.304.952-98.344 8.401-60.966 26.694-111.573 28.411-116.236 19.329-67.803 25.04-129.523 16.98-183.446-6.408-42.853-21.491-80.922-44.835-113.15-39.642-54.73-89.7-73.798-90.201-73.984a7.194 7.194 0 0 1-.353-.141c-52.267-22.545-108.891-28.3-168.29-17.11-47.832 9.013-97.605 28.959-147.934 59.286C71.442 294.19 13.184 359.008 12.604 359.656l-11.057-9.86c.594-.667 60.35-67.152 148.283-120.136 51.843-31.24 103.264-51.816 152.836-61.155 62.293-11.737 121.757-5.683 176.742 17.996 4.12 1.566 55.441 21.945 96.846 79.107 24.749 34.17 40.727 74.426 47.487 119.65 8.387 56.1 2.512 120.018-17.461 189.976-.054.185-.114.37-.181.549-.192.518-19.376 52.558-27.759 113.623-4.879 35.55-5.196 67.133-.942 93.872 5.194 32.642 17.255 58 35.849 75.368.672.614 2.111 1.558 3.042 1.715l-2.492 14.606Z" fill="#6ec1ce" fill-rule="evenodd" data-name="Path 65"/><path d="M647.998 879.679c-6.107-.65-10.468-4.76-11.788-6.152-21.68-20.35-35.667-49.505-41.576-86.66-4.644-29.2-4.332-63.443.921-101.784 8.659-63.165 27.57-115.588 29.32-120.354 20.176-70.953 25.613-135.726 16.165-192.52-7.523-45.227-24.468-85.563-50.362-119.888-44.231-58.64-100.118-79.84-100.678-80.046a7.235 7.235 0 0 1-.346-.139c-55.333-23.659-114.778-30.756-176.685-21.089-49.773 7.771-101.285 26.323-153.1 55.145C71.343 255.427 12.171 318.162 11.584 318.79L.765 308.668c.602-.645 61.37-65.072 151.901-115.425 53.348-29.671 106.513-48.793 158.018-56.836 64.63-10.09 126.749-2.678 184.633 22.036 4.361 1.64 60.67 23.662 106.702 84.312 27.516 36.253 45.531 78.802 53.543 126.469 9.952 59.185 4.394 126.42-16.512 199.833-.055.186-.114.37-.18.549-.2.538-20.03 54.461-28.671 117.741-5.033 36.85-5.339 69.593-.915 97.317 5.408 33.873 17.936 60.19 37.24 78.222.212.199.284.259.472.481.612.649 1.884 1.505 2.57 1.58l-1.568 14.732Z" fill="#ffc000" fill-rule="evenodd" data-name="Path 66"/><path d="M682.533 884.368c-7.113 0-13.455-5.2-14.654-6.241a6.147 6.147 0 0 1-.198-.18c-22.51-21.025-36.926-51.212-42.851-89.726-4.644-30.188-4.106-65.596 1.599-105.242 9.39-65.257 29.349-119.428 31.236-124.457 21.08-74.33 26.208-142.341 15.246-202.142-8.736-47.658-27.673-90.29-56.289-126.713-48.907-62.254-110.055-85.22-110.665-85.444a5.783 5.783 0 0 1-.348-.137c-58.32-24.738-120.503-33.187-184.822-25.104-51.67 6.49-104.878 23.597-158.14 50.841-91.104 46.6-151.477 107.49-152.076 108.1L0 267.54c2.503-2.55 62.38-62.987 155.511-110.71 54.844-28.103 109.746-45.772 163.18-52.518 66.975-8.458 131.755.313 192.541 26.063 4.598 1.712 65.904 25.389 116.57 89.54 30.277 38.334 50.325 83.176 59.59 133.28 11.513 62.266 6.277 132.809-15.56 209.673a6.508 6.508 0 0 1-.2.603c-.21.556-21.182 56.37-30.574 121.868-5.47 38.15-5.996 72.049-1.565 100.751 5.406 35.015 18.25 62.238 38.176 80.915 1.54 1.282 3.937 2.546 4.864 2.546v14.816Z" fill="#db001a" fill-rule="evenodd" data-name="Path 67"/><path d="M351.932 416.88c-.862-1.121-21.186-27.882-29.135-64.754-7.46-34.61-4.965-84.614 49.221-126.341 1.94-1.581 21.74-17.203 56.617-25.443 32.828-7.76 85.984-10.183 152.771 22.324.779.391 71.07 35.584 123.022 61.259 58.564 29.17 79.662 28.224 87.054 22.293l9.272 11.556c-16.318 13.095-48.058 6.747-102.909-20.579-51.968-25.68-122.294-60.89-122.998-61.243-34.396-16.741-87.022-34.078-141.989-21.383-32.871 7.594-51.321 22.57-51.504 22.72a6.579 6.579 0 0 1-.21.17c-38.513 29.614-53.303 66.991-43.96 111.089 7.146 33.722 26.31 59.06 26.502 59.311l-11.754 9.02Z" fill="#184833" fill-rule="evenodd" data-name="Path 68"/><path d="M335.13 395.517c-1.566-2.04-38.288-50.65-30.435-108.009 4.547-33.208 23.092-62.247 55.117-86.315 1.941-1.534 23.55-18.111 61.363-26.978 35.492-8.321 92.73-11.128 163.86 22.77.038.016.076.036.114.054.727.362 73.302 36.495 127.783 65.002 43.183 22.78 82.828 32.581 94.291 23.32l9.316 11.523c-5.95 4.808-14.113 6.735-23.364 6.737-30.245.003-72.202-20.588-87.135-28.465-53.663-28.08-125.01-63.617-127.436-64.825-36.904-17.577-93.43-35.627-153.252-21.876-35.818 8.234-56.179 24.224-56.38 24.385-.056.043-.125.097-.183.14-28.758 21.588-45.378 47.3-49.4 76.425-7.063 51.165 27.152 96.643 27.498 97.095l-11.757 9.017Z" fill="#899c3a" fill-rule="evenodd" data-name="Path 69"/><path d="M318.315 374.159c-1.548-2.021-37.85-50.148-29.638-107.729 4.918-34.486 24.736-64.706 58.907-89.82 1.916-1.475 25.349-19.025 66.128-28.524 38.158-8.886 99.483-12.074 174.945 23.211.05.022.098.046.147.07.75.37 75.614 37.441 132.61 68.784 46.585 25.8 88.26 35.867 101.358 24.488l9.716 11.187c-10.534 9.149-28.282 10.672-52.745 4.525-19.265-4.84-42.521-14.51-65.488-27.228-55.91-30.747-129.229-67.093-131.949-68.44-39.327-18.378-99.762-37.153-164.46-22.344-38.761 8.872-61.035 25.864-61.256 26.034l-.16.122c-30.846 22.65-48.7 49.534-53.068 79.906-7.384 51.347 26.375 96.3 26.715 96.75l-11.762 9.008Z" fill="#6ec1ce" fill-rule="evenodd" data-name="Path 70"/><path d="M301.502 352.804c-1.532-2.002-37.435-49.667-28.894-107.448 5.286-35.76 26.395-67.16 62.747-93.335 1.96-1.47 27.206-19.951 70.89-30.067 26.028-6.027 53.284-7.83 81.012-5.35 34.528 3.084 69.867 12.843 105.04 29.01.06.027.118.056.176.085.773.379 77.918 38.391 137.41 72.57 47.479 27.413 96.506 36.071 108.629 25.504l9.737 11.167c-12.87 11.222-37.063 8.71-55.088 4.629-22.355-5.064-48.116-15.437-70.672-28.462-58.169-33.418-133.479-70.598-136.47-72.072-33.418-15.348-66.913-24.644-99.55-27.626-26.078-2.384-51.69-.766-76.125 4.806-41.702 9.508-65.885 27.496-66.124 27.677l-.145.107c-33.016 23.755-52.13 51.856-56.81 83.523-7.634 51.647 25.662 95.832 26 96.272l-11.763 9.01Z" fill="#ffc000" fill-rule="evenodd" data-name="Path 71"/><path d="M284.687 331.445c-1.516-1.981-37.04-49.212-28.186-107.176 5.652-37.013 28.065-69.584 66.622-96.814 1.969-1.445 29.038-20.882 75.658-31.623 27.719-6.387 56.673-8.363 86.06-5.87 36.614 3.105 73.99 13.188 111.087 29.972.067.031.136.062.201.095.797.389 80.229 39.332 142.212 76.345 22.345 13.376 48.076 23.914 70.597 28.918 21.614 4.801 38.495 3.966 45.154-2.238l10.1 10.84c-13.507 12.58-39.25 10.133-58.466 5.862-24.009-5.333-51.342-16.51-74.99-30.663-60.441-36.095-137.78-74.118-141.017-75.707-35.347-15.98-70.882-25.609-105.614-28.617-27.762-2.405-55.102-.61-81.257 5.332-44.633 10.141-70.72 29.124-70.98 29.314-.041.03-.092.069-.135.098-35.177 24.827-55.561 54.094-60.587 86.992-7.912 51.8 24.976 95.5 25.309 95.937l-11.768 9.003Z" fill="#db001a" fill-rule="evenodd" data-name="Path 72"/><path d="M179.336 700.257c-26.114 0-45.948-4.938-59.255-14.797-13.02-9.644-14.676-20.56-14.823-21.774l14.709-1.773-.025-.18c.045.258 1.2 6.398 9.73 12.377 22.677 15.9 67.456 12.134 101.028 6.178 37.587-6.67 68.582-16.495 94.754-30.036 13.872-7.175 31.283-20.295 49.025-36.942 2.637-2.477 19.54-21.757 30.87-47.462 13.961-31.672 13.86-59.087-.295-81.489l-53.07-67.41 11.642-9.166 53.3 67.704c.151.192.292.39.423.596 16.94 26.514 17.478 59.623 1.557 95.741-12.42 28.175-30.48 48.714-34.285 52.289-18.715 17.557-37.308 31.515-52.36 39.298-27.517 14.238-59.892 24.53-98.973 31.466-20.22 3.588-38.225 5.38-53.952 5.38" fill="#184833" fill-rule="evenodd" data-name="Path 73"/><path d="M178.065 668.451c-22.762 0-41.107-3.85-54.806-11.532-17.814-9.992-21.11-22.911-21.425-24.35l14.467-3.188-.036-.156c.094.353 2.472 8.72 15.774 15.596 13.164 6.804 39.418 13.155 89.732 4.78 35.277-5.825 64.827-14.943 90.343-27.879 12.817-6.496 31.4-20.05 47.34-34.526 5.894-5.355 21.239-23.666 31.047-46.083 12.626-28.858 12.39-54.469-.7-76.133l-54.617-69.394 11.643-9.163 54.893 69.744c.18.229.346.466.496.714 15.761 25.747 16.404 56.928 1.858 90.173-11.632 26.583-29.363 46.297-34.658 51.107-17.1 15.531-36.49 29.623-50.603 36.776-26.886 13.63-57.835 23.208-94.618 29.28-16.96 2.823-32.354 4.234-46.13 4.234" fill="#899c3a" fill-rule="evenodd" data-name="Path 74"/><path d="M173.731 637.002c-21.854 0-39.61-3.517-53.041-10.537-17.13-8.95-20.91-20.53-21.283-21.82l14.229-4.128-.055-.175c.11.319 12.118 31.815 99.288 18.573 33.052-5.022 61.155-13.437 85.907-25.725 7.29-3.615 26.204-14.977 45.634-32.105 6.666-5.871 21.778-22.759 31.263-44.657 11.284-26.046 10.904-49.875-1.127-70.831l-56.173-71.364 11.641-9.164 56.501 71.779c.21.27.406.554.578.85 33.184 56.93-13.81 117.702-32.888 134.505-17.883 15.762-37.853 28.809-48.842 34.26-26.149 12.98-55.675 21.844-90.267 27.101-15.093 2.293-28.898 3.438-41.365 3.438" fill="#6ec1ce" fill-rule="evenodd" data-name="Path 75"/><path d="M166.86 605.987c-56.404 0-68.926-23.408-71.573-31.76l14.124-4.476c.688 2.17 4.013 9.685 17.914 15.275 21.56 8.671 53.549 6.53 76.592 3.21 20.118-2.9 50.458-8.5 81.538-23.58 5.943-2.885 25.422-13.837 43.936-29.675 21.035-18.003 54.225-63.82 29.89-108.773l-57.72-73.327 11.644-9.163 58.101 73.812c.25.317.473.652.667 1.005 29.483 53.477-8.662 106.917-32.95 127.703-18.998 16.252-39.117 27.872-47.1 31.747-32.938 15.982-64.795 21.875-85.89 24.916-14.976 2.158-27.944 3.086-39.172 3.086" fill="#ffc000" fill-rule="evenodd" data-name="Path 76"/><path d="M166.683 574.273c-61.13 0-74.002-28.473-74.59-29.86l13.64-5.784c.03.07 3.69 7.475 17.847 13.499 11.927 5.074 34.007 10.136 71.463 5.42 20.204-2.542 47.223-7.276 77.078-21.427 2.258-1.07 22.604-10.913 42.234-27.24 6.595-5.492 22.9-20.558 31.759-41.683 8.562-20.419 7.854-40.733-2.103-60.387l-59.26-75.285 11.642-9.165 59.707 75.853c.291.368.545.764.76 1.18 24.869 48.126-.755 93.995-33.027 120.875-20.596 17.13-41.404 27.362-45.367 29.24-32.11 15.221-61.934 20.267-81.572 22.74-11.188 1.408-21.223 2.024-30.21 2.024" fill="#db001a" fill-rule="evenodd" data-name="Path 77"/></g></g><defs><clipPath id="a"><path d="M0 0h1437.36v884.368H0V0z" data-name="Rectangle 34"/></clipPath></defs></svg>