<svg xmlns="http://www.w3.org/2000/svg" width="46.428" height="56.421" viewBox="844.91 168.579 46.428 56.421"><g data-name="Group 21"><path d="M873.276 206.41c-.4 0-.806-.025-1.207-.074-4.415-.533-7.98-4.13-8.475-8.55-.315-2.812.543-5.515 2.418-7.611a9.757 9.757 0 0 1 7.264-3.257 9.642 9.642 0 0 1 6.91 2.896c.054.054.06.14.014.202l-1.422 1.926a.101.101 0 0 1-.159.006 7.115 7.115 0 0 0-5.343-2.421 7.076 7.076 0 0 0-5.14 2.192 7.08 7.08 0 0 0-1.99 5.227c.146 3.78 3.348 6.855 7.137 6.855l.197-.003a7.089 7.089 0 0 0 5.415-2.745.101.101 0 0 1 .162.002l1.428 1.969a.158.158 0 0 1-.01.197 9.743 9.743 0 0 1-7.199 3.189" fill="#fff" fill-rule="evenodd" data-name="Path 108"/><path d="M873.28 211.033c-.687 0-1.385-.05-2.074-.147-6.456-.916-11.585-6.296-12.195-12.791-.385-4.092.917-8.01 3.667-11.029a14.361 14.361 0 0 1 10.594-4.694l.265.002a14.259 14.259 0 0 1 9.584 3.929.157.157 0 0 1 .016.208l-1.414 1.843a.15.15 0 0 1-.226.014 11.622 11.622 0 0 0-8.007-3.385l-.217-.002a11.746 11.746 0 0 0-8.665 3.839c-2.249 2.469-3.315 5.672-3 9.017.494 5.27 4.65 9.666 9.883 10.453.594.089 1.195.134 1.787.134 3.08 0 5.974-1.19 8.183-3.356a.15.15 0 0 1 .229.02l1.338 1.918a.158.158 0 0 1-.022.205 14.254 14.254 0 0 1-9.726 3.822" fill="#fff" fill-rule="evenodd" data-name="Path 109"/><path d="M873.277 220.164c-.385 0-.772-.01-1.16-.028-11.879-.575-21.458-9.947-22.282-21.8-.458-6.588 1.765-12.87 6.26-17.69 4.437-4.755 10.699-7.482 17.182-7.482a23.48 23.48 0 0 1 15.112 5.525.156.156 0 0 1 .025.211l-1.37 1.853a.15.15 0 0 1-.218.024 20.857 20.857 0 0 0-13.55-5.004 20.962 20.962 0 0 0-15.278 6.658c-3.997 4.287-5.972 9.875-5.56 15.735.717 10.188 8.931 18.493 19.107 19.318a20.832 20.832 0 0 0 15.502-5.128.15.15 0 0 1 .222.025l1.356 1.872a.156.156 0 0 1-.023.208 23.462 23.462 0 0 1-15.325 5.703" fill="#fff" fill-rule="evenodd" data-name="Path 110"/><path d="M873.277 215.578c-.496 0-1.001-.02-1.5-.058-9.254-.718-16.721-8.243-17.368-17.505-.37-5.304 1.418-10.361 5.037-14.241a18.98 18.98 0 0 1 13.83-6.026c4.557 0 8.947 1.643 12.388 4.632a.156.156 0 0 1 .023.21l-1.375 1.861a.15.15 0 0 1-.221.023 16.249 16.249 0 0 0-10.814-4.117 16.33 16.33 0 0 0-12.152 5.444c-3.136 3.505-4.574 8.023-4.05 12.723.857 7.7 7.094 13.752 14.828 14.389.457.037.919.057 1.374.057 4.12 0 8.038-1.54 11.064-4.34a.15.15 0 0 1 .225.021l1.357 1.873a.157.157 0 0 1-.022.207 18.845 18.845 0 0 1-12.624 4.847" fill="#fff" fill-rule="evenodd" data-name="Path 111"/><path d="m891.308 217.953-1.34-1.85a.15.15 0 0 0-.22-.026 25.445 25.445 0 0 1-18.522 5.982c-12.387-.977-22.426-11.057-23.352-23.447-.536-7.168 1.854-14.009 6.73-19.264 4.814-5.186 11.62-8.16 18.672-8.16a25.465 25.465 0 0 1 16.276 5.899.15.15 0 0 0 .218-.027l1.357-1.865a.156.156 0 0 0-.027-.211 28.097 28.097 0 0 0-20.337-6.295c-13.513 1.183-24.47 12.28-25.49 25.81-.46 6.112 1.018 12.006 4.194 17.046l-4.549 13.25a.154.154 0 0 0 .196.196l13.254-4.55a28.122 28.122 0 0 0 14.908 4.308 27.955 27.955 0 0 0 18.007-6.586.156.156 0 0 0 .025-.21" fill="#fff" fill-rule="evenodd" data-name="Path 112"/></g></svg>