<svg id="Layer_1" viewBox="0 0 512 512" xmlns="http://www.w3.org/2000/svg" xmlns:xlink="http://www.w3.org/1999/xlink" data-name="Layer 1"><linearGradient id="linear-gradient" gradientUnits="userSpaceOnUse" x1="26.101" x2="485.899" y1="256" y2="256"><stop offset="0" stop-color="#da16f2"/><stop offset="1" stop-color="#9b3bf5"/></linearGradient><path d="m353.53 310.669v-48.869c0-53.152-43.506-96.658-96.658-96.658h-1.267c-53.153 0-96.658 43.505-96.658 96.658v48.87zm-123.915-117.846c-5.747 1.743-8.394-6.988-2.648-8.73a72.275 72.275 0 0 1 21.071-3.132c6.029 0 6.029 9.16 0 9.16a63.75 63.75 0 0 0 -18.423 2.7zm-45.538 61.259c0 6.03-9.16 6.03-9.16 0a73.194 73.194 0 0 1 31.8-60.225 4.565 4.565 0 1 1 5.188 7.513 64 64 0 0 0 -27.828 52.712zm223.616-174.328h-303.386l-40.778 40.778v270.936l40.778 40.778h303.386l40.778-40.778v-270.936zm-257.906 230.915v-48.869c0-58.209 47.609-105.817 105.818-105.817h1.267c58.208 0 105.818 47.609 105.818 105.817v48.87c7.6 0 13.644-.821 19.553 5.089 6.065 6.065 5.089 12.557 5.089 20.423h3.189a4.579 4.579 0 0 1 4.579 4.579v44.554a4.58 4.58 0 0 1 -4.579 4.58h-268.565a4.581 4.581 0 0 1 -4.58-4.58v-44.555a4.58 4.58 0 0 1 4.58-4.579h3.189c0-7.865-.977-14.358 5.088-20.423 5.91-5.91 11.959-5.089 19.554-5.089zm237.576-58.721c-5.933 1.036-7.512-7.974-1.574-9.016l28.035-4.943c5.928-1.04 7.515 7.974 1.574 9.016zm-42-80.481a4.572 4.572 0 1 1 -7.013-5.868l18.3-21.807a4.572 4.572 0 1 1 7.012 5.868l-18.3 21.807zm-83.908-34.632c0 6.029-9.159 6.029-9.159 0v-28.468c0-6.029 9.159-6.029 9.159 0zm-86.555 27.408a4.572 4.572 0 0 1 -7.013 5.868l-18.3-21.808a4.572 4.572 0 0 1 7.012-5.868l18.3 21.808zm-48.693 76.611a4.576 4.576 0 0 1 -1.574 9.016l-28.033-4.944c-5.941-1.042-4.354-10.056 1.574-9.016zm8.093 87.151a8.211 8.211 0 0 1 8.176-8.176h227.524a8.212 8.212 0 0 1 8.176 8.176v8.176h-243.876zm251.637 52.729h-259.4v-35.394h259.4zm-283.526-310.134a4.565 4.565 0 0 0 -3.238 1.341l-43.432 43.427a4.567 4.567 0 0 0 -1.372 3.267v50.337l-28.269 28.269v-98.76l53.074-53.074h98.76l-25.187 25.193zm159.841-25.193-25.187 25.187h-71.365l25.187-25.188zm91.59 0-25.32 25.187h-78.5l25.178-25.187zm-299.472 297.905-28.27 28.121v-76.923l28.27-28.268zm-28.27-133.12 28.27-28.268v71.366l-28.27 28.269zm406.726-164.785 2.77 2.771-23.372 23.25a4.559 4.559 0 0 0 -2.635-.834h-68.117l25.319-25.187zm37.088 37.093-23.263 23.263-27.922-27.925 23.325-23.2zm-370.771 357.534a4.563 4.563 0 0 0 3.268 1.372h8.589l-25.183 25.187h-6.643l-25.554-25.555 23.324-23.2zm-73.043-26.515v-29.2l28.27-28.125v37.171a4.563 4.563 0 0 0 1.341 3.237l14.775 14.775-23.324 23.2zm459.8-315.038v52.348l-28.27 28.271v-60.465a4.563 4.563 0 0 0 -1.341-3.237l-3.163-3.163 23.264-23.263zm0 117.129-28.27 28.269v-51.83l28.27-28.269zm-225.8 225.795-25.187 25.188h-51.83l25.187-25.188zm-161.331 25.188 25.187-25.187h71.366l-25.187 25.188zm387.131-166.665-28.27 28.272v-71.369l28.27-28.269zm0 113.591-53.073 53.074h-100.641l25.187-25.188h52.216a4.565 4.565 0 0 0 3.238-1.341l43.432-43.432a4.567 4.567 0 0 0 1.372-3.267v-52.217l28.269-28.268zm-238.032 53.074 25.188-25.188h71.366l-25.188 25.188z" fill="url(#linear-gradient)" fill-rule="evenodd"/></svg>