<svg enable-background="new 0 0 72 72" height="512" viewBox="0 0 72 72" width="512" xmlns="http://www.w3.org/2000/svg"><g id="Layer_25"><g><path d="m61 58h-50c-.553 0-1 .447-1 1v4c0 .553.447 1 1 1h50c.553 0 1-.447 1-1v-4c0-.553-.447-1-1-1z"/><path d="m12 56h8c.553 0 1-.447 1-1v-16c0-.553-.447-1-1-1h-8c-.553 0-1 .447-1 1v16c0 .553.447 1 1 1z"/><path d="m25 56h8c.553 0 1-.447 1-1v-26c0-.553-.447-1-1-1h-8c-.553 0-1 .447-1 1v26c0 .553.447 1 1 1z"/><path d="m38 56h8c.553 0 1-.447 1-1v-36c0-.553-.447-1-1-1h-8c-.553 0-1 .447-1 1v36c0 .553.447 1 1 1z"/><path d="m51 56h8c.553 0 1-.447 1-1v-7c0-.553-.447-1-1-1h-8c-.553 0-1 .447-1 1v7c0 .553.447 1 1 1z"/><path d="m51 45h8c.553 0 1-.447 1-1v-35c0-.553-.447-1-1-1h-8c-.553 0-1 .447-1 1v35c0 .553.447 1 1 1z"/></g></g></svg>