<svg xmlns="http://www.w3.org/2000/svg" width="20.868" height="20.869" viewBox="9348.689 -1693.931 20.868 20.869"><g data-name="CompositeLayer"><path d="M9359.123-1692.051c2.786 0 3.116.011 4.216.061 1.018.046 1.57.216 1.938.359.487.19.835.416 1.2.781.365.365.591.713.78 1.2.143.367.313.92.36 1.937.05 1.1.06 1.43.06 4.217 0 2.786-.01 3.116-.06 4.216-.047 1.017-.217 1.57-.36 1.937a3.222 3.222 0 0 1-.78 1.2 3.245 3.245 0 0 1-1.2.781c-.368.143-.92.313-1.938.359-1.1.05-1.43.061-4.216.061-2.786 0-3.116-.011-4.216-.061-1.018-.046-1.57-.216-1.938-.359a3.245 3.245 0 0 1-1.2-.781 3.222 3.222 0 0 1-.78-1.2c-.143-.367-.313-.92-.36-1.937-.05-1.1-.06-1.43-.06-4.216 0-2.787.01-3.117.06-4.217.047-1.017.217-1.57.36-1.937a3.23 3.23 0 0 1 .78-1.2 3.245 3.245 0 0 1 1.2-.781c.368-.143.92-.313 1.938-.359 1.1-.05 1.43-.061 4.216-.061m0-1.88c-2.834 0-3.189.012-4.302.063-1.111.051-1.869.227-2.533.485a5.119 5.119 0 0 0-1.848 1.203 5.134 5.134 0 0 0-1.204 1.849c-.258.663-.434 1.422-.485 2.532-.05 1.114-.062 1.469-.062 4.303 0 2.833.012 3.189.062 4.302.051 1.11.227 1.869.485 2.533a5.122 5.122 0 0 0 1.204 1.848c.58.58 1.162.937 1.848 1.203.664.258 1.422.435 2.533.485 1.113.051 1.468.063 4.302.063 2.834 0 3.189-.012 4.302-.063 1.111-.05 1.869-.227 2.533-.485a5.106 5.106 0 0 0 1.848-1.203c.58-.58.937-1.162 1.204-1.848.258-.664.434-1.423.485-2.533.05-1.113.062-1.469.062-4.302 0-2.834-.012-3.189-.062-4.303-.051-1.11-.227-1.869-.485-2.532a5.134 5.134 0 0 0-1.204-1.849 5.119 5.119 0 0 0-1.848-1.203c-.664-.258-1.422-.434-2.533-.485-1.113-.051-1.468-.063-4.302-.063" fill="#184833" fill-rule="evenodd" data-name="Path 169"/><path d="M9359.123-1688.855a5.358 5.358 0 1 0 0 10.716 5.358 5.358 0 0 0 0-10.716m0 8.836a3.478 3.478 0 1 1 0-6.956 3.478 3.478 0 0 1 0 6.956" fill="#184833" fill-rule="evenodd" data-name="Path 170"/><path d="M9365.945-1689.067a1.252 1.252 0 1 1-2.504 0 1.252 1.252 0 0 1 2.504 0" fill="#184833" fill-rule="evenodd" data-name="Path 171"/></g></svg>