<svg xmlns:inkscape="http://www.inkscape.org/namespaces/inkscape" xmlns:sodipodi="http://sodipodi.sourceforge.net/DTD/sodipodi-0.dtd" xmlns="http://www.w3.org/2000/svg" xmlns:svg="http://www.w3.org/2000/svg" version="1.1" id="svg2" sodipodi:docname="New_LOGO ISYBANK_vettoriale_No sfondo.ai" viewBox="0 0 1215.03 1048.99">
  <defs id="defs6">
    <clipPath clipPathUnits="userSpaceOnUse" id="clipPath20">
      <path d="M 0,1048.991 H 1133.858 V 0 H 0 Z" id="path18"/>
    </clipPath>
  </defs>
  <sodipodi:namedview id="namedview4" pagecolor="#ffffff" bordercolor="#000000" borderopacity="0.25" inkscape:showpageshadow="2" inkscape:pageopacity="0.0" inkscape:pagecheckerboard="0" inkscape:deskcolor="#d1d1d1"/>
  <g id="g8" inkscape:groupmode="layer" inkscape:label="New_LOGO ISYBANK_vettoriale_No sfondo" transform="matrix(1.3333333,0,0,-1.3333333,0,1398.6533)">
    <path d="m 340.969,576.142 h 18.536 v 18.21 h -18.536 z" style="fill:#000000;fill-opacity:1;fill-rule:nonzero;stroke:none" id="path10"/>
    <path d="m 340.969,477.514 h 18.373 v 84.881 h -18.373 z" style="fill:#000000;fill-opacity:1;fill-rule:nonzero;stroke:none" id="path12"/>
    <g id="g14">
      <g id="g16" clip-path="url(#clipPath20)">
        <g id="g22" transform="translate(431.9017,523.083)">
          <path d="m 0,0 -0.007,0.003 c -5.297,2.648 -12.707,4.2 -19.245,5.57 -3.562,0.746 -6.926,1.45 -9.554,2.251 -6.728,1.946 -10.792,3.527 -10.501,9.065 0.132,4.114 4.496,8.917 16.362,8.917 8.585,0 13.004,-3.251 14.873,-5.188 1.816,-1.882 2.858,-4.172 2.788,-6.127 l -0.019,-0.527 h 17.879 l 0.026,0.48 c 0.314,5.821 -2.299,12.107 -7.17,17.248 -6.738,7.111 -16.758,11.027 -28.214,11.027 -21.094,0 -34.555,-13.025 -35.383,-25.609 -0.911,-10.784 5.377,-18.923 17.703,-22.91 2.686,-0.896 6.256,-1.674 10.035,-2.497 5.934,-1.293 12.658,-2.759 18.156,-5.114 6.286,-2.62 8.843,-5.454 8.293,-9.17 -1.126,-5.949 -8.083,-9.644 -18.155,-9.644 -13.351,0 -20.196,7.499 -20.907,14.468 l -0.047,0.456 h -18.024 l 0.025,-0.532 c 0.502,-10.884 9.458,-31.467 39.764,-31.467 19.834,0 36.16,12.108 37.167,27.568 C 16.545,-10.004 7.137,-3.713 0,0" style="fill:#000000;fill-opacity:1;fill-rule:nonzero;stroke:none" id="path24"/>
        </g>
        <g id="g26" transform="translate(493.3015,504.9764)">
          <path d="m 0,0 -23.826,56.609 h -19.267 l 33.62,-80.79 -2.355,-4.878 c -1.144,-3.288 -5.188,-5.498 -10.065,-5.498 h -8.78 v -15.778 l 9.108,-10e-4 c 0.29,0 0.585,-0.001 0.883,-0.001 4.7,0 10.305,0.132 14.454,2.503 3.23,1.863 9.008,6.041 11.411,13.064 L 42.289,56.609 H 23.187 Z" style="fill:#000000;fill-opacity:1;fill-rule:nonzero;stroke:none" id="path28"/>
        </g>
        <g id="g30" transform="translate(586.2552,547.7535)">
          <path d="m 0,0 c 14.395,0 23.338,-10.869 23.338,-28.366 0,-17.498 -8.943,-28.367 -23.338,-28.367 -14.411,0 -23.013,10.604 -23.013,28.367 C -23.013,-10.339 -14.626,0 0,0 m 3.082,16.913 c -10.116,0 -18.89,-3.374 -26.095,-10.03 V 46.598 H -41.711 V -70.564 h 18.698 v 7.271 c 7.425,-6.886 16.423,-10.516 26.095,-10.516 23.699,0 40.251,18.687 40.251,45.443 0,27.083 -16.176,45.279 -40.251,45.279" style="fill:#000000;fill-opacity:1;fill-rule:nonzero;stroke:none" id="path32"/>
        </g>
        <g id="g34" transform="translate(700.5455,518.2563)">
          <path d="m 0,0 v -7.629 c 0,-7.859 -9.99,-17.55 -24.864,-19.448 -3.749,-0.492 -16.112,-1.416 -17.765,7.215 -1.381,7.213 3.378,10.341 11.508,13.051 3.026,1.04 8.325,1.814 13.45,2.561 3.661,0.535 7.12,1.04 9.923,1.658 C -5.134,-1.864 -2.44,-1.115 0,0 m 21.535,-39.457 c -0.622,1.66 -2.513,6.712 -2.513,12.848 V 18.65 c 0,18.438 -19.433,28.085 -38.629,28.085 -13.16,0 -25.048,-4.45 -31.8,-11.904 -4.609,-5.089 -6.689,-11.374 -6.015,-18.177 l 0.045,-0.458 h 17.882 l -0.045,0.549 c -0.246,3.019 0.754,5.843 2.893,8.164 3.499,3.796 9.608,5.886 17.203,5.886 C -6.012,30.795 0,25.021 0,19.299 0,13.553 -5.49,12.502 -10.333,11.576 l -1.089,-0.212 c -3.443,-0.603 -7.064,-0.931 -10.897,-1.279 -6.36,-0.576 -12.936,-1.173 -19.172,-3.115 -15.033,-4.567 -22.554,-15.234 -20.634,-29.262 1.699,-13.453 13.021,-21.694 29.284,-21.694 1.311,10e-4 2.656,0.054 4.028,0.162 10.499,0.84 21.179,5.526 28.783,12.588 0.625,-4.371 1.875,-7.414 2.848,-9.238 l 0.143,-0.268 h 18.961 l -0.158,0.631 c -0.025,0.103 -0.106,0.327 -0.229,0.654" style="fill:#000000;fill-opacity:1;fill-rule:nonzero;stroke:none" id="path36"/>
        </g>
        <g id="g38" transform="translate(786.0066,564.3386)">
          <path d="m 0,0 c -14.385,1.7 -23.769,-4.521 -29.724,-9.751 v 6.835 h -18.698 v -84.233 h 18.698 v 47.551 c 0,12.785 8.463,21.715 20.581,21.715 11.764,0 17.01,-6.047 17.01,-19.608 l 0.165,-49.658 h 18.533 v 57.284 C 26.565,-16.653 17.251,-1.694 0,0" style="fill:#000000;fill-opacity:1;fill-rule:nonzero;stroke:none" id="path40"/>
        </g>
        <g id="g42" transform="translate(869.6834,528.4337)">
          <path d="M 0,0 34.782,34.287 H 11.766 L -21.428,2.999 V 65.918 H -40.125 V -51.244 h 18.697 v 31.91 l 8.52,7.454 32.749,-39.202 h 21.746 z" style="fill:#000000;fill-opacity:1;fill-rule:nonzero;stroke:none" id="path44"/>
        </g>
        <g id="g46" transform="translate(213.9997,477.515)">
          <path d="m 0,0 c 0,53.957 43.898,97.854 97.855,97.854 v 18.968 C 33.439,116.822 -18.968,64.415 -18.968,0 v 0 z" style="fill:#1b99fb;fill-opacity:1;fill-rule:nonzero;stroke:none" id="path48"/>
        </g>
        <g id="g50" transform="translate(250.2057,477.515)">
          <path d="M 0,0 C 0,33.993 27.655,61.648 61.649,61.649 V 80.616 C 17.197,80.616 -18.968,44.452 -18.968,0 v 0 z" style="fill:#26e5ae;fill-opacity:1;fill-rule:nonzero;stroke:none" id="path52"/>
        </g>
        <g id="g54" transform="translate(286.4599,477.515)">
          <path d="M 0,0 C 0,14.002 11.392,25.394 25.395,25.394 V 44.362 C 0.933,44.362 -18.968,24.461 -18.968,0 v 0 z" style="fill:#ff6200;fill-opacity:1;fill-rule:nonzero;stroke:none" id="path56"/>
        </g>
      </g>
    </g>
  </g>
</svg>