<svg xmlns="http://www.w3.org/2000/svg" width="42.628" height="37.299" viewBox="86.063 -7 42.628 37.299"><path d="m104.204-.847 10.224 10.224c.6.6.941 1.423.941 2.273 0 .849-.341 1.673-.94 2.273l-10.225 10.224a2.825 2.825 0 0 1-4.82-1.998v-5.17H88.727a2.661 2.661 0 0 1-2.664-2.665V8.985a2.661 2.661 0 0 1 2.664-2.664h10.657v-5.17a2.825 2.825 0 0 1 4.82-1.998ZM115.37 24.97h5.329a2.661 2.661 0 0 0 2.664-2.664V.993a2.661 2.661 0 0 0-2.664-2.665h-5.329a2.661 2.661 0 0 1-2.664-2.664A2.661 2.661 0 0 1 115.369-7h5.329A7.995 7.995 0 0 1 128.69.993v21.314a7.995 7.995 0 0 1-7.992 7.992h-5.329a2.661 2.661 0 0 1-2.664-2.664 2.661 2.661 0 0 1 2.664-2.664Z" fill="#fff" fill-rule="evenodd" data-name="right-to-bracket-solid"/></svg>