<svg xmlns="http://www.w3.org/2000/svg" width="146.362" height="111.001"><g data-name="Group 54" clip-path="url(&quot;#a&quot;)"><path d="M110.652 25.015c-2.139-4.976-5.036-9.32-8.692-13.039-3.665-3.714-7.97-6.637-12.92-8.772C84.083 1.076 78.816.001 73.226.001c-5.633 0-10.89 1.075-15.765 3.203-4.876 2.135-9.131 5.058-12.765 8.772-3.633 3.719-6.492 8.063-8.562 13.04-2.091 4.982-3.129 10.292-3.129 15.925 0 5.686 1.038 11.02 3.129 16.007a41.18 41.18 0 0 0 3.51 6.685l-5.74 18.249L51.93 75.75a42.198 42.198 0 0 0 5.531 2.934c4.875 2.133 10.132 3.198 15.765 3.198 5.59 0 10.857-1.065 15.812-3.198 4.951-2.144 9.256-5.041 12.921-8.734 3.656-3.694 6.553-8.025 8.692-13.002 2.128-4.986 3.197-10.32 3.197-16.007 0-5.633-1.069-10.943-3.197-15.926" fill="#f10b1b" fill-rule="evenodd" data-name="Path 174"/><path d="M91.57 62.241a8.242 8.242 0 0 1-1.208.941 36.934 36.934 0 0 1-7.66 3.902c-2.76 1.026-5.685 1.543-8.781 1.543-3.742 0-7.28-.704-10.606-2.107-3.315-1.407-6.224-3.338-8.7-5.794-2.48-2.463-4.44-5.339-5.881-8.623-1.43-3.3-2.15-6.851-2.15-10.659 0-3.775.72-7.329 2.15-10.678 1.44-3.343 3.402-6.256 5.88-8.728 2.477-2.473 5.386-4.44 8.701-5.885 3.326-1.437 6.864-2.156 10.606-2.156 2.88 0 5.61.458 8.19 1.37 2.59.904 5.155 2.172 7.718 3.81h-.053c.606.394 1.08.781 1.42 1.178.337.381.499.887.499 1.488 0 .177-.028.399-.097.64a1.869 1.869 0 0 1-.275.592l-4.1 7.105.043-.055c-.522.743-1.118 1.12-1.759 1.12-.39 0-.96-.231-1.708-.693-1.248-.995-2.751-1.822-4.516-2.479-1.761-.66-3.515-.994-5.256-.994-1.961 0-3.79.381-5.476 1.15a14.463 14.463 0 0 0-4.43 3.123c-1.268 1.323-2.25 2.854-2.966 4.595-.715 1.747-1.065 3.597-1.065 5.553 0 2.032.35 3.887 1.038 5.578.7 1.694 1.645 3.15 2.86 4.35 1.204 1.22 2.643 2.15 4.3 2.81 1.649.656 3.45.984 5.37.984 2.095-.031 3.927-.328 5.491-.882a53.232 53.232 0 0 0 4.92-2.048c.601-.366 1.155-.537 1.645-.537.509.032.912.264 1.228.692.324.427.662.904 1.018 1.447l3.794 5.707c.108.185.204.384.29.62.085.23.14.399.14.505 0 .638-.21 1.14-.613 1.515" fill="#fff" fill-rule="evenodd" data-name="Path 175"/><path d="M46.837 98.038c-.291-.236-.598-.468-.918-.688a8.112 8.112 0 0 0-1.071-.597 6.298 6.298 0 0 0-1.219-.42 5.6 5.6 0 0 0-1.377-.16c-.887 0-1.73.157-2.532.462a6.507 6.507 0 0 0-2.107 1.328 6.559 6.559 0 0 0-1.445 2.03c-.35.79-.532 1.661-.532 2.609 0 .988.183 1.885.532 2.68.366.808.84 1.49 1.445 2.055a6.327 6.327 0 0 0 2.091 1.322c.796.301 1.64.462 2.532.474.737 0 1.515-.163 2.339-.49a7.577 7.577 0 0 0 2.272-1.424c.126-.103.306-.142.41-.099.113.05.118.087.144.114l.576.806c.016.043.063.098.086.189.02.102-.039.226-.173.356-.37.375-.8.691-1.267.998a9.794 9.794 0 0 1-1.457.731 8.827 8.827 0 0 1-1.517.458c-.52.102-1.014.15-1.494.14a8.679 8.679 0 0 1-2.1-.303 8.885 8.885 0 0 1-1.953-.837 8.39 8.39 0 0 1-1.692-1.258 8.277 8.277 0 0 1-2.21-3.65 7.76 7.76 0 0 1-.312-2.262c0-1.152.223-2.225.657-3.237a8.454 8.454 0 0 1 1.779-2.612 8.66 8.66 0 0 1 2.66-1.742 8.315 8.315 0 0 1 3.283-.645c.554 0 1.103.077 1.641.21.527.14 1.036.329 1.526.555.495.224.947.478 1.375.763.421.285.796.554 1.13.827.113.08.177.183.183.291.02.112-.006.214-.098.328l-.639.698c-.076.077-.135.13-.247.124a.47.47 0 0 1-.301-.124" fill="#1d1d1b" fill-rule="evenodd" data-name="Path 176"/><path d="M0 87.03c0-.172.043-.311.136-.41.084-.106.208-.155.37-.155h.854c.193 0 .322.05.397.156.07.098.12.237.12.408v21.725h12.9c.17 0 .31.039.418.108.106.07.167.194.167.381v.824c0 .192-.06.328-.167.412a.652.652 0 0 1-.419.136H.506c-.339 0-.506-.183-.506-.523V87.03Z" fill="#1d1d1b" fill-rule="evenodd" data-name="Path 177"/><path d="M16.846 95.35c0-.215.065-.382.171-.496a.678.678 0 0 1 .485-.175h.645c.232 0 .387.059.466.165.086.108.136.27.136.484v9.04c0 .667.133 1.296.393 1.872.267.574.617 1.069 1.069 1.5.44.428.96.768 1.553 1.01a5.2 5.2 0 0 0 1.908.365c.666 0 1.29-.13 1.885-.377a4.896 4.896 0 0 0 1.56-1.014c.44-.42.789-.936 1.066-1.512.261-.58.395-1.205.395-1.87V95.28c0-.393.2-.601.603-.601h.666c.42 0 .635.208.635.601v14.743a.571.571 0 0 1-.175.437.677.677 0 0 1-.45.155h-.532c-.205 0-.348-.061-.439-.167a.843.843 0 0 1-.163-.425l-.145-1.908c-.268.415-.58.796-.934 1.146-.354.35-.74.644-1.167.908a6.28 6.28 0 0 1-1.384.601 5.755 5.755 0 0 1-1.566.214 6.454 6.454 0 0 1-2.607-.524 6.341 6.341 0 0 1-2.113-1.431 7.027 7.027 0 0 1-1.44-2.123 6.508 6.508 0 0 1-.521-2.618V95.35Z" fill="#1d1d1b" fill-rule="evenodd" data-name="Path 178"/><path d="M62.488 98.044a9.892 9.892 0 0 0-.92-.684 6.991 6.991 0 0 0-1.06-.596 6.498 6.498 0 0 0-1.224-.418 5.131 5.131 0 0 0-1.382-.167c-.88 0-1.735.157-2.531.467-.8.323-1.504.763-2.113 1.33a6.47 6.47 0 0 0-1.429 2.03c-.361.795-.536 1.656-.536 2.617 0 .983.175 1.875.536 2.677a6.419 6.419 0 0 0 1.43 2.054 6.312 6.312 0 0 0 2.102 1.311c.796.31 1.645.466 2.53.484.737 0 1.523-.161 2.333-.496a7.455 7.455 0 0 0 2.274-1.428c.125-.103.3-.14.414-.09.107.046.114.078.146.117l.562.81c.028.027.07.082.098.177.022.098-.043.222-.17.355-.384.366-.809.7-1.27.995-.462.29-.952.537-1.463.743a8.669 8.669 0 0 1-1.519.446 7.164 7.164 0 0 1-1.484.144 8.677 8.677 0 0 1-2.109-.307 8.633 8.633 0 0 1-1.956-.828 8.22 8.22 0 0 1-1.68-1.263 8.338 8.338 0 0 1-2.215-3.654 8.1 8.1 0 0 1-.318-2.247c0-1.155.22-2.236.662-3.24a8.208 8.208 0 0 1 1.788-2.619 8.437 8.437 0 0 1 2.65-1.747 8.515 8.515 0 0 1 3.28-.639c.558 0 1.107.071 1.643.21a9.3 9.3 0 0 1 1.54.549c.477.23.939.487 1.363.768.415.28.796.565 1.129.828.117.09.184.183.194.29a.382.382 0 0 1-.108.327l-.639.694c-.076.077-.13.135-.247.128a.473.473 0 0 1-.301-.128" fill="#1d1d1b" fill-rule="evenodd" data-name="Path 179"/><path d="M67.616 96.904a.36.36 0 0 1-.124-.297c0-.09.043-.187.124-.295.076-.112.059-.096.155-.186a12.287 12.287 0 0 1 2.608-1.372 8.176 8.176 0 0 1 2.935-.533c.768 0 1.51.102 2.228.324a5.72 5.72 0 0 1 1.927 1.01c.574.457 1.031 1.038 1.419 1.73.37.704.585 1.533.648 2.5.022.264.044.517.055.78.006.252.006.531.006.81v8.745c0 .312-.151.47-.47.47h-.778c-.316 0-.477-.158-.477-.47l-.055-2.6a8.416 8.416 0 0 1-.881 1.35 5.255 5.255 0 0 1-1.209 1.1c-.458.317-.99.564-1.586.743-.597.177-1.29.273-2.081.273-1.026 0-1.913-.155-2.654-.446-.737-.285-1.35-.676-1.816-1.155a4.503 4.503 0 0 1-1.038-1.655 5.332 5.332 0 0 1-.34-1.899c0-.58.109-1.128.34-1.678.22-.531.565-1.02 1.042-1.44.478-.406 1.097-.746 1.844-1.004.753-.259 1.672-.387 2.736-.387h5.611v-.756c0-.631-.096-1.217-.279-1.765a4.082 4.082 0 0 0-.812-1.43 3.869 3.869 0 0 0-1.381-.966c-.549-.238-1.194-.356-1.93-.356-.775 0-1.488.096-2.139.307a8.291 8.291 0 0 0-1.708.742c-.05.026-.228.128-.303.187-.074.06-.155.108-.245.173-.093.065-.185.116-.281.177a.465.465 0 0 1-.236.08c-.065.007-.189-.064-.264-.133m9.659 5.454c-.942 0-1.881.006-2.801.012-.924.006-1.865.01-2.823.01-1.395 0-2.445.238-3.132.73-.698.494-1.048 1.188-1.048 2.092 0 .391.069.79.204 1.181.14.4.362.765.678 1.087.311.317.73.586 1.247.79.526.21 1.173.307 1.94.307.742 0 1.462-.114 2.144-.334a4.914 4.914 0 0 0 1.84-1.07c.52-.489.95-1.133 1.271-1.918.324-.784.48-1.753.48-2.887" fill="#1d1d1b" fill-rule="evenodd" data-name="Path 180"/><path d="M122.869 107.134c.462.01.935-.055 1.401-.204a6.79 6.79 0 0 0 1.329-.576c.179-.087.338-.183.483-.3.158-.115.297-.172.415-.172.173 0 .338.096.505.293l1.197 1.914c.098.161.151.307.151.425a.678.678 0 0 1-.165.436c-.108.114-.222.23-.355.344-.688.533-1.441.94-2.247 1.258a7.388 7.388 0 0 1-2.612.45c-1.134 0-2.21-.22-3.214-.65a8.446 8.446 0 0 1-2.633-1.777c-.765-.76-1.354-1.645-1.806-2.652a8.155 8.155 0 0 1-.653-3.256c0-1.119.216-2.188.647-3.192a8.632 8.632 0 0 1 1.757-2.662 8.467 8.467 0 0 1 2.586-1.806 7.262 7.262 0 0 1 3.123-.682c1.036 0 2.02.199 2.956.58.936.403 1.746.93 2.44 1.602a7.603 7.603 0 0 1 1.645 2.349c.408.904.617 1.865.617 2.881 0 .827-.08 1.45-.23 1.828-.14.381-.448.58-.914.58h-10.11c.043.462.192.882.434 1.248.238.37.538.682.877.945.35.263.737.452 1.155.592.415.133.822.204 1.22.204m3.322-6.112a2.915 2.915 0 0 0-.306-1.166 3.37 3.37 0 0 0-.753-.953 3.49 3.49 0 0 0-1.095-.649 3.89 3.89 0 0 0-1.356-.244c-.403 0-.806.089-1.187.244a3.725 3.725 0 0 0-1.085.645 3.66 3.66 0 0 0-.806.951c-.212.36-.352.747-.405 1.172h6.993Z" fill="#1d1d1b" fill-rule="evenodd" data-name="Path 181"/><path d="M146.352 100.668c-.012-.195-.022-.39-.04-.572-.068-1.02-.31-1.903-.74-2.65-.43-.747-.961-1.37-1.618-1.853a6.848 6.848 0 0 0-2.191-1.113 8.806 8.806 0 0 0-2.494-.365c-.712 0-1.362.055-1.952.161a8.951 8.951 0 0 0-1.641.434c-.498.19-.971.415-1.413.679a20.29 20.29 0 0 0-1.284.876 2.63 2.63 0 0 0-.356.31c-.086.093-.121.227-.121.42 0 .098.068.221.176.367l.995 1.407c.065.096.143.199.246.322.114.112.206.173.324.173.102 0 .22-.027.338-.076l1.386-.714a7.82 7.82 0 0 1 .984-.403 7.19 7.19 0 0 1 1.014-.265 4.85 4.85 0 0 1 .905-.09c2.215 0 3.315.888 3.315 2.655v.515c-.692 0-1.38.012-2.073.012-.682.015-1.372.015-2.054.015h-.548c-.785 0-1.522.109-2.21.325a5.659 5.659 0 0 0-1.794.912c-.527.399-.926.88-1.215 1.434-.29.56-.44 1.174-.44 1.862 0 .772.134 1.503.397 2.176a4.87 4.87 0 0 0 1.177 1.747c.521.495 1.166.886 1.919 1.171.752.291 1.623.42 2.602.42.49 0 .979-.048 1.435-.162a5.429 5.429 0 0 0 1.289-.484 5.272 5.272 0 0 0 1.06-.764c.322-.301.575-.637.78-.999l.143 1.41c.07.273.151.461.248.542.09.086.263.128.52.128h2.21a.83.83 0 0 0 .527-.171.592.592 0 0 0 .204-.478v-8.729c0-.194-.006-.393-.01-.585m-4.38 4.986a2.69 2.69 0 0 1-.84 1.103 3.08 3.08 0 0 1-1.209.542c-.462.097-.945.14-1.456.14-.494 0-.88-.06-1.195-.173a2.03 2.03 0 0 1-.735-.466 1.524 1.524 0 0 1-.372-.64 2.584 2.584 0 0 1-.102-.73c0-.47.189-.845.576-1.152.387-.296 1.016-.434 1.887-.434h3.756c0 .74-.103 1.342-.31 1.81" fill="#1d1d1b" fill-rule="evenodd" data-name="Path 182"/><path d="M114.054 99.07c-.006.006-.01.006-.01.021l-.006.006.016-.027Z" fill="#f6f9ed" fill-rule="evenodd" data-name="Path 183"/><path d="M113.071 95.732h.027c-.784-.499-1.58-.892-2.37-1.16a7.306 7.306 0 0 0-2.494-.426c-1.15 0-2.225.22-3.241.669a8.546 8.546 0 0 0-2.655 1.794 8.424 8.424 0 0 0-1.789 2.66 8.066 8.066 0 0 0-.658 3.144h-.004v7.396c0 .554.294.85.886.85h2.376c.592 0 .871-.296.871-.85v-7.396c.028-.548.114-1.063.316-1.562a4.55 4.55 0 0 1 .905-1.398 4.34 4.34 0 0 1 1.358-.963 4.007 4.007 0 0 1 1.666-.34 4.64 4.64 0 0 1 1.608.297c.53.2.995.456 1.38.753.228.15.399.22.507.22.197 0 .375-.112.53-.329l1.253-2.17a.68.68 0 0 0 .086-.184c.018-.075.034-.128.034-.193a.637.637 0 0 0-.162-.452c-.092-.122-.241-.236-.43-.36" fill="#1d1d1b" fill-rule="evenodd" data-name="Path 184"/><path d="M97.365 109.013c-.13.108-.248.199-.366.28-.72.477-1.493.876-2.337 1.192a7.664 7.664 0 0 1-2.682.468 8.349 8.349 0 0 1-3.232-.639 8.682 8.682 0 0 1-2.66-1.763 8.601 8.601 0 0 1-1.783-2.64c-.44-.994-.657-2.085-.657-3.24 0-1.154.216-2.241.657-3.263a8.654 8.654 0 0 1 1.782-2.661 8.807 8.807 0 0 1 2.661-1.795 8.152 8.152 0 0 1 3.232-.656c.874 0 1.714.14 2.504.414.784.274 1.57.673 2.354 1.168h-.021c.182.118.326.236.44.354a.692.692 0 0 1 .151.458c0 .057-.021.118-.037.192a.464.464 0 0 1-.083.183l-1.252 2.166.018-.016c-.167.232-.344.344-.539.344-.117 0-.288-.074-.516-.214a5.131 5.131 0 0 0-1.374-.759 4.69 4.69 0 0 0-1.608-.296c-.596 0-1.156.114-1.673.343-.515.238-.96.56-1.358.954a4.438 4.438 0 0 0-.892 1.407 4.302 4.302 0 0 0-.328 1.688c0 .617.106 1.187.316 1.698.21.521.505.968.877 1.33.365.375.806.663 1.305.852.513.205 1.05.307 1.635.307.645-.01 1.205-.102 1.677-.27.483-.17.988-.38 1.5-.623.188-.102.353-.167.51-.167.15.006.273.087.364.217.104.123.212.279.312.44l1.162 1.741a.7.7 0 0 1 .086.189.494.494 0 0 1 .044.155c0 .189-.061.344-.189.462" fill="#1d1d1b" fill-rule="evenodd" data-name="Path 185"/></g><defs><clipPath id="a"><path d="M0 0h146.362v111.001H0V0z" data-name="Rectangle 62"/></clipPath></defs></svg>