<svg clip-rule="evenodd" fill-rule="evenodd" height="512" stroke-linejoin="round" stroke-miterlimit="2" viewBox="0 0 267 267" width="512" xmlns="http://www.w3.org/2000/svg"><g id="ICON"><path d="m50 120.833h-26.592l13.652 27.304c.587 1.173.587 2.553 0 3.726 0 0-13.652 27.304-13.652 27.304h58.568l-2.809-12.5h-25c-2.302 0-4.167-1.866-4.167-4.167zm166.667 0v41.667c0 2.301-1.866 4.167-4.167 4.167h-25l-2.809 12.5h58.567l-13.651-27.304c-.587-1.173-.587-2.553 0-3.726 0 0 13.651-27.304 13.651-27.304zm-4.167-16.666v58.333h-158.333v-58.333z" fill="rgb(0,0,0)"/></g></svg>