<svg id="Layer_1" enable-background="new 0 0 64 64" height="512" viewBox="0 0 64 64" width="512" xmlns="http://www.w3.org/2000/svg"><g><path d="m63.9 25.6c-.1-.2-.2-.3-.3-.3h-.1s-.1-.1-.1-.1c-13.9-5.4-24-11.2-30.7-17.7 0 0 0 0-.1 0-.1-.1-.1-.1-.2-.1h-.1c-.1 0-.2-.1-.3-.1-.1 0-.2 0-.3.1h-.1c-.1 0-.1.1-.2.1-6.8 6.5-16.9 12.3-30.8 17.7-.1 0-.1.1-.1.1h-.1c-.1.1-.1.1-.2.2 0 0-.1.1-.1.1-.1.2-.1.3-.1.4v24.8c0 .4.3.8.7.9l16 4.9h.3.1l9.4-.8c.5-.1.9-.5.9-1v-11.8l4.6-4 4.6 4v12c0 .5.4.9.9 1l9.4.8h.1.3l16-4.9c.4-.1.7-.5.7-.9v-24.9c0-.2 0-.3-.1-.5zm-31.9-14.9c3 7 7.2 13.3 12.8 19.2h-25.5c5.5-5.9 9.7-12.2 12.7-19.2zm-15.9 43.8-14.2-4.3v-22.8l14.1 4.3v22.8zm.6-24.6-12.8-4c10.8-4.4 19.2-9 25.4-14.1-3 6.5-7.2 12.4-12.6 18.1zm29.3 24.8-7.5-.6v-11.6c0-.3-.1-.5-.3-.7l-5.6-4.9c-.4-.3-.9-.3-1.3 0l-5.6 4.9c-.2.2-.3.5-.3.7v11.5l-7.4.7v-22.8h28zm-11.3-42.9c6.3 5.1 14.6 9.7 25.4 14.1l-12.8 3.9c-5.4-5.6-9.6-11.5-12.6-18zm27.4 38.4-14.1 4.3v-22.8l14.1-4.3z" fill="#322e63"/><g fill="#edc45f"><path d="m16.1 31.7v22.8l-14.2-4.3v-22.8z"/><path d="m29.4 11.8c-3.1 6.5-7.2 12.4-12.6 18l-12.9-3.9c10.8-4.3 19.2-9 25.5-14.1z"/><path d="m62.1 27.4v22.8l-14.1 4.3v-22.8z"/></g><path d="m62.1 27.4v22.8l-14.1 4.3v-1.2l13.2-4v-21.7z" fill="#e2b34b"/><path d="m60.1 25.9-12.8 3.9c-5.4-5.6-9.5-11.5-12.6-18 6.2 5.1 14.6 9.8 25.4 14.1z" fill="#edc45f"/><path d="m60.1 25.9-12.8 3.9c-.3-.3-.6-.6-.8-.9l12-3.7c.5.3 1 .5 1.6.7z" fill="#e2b34b"/><path d="m46 31.9v22.8l-7.5-.6v-11.6c0-.3-.1-.5-.3-.7l-5.6-4.9c-.4-.3-.9-.3-1.3 0l-5.6 4.9c-.2.2-.3.5-.3.7v11.5l-7.4.7v-22.8z" fill="#ffdc7b"/><path d="m46 31.9v22.8l-7.5-.6v-.8l6.6.5v-21.9z" fill="#edc45f"/><path d="m25.5 53.1v1l-7.5.6v-.9z" fill="#edc45f"/><path d="m44.8 30h-25.5c5.5-6 9.7-12.3 12.7-19.3 3 7 7.2 13.3 12.8 19.3z" fill="#ffdc7b"/><path d="m44.8 30h-25.5c.3-.3.5-.6.8-.9h23.9c.2.3.5.6.8.9z" fill="#edc45f"/></g></svg>