<svg id="Layer_1" enable-background="new 0 0 64 64" height="512" viewBox="0 0 64 64" width="512" xmlns="http://www.w3.org/2000/svg"><g><path d="m64 26.3v24.3l-15 4.5v-24.2z"/><path d="m15 30.9v24.2l-15-4.5v-24.3z"/><path d="m46.9 31.1v24.3l-7.9-.7v-12.3c0-.3-.1-.6-.4-.8l-5.9-5.2c-.4-.3-1-.3-1.4 0l-5.9 5.2c-.2.2-.4.5-.4.8v12.3l-7.9.7v-24.3z"/><path d="m61.9 24.8-13.6 4.2c-5.7-6-10.2-12.3-13.4-19.2 6.6 5.4 15.5 10.3 27 15z"/><path d="m29.2 9.8c-3.3 6.9-7.7 13.2-13.4 19.2l-13.7-4.2c11.5-4.7 20.4-9.6 27.1-15z"/><path d="m45.6 29.1h-27.2c5.9-6.4 10.4-13.1 13.6-20.5 3.2 7.4 7.7 14.1 13.6 20.5z"/></g></svg>