<svg id="Capa_1" enable-background="new 0 0 512 512" height="512" viewBox="0 0 512 512" width="512" xmlns="http://www.w3.org/2000/svg" xmlns:xlink="http://www.w3.org/1999/xlink"><linearGradient id="SVGID_1_" gradientUnits="userSpaceOnUse" x1="74.98" x2="437.019" y1="437.019" y2="74.98"><stop offset="0" stop-color="#ff4d5f"/><stop offset="1" stop-color="#fffa78"/></linearGradient><radialGradient id="SVGID_00000025443812800950111880000009499803627080874423_" cx="256" cy="256" gradientUnits="userSpaceOnUse" r="256"><stop offset="0" stop-color="#ff4d5f" stop-opacity=".7"/><stop offset=".0929" stop-color="#ff6451" stop-opacity=".635"/><stop offset=".314" stop-color="#ff9735" stop-opacity=".48"/><stop offset=".5225" stop-color="#ffbe1e" stop-opacity=".334"/><stop offset=".7126" stop-color="#ffdb0d" stop-opacity=".201"/><stop offset=".8779" stop-color="#ffec04" stop-opacity=".086"/><stop offset="1" stop-color="#fff200" stop-opacity="0"/></radialGradient><linearGradient id="lg1"><stop offset="0" stop-color="#eb1337"/><stop offset=".3" stop-color="#ff4747"/><stop offset=".4123" stop-color="#ff5640"/><stop offset=".6262" stop-color="#ff7c2b"/><stop offset=".9172" stop-color="#ffb80a"/><stop offset="1" stop-color="#ffcb00"/></linearGradient><linearGradient id="SVGID_00000155123587475632192270000004563466554780556929_" gradientUnits="userSpaceOnUse" x1="-109.765" x2="663.795" xlink:href="#lg1" y1="698.931" y2="-74.628"/><linearGradient id="SVGID_00000106833151398387946880000018258800133914001571_" gradientUnits="userSpaceOnUse" x1="-160.784" x2="612.47" xlink:href="#lg1" y1="644.616" y2="-128.637"/><linearGradient id="SVGID_00000176746593809163066460000001369111142484033416_" gradientUnits="userSpaceOnUse" x1="-207.185" x2="558.2" xlink:href="#lg1" y1="586.073" y2="-179.312"/><linearGradient id="lg2"><stop offset="0" stop-color="#ffcb00"/><stop offset=".5" stop-color="#fffa78"/><stop offset=".7392" stop-color="#fefca7"/><stop offset="1" stop-color="#feffd6"/></linearGradient><linearGradient id="SVGID_00000170270462135444760610000000711549430452457874_" gradientUnits="userSpaceOnUse" x1="-178.874" x2="1090.994" xlink:href="#lg2" y1="690.875" y2="-578.993"/><linearGradient id="lg3"><stop offset="0" stop-color="#fffa78"/><stop offset=".6249" stop-color="#fffdcf"/><stop offset=".9973" stop-color="#fff"/></linearGradient><linearGradient id="SVGID_00000077288905247751552340000012123575332289180065_" gradientUnits="userSpaceOnUse" x1="-474.31" x2="374.598" xlink:href="#lg3" y1="986.31" y2="137.402"/><linearGradient id="SVGID_00000136413608813046543260000010230894318904419504_" gradientUnits="userSpaceOnUse" x1="-21.974" x2="744.58" xlink:href="#lg1" y1="533.974" y2="-232.58"/><linearGradient id="SVGID_00000065066353329962224360000009286739771435679916_" gradientUnits="userSpaceOnUse" x1="-19.596" x2="337.587" xlink:href="#lg1" y1="424.205" y2="67.022"/><linearGradient id="SVGID_00000101073863598264369890000016151802495824648103_" gradientUnits="userSpaceOnUse" x1="92.87" x2="312.685" xlink:href="#lg1" y1="311.744" y2="91.929"/><linearGradient id="SVGID_00000168814113280291734980000008324090994997474439_" gradientUnits="userSpaceOnUse" x1="-20.974" x2="380.814" xlink:href="#lg3" y1="640.364" y2="238.577"/><linearGradient id="SVGID_00000084521110831256950350000017482183341396218765_" gradientUnits="userSpaceOnUse" x1="209.859" x2="309.997" y1="409.535" y2="309.397"><stop offset="0" stop-color="#fffa78"/><stop offset=".6266" stop-color="#fffdcf"/><stop offset="1" stop-color="#fff"/></linearGradient><linearGradient id="SVGID_00000034778514908799392220000003014347123885652399_" gradientUnits="userSpaceOnUse" x1="157.109" x2="560.22" xlink:href="#lg2" y1="354.892" y2="-48.219"/><linearGradient id="SVGID_00000117674737616449763600000003328081480299879564_" gradientUnits="userSpaceOnUse" x1="215.828" x2="479.331" xlink:href="#lg2" y1="296.176" y2="32.673"/><g><path d="m512 256c0 141.385-114.615 256-256 256s-256-114.615-256-256 114.615-256 256-256 256 114.615 256 256z" fill="url(#SVGID_1_)"/><path d="m512 256c0 141.385-114.615 256-256 256s-256-114.615-256-256 114.615-256 256-256 256 114.615 256 256z" fill="url(#SVGID_00000025443812800950111880000009499803627080874423_)"/><path d="m95 323.5c.183 14.155 7.235 27.674 18.923 36.558 10.317 7.831 20.62 15.694 30.899 23.569 7.767 5.946 12.41 15.094 12.578 24.686 65.733 1.916 131.467 1.916 197.2 0 .166-9.592 4.81-18.74 12.578-24.686 10.279-7.875 20.582-15.738 30.899-23.569 11.688-8.885 18.741-22.404 18.923-36.558.054-4.14-3.343-7.435-7.579-7.361-102.28 1.814-204.561 1.814-306.842 0-4.237-.074-7.632 3.221-7.579 7.361z" fill="url(#SVGID_00000155123587475632192270000004563466554780556929_)"/><path d="m94.698 218.5c-.106 14.156 6.701 27.445 18.315 35.992 10.248 7.536 20.511 15.136 30.779 22.779 7.757 5.772 12.341 14.833 12.391 24.423 66.545.575 133.089.575 199.634 0 .049-9.591 4.635-18.651 12.391-24.423 10.268-7.643 20.531-15.244 30.779-22.779 11.616-8.55 18.421-21.833 18.315-35.992-.03-4.14-3.498-7.546-7.738-7.605-102.376-1.361-204.753-1.361-307.13 0-4.239.059-7.706 3.463-7.736 7.605z" fill="url(#SVGID_00000106833151398387946880000018258800133914001571_)"/><path d="m96.512 113.5c-.393 14.158 6.077 27.215 17.465 35.426 10.045 7.242 20.134 14.578 30.256 21.989 7.645 5.597 12.11 14.57 12.043 24.16 66.482-.767 132.965-.767 199.447 0-.067-9.591 4.397-18.562 12.043-24.16 10.123-7.412 20.211-14.748 30.256-21.989 11.387-8.211 17.858-21.268 17.465-35.426-.115-4.141-3.608-7.659-7.795-7.848-101.128-4.535-202.256-4.535-303.385 0-4.187.191-7.68 3.708-7.795 7.848z" fill="url(#SVGID_00000176746593809163066460000001369111142484033416_)"/><path d="m308.5 49c-35-.75-70-.75-105 0-24.799.558-45.451 21.886-45.963 47.072-1.966 106.619-1.966 213.238 0 319.857.511 25.185 21.165 46.512 45.963 47.072 35 .75 70 .75 105 0 24.799-.561 45.453-21.884 45.963-47.072 1.966-106.619 1.966-213.238 0-319.857-.511-25.187-21.164-46.514-45.963-47.072z" fill="url(#SVGID_00000170270462135444760610000000711549430452457874_)"/><path d="m203.313 447.667c-16.579-.338-30.346-14.488-30.628-31.31-1.663-106.905-1.663-213.809 0-320.714.281-16.824 14.049-30.971 30.628-31.31 35.125-.695 70.249-.695 105.374 0 16.579.338 30.346 14.485 30.628 31.31 1.663 106.905 1.663 213.809 0 320.714-.282 16.823-14.049 30.972-30.628 31.31-35.125.694-70.249.694-105.374 0z" fill="url(#SVGID_00000077288905247751552340000012123575332289180065_)"/><path d="m203.059 424.667c-4.168-.074-7.603-3.579-7.652-7.801-1.21-107.244-1.21-214.488 0-321.732.049-4.223 3.482-7.729 7.652-7.801 35.294-.611 70.588-.611 105.882 0 4.169.073 7.603 3.578 7.652 7.801 1.21 107.244 1.21 214.488 0 321.732-.049 4.224-3.482 7.728-7.652 7.801-35.294.611-70.588.611-105.882 0z" fill="url(#SVGID_00000136413608813046543260000010230894318904419504_)"/><path d="m301.823 148.589c.164 25.406-20.389 45.895-45.823 45.911-25.434-.013-45.985-20.504-45.822-45.911.177-25.397 20.728-46.332 45.822-46.339 25.093.007 45.647 20.941 45.823 46.339z" fill="url(#SVGID_00000065066353329962224360000009286739771435679916_)"/><path d="m271.301 163.771c-25.374-.076-45.868-20.582-45.718-46.023.006-1.269.077-2.52.182-3.763-9.459 8.524-15.509 20.897-15.588 34.604-.164 25.406 20.388 45.895 45.822 45.911 24.163-.012 43.917-18.522 45.679-42.155-8.052 7.131-18.695 11.457-30.377 11.426z" fill="url(#SVGID_00000101073863598264369890000016151802495824648103_)"/><path d="m301.823 363.411c-.177 25.397-20.728 46.331-45.823 46.339-25.094-.007-45.646-20.942-45.822-46.339-.164-25.406 20.388-45.897 45.822-45.911 25.433.013 45.987 20.508 45.823 45.911z" fill="url(#SVGID_00000168814113280291734980000008324090994997474439_)"/><path d="m271.243 378.973c-25.224.087-45.797-20.732-45.89-46.166-.005-1.269.058-2.521.155-3.761-9.481 8.404-15.411 20.657-15.331 34.365.177 25.397 20.728 46.331 45.822 46.339 23.848-.003 43.567-18.915 45.636-42.581-8.126 7.284-18.756 11.765-30.392 11.804z" fill="url(#SVGID_00000084521110831256950350000017482183341396218765_)"/><path d="m302.125 256c-.006 25.401-20.694 46.117-46.125 46.125-25.431-.01-46.118-20.723-46.125-46.125.006-25.401 20.694-46.115 46.125-46.125 25.431.008 46.118 20.724 46.125 46.125z" fill="url(#SVGID_00000034778514908799392220000003014347123885652399_)"/><path d="m271.373 271.372c-25.466.006-46.135-20.657-46.106-46.094.001-1.268.068-2.519.17-3.762-9.533 8.464-15.562 20.776-15.561 34.484.006 25.401 20.694 46.117 46.125 46.125 24.165-.006 44.031-18.719 45.959-42.368-8.144 7.207-18.852 11.611-30.587 11.615z" fill="url(#SVGID_00000117674737616449763600000003328081480299879564_)"/></g></svg>