<svg xmlns="http://www.w3.org/2000/svg" width="30.461" height="21.462" viewBox="91.627 0.772 30.461 21.462"><path d="M121.451 4.123a3.825 3.825 0 0 0-2.693-2.71c-2.375-.641-11.901-.641-11.901-.641s-9.525 0-11.901.641a3.826 3.826 0 0 0-2.693 2.71c-.636 2.391-.636 7.38-.636 7.38s0 4.988.636 7.379a3.83 3.83 0 0 0 2.693 2.711c2.376.641 11.901.641 11.901.641s9.526 0 11.901-.641a3.828 3.828 0 0 0 2.693-2.711c.637-2.391.637-7.379.637-7.379s0-4.989-.637-7.38m-17.709 11.909V6.974l7.961 4.529-7.961 4.529Z" fill="#184833" fill-rule="evenodd" data-name="Path 167"/></svg>